<svg width="608" height="563" xmlns="http://www.w3.org/2000/svg">
 <defs>
  <clipPath id="clip0_702_5899">
   <rect id="svg_1" fill="white" rx="16" height="563" width="608"/>
  </clipPath>
  <clipPath id="clip1_702_5899">
   <rect id="svg_2" transform="matrix(-1,0,0,1,550.5,286) " fill="white" height="289" width="493"/>
  </clipPath>
  <radialGradient gradientTransform="translate(365.813 60.5225) rotate(94.3696) scale(1000.83 1206.29)" gradientUnits="userSpaceOnUse" r="1" cy="0" cx="0" id="paint0_radial_702_5899">
   <stop stop-color="#001047"/>
   <stop offset="1"/>
  </radialGradient>
  <linearGradient y2="-0.633155" x2="0.314761" y1="0.90166" x1="0.498431" id="paint1_linear_702_5899">
   <stop stop-color="#5956FF"/>
   <stop stop-color="#95FEDA" offset="1"/>
  </linearGradient>
  <linearGradient y2="-0.763038" x2="0.307471" y1="0.789617" x1="-0.000778" id="paint2_linear_702_5899">
   <stop stop-color="#5956FF"/>
   <stop stop-color="#95FEDA" offset="1"/>
  </linearGradient>
  <linearGradient y2="0.493925" x2="2.732319" y1="1.002734" x1="1.009618" id="paint3_linear_702_5899">
   <stop stop-color="#5956FF"/>
   <stop stop-color="#95FEDA" offset="1"/>
  </linearGradient>
  <linearGradient y2="0.304649" x2="1.779789" y1="1.002722" x1="1.00962" id="paint4_linear_702_5899">
   <stop stop-color="#5956FF"/>
   <stop stop-color="#95FEDA" offset="1"/>
  </linearGradient>
  <linearGradient y2="0.351804" x2="2.017118" y1="1.002731" x1="1.009629" id="paint5_linear_702_5899">
   <stop stop-color="#5956FF"/>
   <stop stop-color="#95FEDA" offset="1"/>
  </linearGradient>
  <linearGradient y2="0.231358" x2="1.410851" y1="1.002736" x1="1.009626" id="paint6_linear_702_5899">
   <stop stop-color="#5956FF"/>
   <stop stop-color="#95FEDA" offset="1"/>
  </linearGradient>
  <linearGradient y2="0.678785" x2="3.662684" y1="1.00273" x1="1.009597" id="paint7_linear_702_5899">
   <stop stop-color="#5956FF"/>
   <stop stop-color="#95FEDA" offset="1"/>
  </linearGradient>
  <linearGradient y2="0.442323" x2="2.472662" y1="1.002732" x1="1.009609" id="paint8_linear_702_5899">
   <stop stop-color="#5956FF"/>
   <stop stop-color="#95FEDA" offset="1"/>
  </linearGradient>
  <linearGradient y2="0.693071" x2="3.734811" y1="1.00273" x1="1.009652" id="paint9_linear_702_5899">
   <stop stop-color="#5956FF"/>
   <stop stop-color="#95FEDA" offset="1"/>
  </linearGradient>
  <linearGradient y2="0.456145" x2="2.542217" y1="1.002732" x1="1.009603" id="paint10_linear_702_5899">
   <stop stop-color="#5956FF"/>
   <stop stop-color="#95FEDA" offset="1"/>
  </linearGradient>
 </defs>
 <g>
  <title>background</title>
  <rect fill="none" id="canvas_background" height="402" width="582" y="-1" x="-1"/>
 </g>
 <g>
  <title>Layer 1</title>
  <g id="svg_3" clip-path="url(#clip0_702_5899)">
   <rect id="svg_4" fill="white" rx="16" height="563" width="608"/>
   <rect id="svg_5" fill="url(#paint0_radial_702_5899)" rx="16" height="563" width="608"/>
   <g id="svg_12" clip-path="url(#clip1_702_5899)">
    <path id="svg_13" fill="#81C6E6" d="m206.5,296.75l0,176.447c0,5.667 3.826,6.702 3.826,6.702l291.243,127.745c6.873,1.174 6.098,-11.352 6.098,-11.352l0,-174.272c0,-6.416 -4.214,-7.361 -4.214,-7.361l-290.815,-121.272c0,0 -6.135,-3.395 -6.135,3.361l-0.003,0.002z"/>
    <path id="svg_14" fill="url(#paint1_linear_702_5899)" d="m206.5,296.75l0,176.447c0,5.667 3.826,6.702 3.826,6.702l291.243,127.745c6.873,1.174 6.098,-11.352 6.098,-11.352l0,-174.272c0,-6.416 -4.214,-7.361 -4.214,-7.361l-290.815,-121.272c0,0 -6.135,-3.395 -6.135,3.361l-0.003,0.002z"/>
    <path id="svg_15" fill="#343FC5" d="m515.566,594.32l-10.55,7.106c2.431,-0.775 2.581,-3.98 2.581,-3.98l0.07,-175.14l8.875,-6.108l0,175.731c0,0 0.192,1.599 -0.976,2.394l0,-0.003z"/>
    <path id="svg_16" stroke-opacity="0.05" stroke="#5460F2" d="m515.286,593.905l0.063,-0.042c0.391,-0.296 0.573,-0.726 0.652,-1.131c0.042,-0.211 0.053,-0.403 0.053,-0.541c0,-0.069 -0.003,-0.123 -0.005,-0.159c-0.001,-0.017 -0.002,-0.03 -0.003,-0.037l-0.001,-0.006l0,0l0,-0.001l0,0l0,0l0,-0.001l-0.003,-0.028l0,-0.03l0,-174.78l-7.875,5.42l-0.07,174.877l0,0.012l-0.001,0.011l-0.499,-0.023c0.499,0.023 0.499,0.024 0.499,0.024l0,0l0,0.001l0,0.004l-0.001,0.01l-0.002,0.033c-0.002,0.028 -0.005,0.067 -0.01,0.117c-0.01,0.098 -0.026,0.238 -0.054,0.406c-0.041,0.245 -0.107,0.555 -0.211,0.895l7.468,-5.031z"/>
    <path id="svg_17" fill="#343FC5" d="m504.674,415.281c0,0 3.019,1.548 2.994,7.025l8.874,-6.029c0,-3.98 -1.981,-6.077 -3.164,-6.968l-8.707,5.975l0.003,-0.003z"/>
    <path id="svg_18" fill="#343FC5" d="m513.463,409.374c-0.481,-0.407 -0.951,-0.611 -0.951,-0.611l-290.94,-121.6c0,0 -4.369,-2.532 -7.414,-0.125l-5.643,3.817c0,0 -2.012,1.086 -1.853,4.218c0,0 0.549,-3.48 5.976,-1.684l292.035,121.892l8.79,-5.907z"/>
    <path id="svg_19" stroke-opacity="0.05" stroke="#5460F2" d="m512.582,409.364c-0.008,-0.005 -0.016,-0.01 -0.024,-0.014c-0.078,-0.045 -0.143,-0.079 -0.186,-0.1c-0.022,-0.011 -0.038,-0.019 -0.048,-0.023l-0.011,-0.005l-290.934,-121.598l-0.03,-0.012l291.233,121.752zm0,0l-7.964,5.352l-291.787,-121.788l-0.018,-0.007l-0.018,-0.006c-2.707,-0.896 -4.374,-0.563 -5.381,0.167c0.144,-0.413 0.332,-0.742 0.519,-0.998c0.212,-0.291 0.427,-0.494 0.585,-0.622c0.079,-0.064 0.143,-0.109 0.185,-0.136c0.021,-0.014 0.036,-0.023 0.045,-0.028l0.005,-0.003l0,-0.001l0.001,0l0,0l0.002,-0.001l303.826,118.071zm-291.26,-121.768l0,-0.001l-0.001,0l0,0l-0.007,-0.004l-0.032,-0.018c-0.029,-0.016 -0.074,-0.04 -0.132,-0.07c-0.118,-0.06 -0.291,-0.145 -0.508,-0.24c-0.437,-0.191 -1.048,-0.42 -1.745,-0.578c-1.408,-0.317 -3.078,-0.322 -4.429,0.745l-0.015,0.012l-0.015,0.01l-5.643,3.817l-0.02,0.014l12.547,-3.687z"/>
    <path id="svg_20" fill="#B6E1F8" d="m200.065,483.597l-138.5471,93.497c0,0 -6.0163,4.588 0.7329,8.577l287.3602,120.082c5.682,2.373 10.802,-0.951 10.802,-0.951l141.798,-90.695c5.914,-4.111 -2.598,-8.856 -2.598,-8.856l-285.521,-124.388c0,0 -6.76,-1.96 -14.027,2.734z"/>
    <path id="svg_21" fill="url(#paint2_linear_702_5899)" d="m200.065,483.597l-138.5471,93.497c0,0 -6.0163,4.588 0.7329,8.577l287.3602,120.082c5.682,2.373 10.802,-0.951 10.802,-0.951l141.798,-90.695c5.914,-4.111 -2.598,-8.856 -2.598,-8.856l-285.521,-124.388c0,0 -6.76,-1.96 -14.027,2.734z"/>
    <path id="svg_22" fill="#E5F0FF" d="m216.954,307.574l280.288,117.091l0,165.934l-280.288,-120.601l0,-162.424z"/>
    <mask height="224" width="430" y="503" x="104" maskUnits="userSpaceOnUse" id="mask0_702_5899">
     <path id="svg_23" fill="white" d="m528.171,654.729l4.253,-3.032c1.361,-0.972 1.232,-2.324 -0.288,-3.02l-15.313,-7.014c-1.52,-0.698 -3.859,-0.475 -5.22,0.497l-4.253,3.032c-1.362,0.972 -1.233,2.322 0.287,3.02l15.313,7.014c1.521,0.698 3.859,0.475 5.221,-0.497zm-28.428,-10.133l-15.313,-7.014c-1.521,-0.698 -1.649,-2.05 -0.288,-3.02l4.253,-3.032c1.362,-0.972 3.7,-1.195 5.221,-0.497l15.313,7.014c1.52,0.698 1.649,2.048 0.287,3.02l-4.253,3.032c-1.361,0.972 -3.7,1.195 -5.22,0.497zm-23.208,-10.63l-15.313,-7.014c-1.52,-0.698 -1.649,-2.05 -0.287,-3.02l4.253,-3.032c1.361,-0.972 3.7,-1.195 5.22,-0.497l15.313,7.014c1.521,0.698 1.649,2.048 0.288,3.02l-4.253,3.032c-1.362,0.972 -3.7,1.195 -5.221,0.497zm-23.207,-10.63l-15.313,-7.014c-1.521,-0.698 -1.649,-2.05 -0.288,-3.02l4.253,-3.032c1.362,-0.972 3.7,-1.195 5.221,-0.497l15.313,7.014c1.52,0.698 1.649,2.048 0.287,3.02l-4.253,3.032c-1.361,0.972 -3.7,1.195 -5.22,0.497zm-23.208,-10.629l-15.313,-7.015c-1.52,-0.698 -1.649,-2.05 -0.287,-3.02l4.253,-3.032c1.361,-0.972 3.7,-1.195 5.22,-0.497l15.313,7.014c1.521,0.698 1.649,2.05 0.288,3.02l-4.253,3.032c-1.362,0.972 -3.7,1.195 -5.221,0.498zm-23.207,-10.63l-15.313,-7.015c-1.521,-0.698 -1.649,-2.05 -0.288,-3.02l4.253,-3.032c1.362,-0.972 3.7,-1.195 5.221,-0.497l15.313,7.015c1.52,0.697 1.649,2.048 0.287,3.019l-4.253,3.032c-1.361,0.972 -3.7,1.195 -5.22,0.498zm-23.208,-10.63l-15.313,-7.015c-1.52,-0.697 -1.649,-2.05 -0.287,-3.02l4.253,-3.032c1.361,-0.972 3.7,-1.195 5.22,-0.497l15.313,7.015c1.521,0.697 1.649,2.048 0.288,3.02l-4.253,3.032c-1.362,0.972 -3.7,1.194 -5.221,0.497zm-23.207,-10.63l-15.313,-7.015c-1.521,-0.697 -1.649,-2.05 -0.288,-3.02l4.253,-3.032c1.362,-0.972 3.7,-1.194 5.221,-0.497l15.313,7.015c1.52,0.697 1.649,2.048 0.287,3.02l-4.253,3.032c-1.361,0.972 -3.7,1.194 -5.22,0.497zm-23.208,-10.63l-15.313,-7.015c-1.52,-0.697 -1.649,-2.049 -0.287,-3.02l4.253,-3.032c1.361,-0.972 3.7,-1.194 5.22,-0.497l15.313,7.015c1.521,0.697 1.649,2.048 0.288,3.02l-4.253,3.032c-1.362,0.972 -3.7,1.194 -5.221,0.497zm-23.207,-10.63l-15.313,-7.015c-1.521,-0.697 -1.649,-2.049 -0.288,-3.02l4.253,-3.032c1.362,-0.972 3.7,-1.194 5.221,-0.497l15.313,7.015c1.52,0.697 1.649,2.048 0.287,3.02l-4.253,3.032c-1.361,0.972 -3.7,1.194 -5.22,0.497zm-23.208,-10.63l-15.313,-7.015c-1.52,-0.697 -1.649,-2.049 -0.287,-3.02l4.253,-3.032c1.361,-0.972 3.7,-1.194 5.22,-0.497l15.313,7.015c1.521,0.697 1.649,2.048 0.288,3.02l-4.253,3.032c-1.362,0.972 -3.7,1.195 -5.221,0.497zm-23.207,-10.63l-15.315,-7.014c-1.52,-0.698 -1.649,-2.05 -0.288,-3.02l4.253,-3.032c1.362,-0.972 3.7,-1.195 5.221,-0.497l15.315,7.014c1.52,0.698 1.649,2.048 0.287,3.02l-4.253,3.032c-1.361,0.972 -3.7,1.195 -5.22,0.497zm-23.208,-10.63l-15.313,-7.015c-1.52,-0.697 -1.649,-2.049 -0.287,-3.019l4.253,-3.032c1.361,-0.972 3.7,-1.195 5.22,-0.498l15.313,7.015c1.521,0.698 1.649,2.05 0.288,3.02l-4.253,3.032c-1.362,0.972 -3.7,1.195 -5.221,0.497zm-29.334,-24.192l15.313,7.015c1.52,0.697 1.649,2.048 0.287,3.02l-4.253,3.032c-1.361,0.972 -3.699,1.195 -5.22,0.497l-15.313,-7.015c-1.52,-0.697 -1.649,-2.049 -0.288,-3.02l4.253,-3.032c1.362,-0.972 3.7,-1.194 5.221,-0.497zm287.097,165.056l-9.162,-4.196c-2.212,-1.012 -2.399,-2.979 -0.418,-4.391l8.205,-5.85c1.982,-1.412 5.381,-1.735 7.593,-0.723l9.162,4.196c2.212,1.012 2.399,2.979 0.418,4.391l-8.205,5.85c-1.982,1.412 -5.381,1.735 -7.593,0.723zm-21.854,-10.01l-9.162,-4.195c-2.212,-1.013 -2.399,-2.98 -0.418,-4.392l8.205,-5.849c1.982,-1.412 5.381,-1.736 7.593,-0.723l9.162,4.195c2.212,1.013 2.399,2.98 0.418,4.392l-8.205,5.849c-1.982,1.412 -5.381,1.736 -7.593,0.723zm-14.263,-10.732c-1.981,1.412 -5.38,1.736 -7.592,0.723l-9.162,-4.196c-2.212,-1.012 -2.4,-2.979 -0.418,-4.391l8.205,-5.85c1.981,-1.411 5.38,-1.735 7.592,-0.723l9.162,4.196c2.212,1.012 2.4,2.98 0.418,4.391l-8.205,5.85zm-13.651,-15.861l-8.205,5.85c-1.981,1.412 -5.38,1.735 -7.592,0.723l-9.162,-4.196c-2.212,-1.012 -2.4,-2.979 -0.418,-4.391l8.205,-5.85c1.981,-1.412 5.38,-1.735 7.592,-0.723l9.162,4.196c2.212,1.012 2.4,2.979 0.418,4.391zm-21.853,-10.009l-8.206,5.849c-1.981,1.412 -5.38,1.736 -7.592,0.723l-9.162,-4.195c-2.212,-1.013 -2.399,-2.98 -0.418,-4.392l8.205,-5.849c1.981,-1.412 5.38,-1.736 7.592,-0.723l9.162,4.195c2.212,1.013 2.4,2.98 0.419,4.392zm-46.812,-7.633c-2.212,-1.013 -2.4,-2.98 -0.418,-4.392l8.205,-5.849c1.981,-1.412 5.38,-1.736 7.592,-0.723l9.162,4.196c2.212,1.012 2.4,2.979 0.418,4.391l-8.205,5.85c-1.981,1.411 -5.38,1.735 -7.592,0.723l-9.162,-4.196zm-21.854,-10.009c-2.212,-1.013 -2.399,-2.98 -0.418,-4.392l8.205,-5.85c1.981,-1.411 5.38,-1.735 7.592,-0.723l9.162,4.196c2.212,1.013 2.4,2.98 0.418,4.392l-8.205,5.849c-1.981,1.412 -5.38,1.736 -7.592,0.723l-9.162,-4.195zm-21.854,-10.01c-2.212,-1.013 -2.399,-2.98 -0.418,-4.392l8.205,-5.849c1.981,-1.412 5.38,-1.736 7.593,-0.723l9.161,4.195c2.212,1.013 2.4,2.98 0.419,4.392l-8.206,5.849c-1.981,1.412 -5.38,1.736 -7.592,0.724l-9.162,-4.196zm-21.854,-10.01c-2.212,-1.012 -2.399,-2.979 -0.418,-4.391l8.205,-5.85c1.981,-1.411 5.381,-1.735 7.593,-0.723l9.161,4.196c2.213,1.012 2.4,2.98 0.419,4.392l-8.206,5.849c-1.981,1.412 -5.38,1.736 -7.592,0.723l-9.162,-4.196zm-21.854,-10.009c-2.212,-1.013 -2.399,-2.98 -0.418,-4.392l8.205,-5.849c1.981,-1.412 5.381,-1.736 7.593,-0.723l9.162,4.195c2.212,1.013 2.399,2.98 0.418,4.392l-8.205,5.849c-1.982,1.412 -5.381,1.736 -7.593,0.724l-9.162,-4.196zm3.104,-12.386l-8.205,5.849c-1.981,1.412 -5.38,1.736 -7.593,0.723l-9.161,-4.195c-2.213,-1.013 -2.4,-2.98 -0.419,-4.392l8.206,-5.849c1.981,-1.412 5.38,-1.736 7.592,-0.724l9.162,4.196c2.212,1.013 2.399,2.98 0.418,4.392zm-21.854,-10.01l-8.205,5.85c-1.981,1.411 -5.38,1.735 -7.592,0.723l-9.162,-4.196c-2.212,-1.012 -2.4,-2.98 -0.419,-4.392l8.206,-5.849c1.981,-1.412 5.38,-1.736 7.592,-0.723l9.162,4.196c2.212,1.012 2.399,2.979 0.418,4.391zm-22.272,-14.401c2.212,1.013 2.4,2.98 0.418,4.392l-8.205,5.849c-1.981,1.412 -5.38,1.736 -7.592,0.723l-9.162,-4.195c-2.212,-1.013 -2.4,-2.98 -0.418,-4.392l8.205,-5.85c1.981,-1.411 5.38,-1.735 7.592,-0.723l9.162,4.196zm-51.69,-23.676l28.852,13.215c2.212,1.012 2.399,2.979 0.418,4.391l-8.205,5.85c-1.981,1.412 -5.381,1.735 -7.593,0.723l-28.852,-13.215c-2.212,-1.012 -2.399,-2.98 -0.418,-4.391l8.205,-5.85c1.981,-1.412 5.38,-1.736 7.593,-0.723zm-34.493,25.664c-2.213,-1.013 -2.4,-2.98 -0.419,-4.392l8.206,-5.849c1.981,-1.412 5.38,-1.736 7.592,-0.723l9.162,4.195c2.212,1.013 2.399,2.98 0.418,4.392l-8.205,5.849c-1.981,1.412 -5.381,1.736 -7.593,0.723l-9.161,-4.195zm21.435,5.618l8.205,-5.85c1.982,-1.412 5.381,-1.735 7.593,-0.723l9.162,4.196c2.212,1.012 2.399,2.979 0.418,4.391l-8.205,5.85c-1.981,1.412 -5.381,1.735 -7.593,0.723l-9.162,-4.196c-2.212,-1.012 -2.399,-2.979 -0.418,-4.391zm21.854,10.009l8.205,-5.849c1.982,-1.412 5.381,-1.736 7.593,-0.723l9.162,4.195c2.212,1.013 2.399,2.98 0.418,4.392l-8.205,5.849c-1.982,1.412 -5.381,1.736 -7.593,0.723l-9.162,-4.195c-2.212,-1.013 -2.399,-2.98 -0.418,-4.392zm21.854,10.01l8.205,-5.85c1.981,-1.412 5.381,-1.735 7.593,-0.723l9.162,4.196c2.212,1.012 2.399,2.979 0.418,4.391l-8.205,5.85c-1.982,1.412 -5.381,1.735 -7.593,0.723l-9.162,-4.196c-2.212,-1.012 -2.399,-2.979 -0.418,-4.391zm21.854,10.009l8.205,-5.849c1.981,-1.412 5.38,-1.736 7.593,-0.723l9.161,4.195c2.213,1.013 2.4,2.98 0.419,4.392l-8.206,5.849c-1.981,1.412 -5.38,1.736 -7.592,0.723l-9.162,-4.195c-2.212,-1.013 -2.399,-2.98 -0.418,-4.392zm47.23,12.026l-8.205,5.85c-1.981,1.412 -5.381,1.735 -7.593,0.723l-9.162,-4.196c-2.212,-1.012 -2.399,-2.979 -0.418,-4.391l8.205,-5.85c1.982,-1.412 5.381,-1.735 7.593,-0.723l9.162,4.196c2.212,1.012 2.399,2.979 0.418,4.391zm21.854,10.01l-8.205,5.849c-1.982,1.412 -5.381,1.736 -7.593,0.723l-9.162,-4.195c-2.212,-1.013 -2.399,-2.98 -0.418,-4.392l8.205,-5.849c1.982,-1.412 5.381,-1.736 7.593,-0.723l9.162,4.195c2.212,1.013 2.399,2.98 0.418,4.392zm21.854,10.009l-8.205,5.85c-1.982,1.412 -5.381,1.735 -7.593,0.723l-9.162,-4.196c-2.212,-1.012 -2.399,-2.979 -0.418,-4.391l8.205,-5.85c1.981,-1.412 5.381,-1.735 7.593,-0.723l9.162,4.196c2.212,1.012 2.399,2.98 0.418,4.391zm21.854,10.01l-8.206,5.849c-1.981,1.412 -5.38,1.736 -7.592,0.723l-9.162,-4.195c-2.212,-1.013 -2.399,-2.98 -0.418,-4.392l8.205,-5.849c1.981,-1.412 5.381,-1.736 7.593,-0.723l9.161,4.195c2.213,1.013 2.4,2.98 0.419,4.392zm21.854,10.009l-8.206,5.85c-1.981,1.412 -5.38,1.735 -7.592,0.723l-9.162,-4.196c-2.212,-1.012 -2.399,-2.979 -0.418,-4.391l8.205,-5.85c1.981,-1.412 5.38,-1.735 7.593,-0.723l9.161,4.196c2.212,1.012 2.4,2.98 0.419,4.391zm-3.523,7.995l8.206,-5.849c1.981,-1.412 5.38,-1.736 7.592,-0.723l9.162,4.195c2.212,1.013 2.399,2.98 0.418,4.392l-8.205,5.849c-1.981,1.412 -5.38,1.736 -7.592,0.723l-9.162,-4.195c-2.212,-1.013 -2.4,-2.98 -0.419,-4.392zm21.854,10.01l8.206,-5.85c1.981,-1.412 5.38,-1.735 7.592,-0.723l9.162,4.196c2.212,1.012 2.399,2.979 0.418,4.391l-8.205,5.85c-1.981,1.412 -5.38,1.735 -7.593,0.723l-9.161,-4.196c-2.213,-1.012 -2.4,-2.979 -0.419,-4.391zm21.854,10.009l8.205,-5.849c1.982,-1.412 5.381,-1.736 7.593,-0.723l9.162,4.195c2.212,1.013 2.399,2.98 0.418,4.392l-8.205,5.849c-1.981,1.412 -5.381,1.736 -7.593,0.723l-9.161,-4.195c-2.213,-1.013 -2.4,-2.98 -0.419,-4.392zm51.2,27.65l-28.853,-13.215c-2.212,-1.012 -2.399,-2.979 -0.418,-4.391l8.205,-5.85c1.982,-1.412 5.381,-1.735 7.593,-0.723l28.852,13.215c2.212,1.013 2.4,2.98 0.418,4.392l-8.205,5.849c-1.981,1.412 -5.38,1.736 -7.592,0.723zm-319.082,-140.139l21.841,10.004c2.212,1.013 2.399,2.98 0.418,4.392l-8.205,5.849c-1.981,1.412 -5.38,1.736 -7.592,0.723l-21.841,-10.004c-2.212,-1.012 -2.4,-2.979 -0.418,-4.391l8.205,-5.85c1.981,-1.411 5.38,-1.735 7.592,-0.723zm28.317,30.979l-9.161,-4.195c-2.213,-1.013 -2.4,-2.98 -0.419,-4.392l8.206,-5.849c1.981,-1.412 5.38,-1.736 7.592,-0.723l9.162,4.195c2.212,1.013 2.399,2.98 0.418,4.392l-8.205,5.849c-1.981,1.412 -5.38,1.736 -7.593,0.723zm21.854,10.01l-9.162,-4.196c-2.212,-1.012 -2.399,-2.979 -0.418,-4.391l8.205,-5.85c1.982,-1.412 5.381,-1.735 7.593,-0.723l9.162,4.196c2.212,1.012 2.399,2.979 0.418,4.391l-8.205,5.85c-1.981,1.412 -5.381,1.735 -7.593,0.723zm21.854,10.009l-9.162,-4.195c-2.212,-1.013 -2.399,-2.98 -0.418,-4.392l8.205,-5.849c1.982,-1.412 5.381,-1.736 7.593,-0.723l9.162,4.195c2.212,1.013 2.399,2.98 0.418,4.392l-8.205,5.849c-1.982,1.412 -5.381,1.736 -7.593,0.723zm12.276,1.423l8.205,-5.85c1.981,-1.412 5.38,-1.736 7.593,-0.723l9.161,4.196c2.212,1.012 2.4,2.979 0.419,4.391l-8.206,5.85c-1.981,1.411 -5.38,1.735 -7.592,0.723l-9.162,-4.196c-2.212,-1.012 -2.399,-2.98 -0.418,-4.391zm21.854,10.009l8.205,-5.849c1.981,-1.412 5.38,-1.736 7.592,-0.723l9.162,4.195c2.212,1.013 2.4,2.98 0.418,4.392l-8.205,5.849c-1.981,1.412 -5.38,1.736 -7.592,0.723l-9.162,-4.195c-2.212,-1.013 -2.399,-2.98 -0.418,-4.392zm21.854,10.01l8.205,-5.85c1.981,-1.412 5.38,-1.735 7.592,-0.723l9.162,4.196c2.212,1.012 2.4,2.979 0.418,4.391l-8.205,5.85c-1.981,1.412 -5.38,1.735 -7.592,0.723l-9.162,-4.196c-2.212,-1.012 -2.4,-2.98 -0.418,-4.391zm21.854,10.009l8.205,-5.849c1.981,-1.412 5.38,-1.736 7.592,-0.723l9.162,4.195c2.212,1.013 2.4,2.98 0.418,4.392l-8.205,5.849c-1.981,1.412 -5.38,1.736 -7.592,0.723l-9.162,-4.195c-2.212,-1.013 -2.4,-2.98 -0.418,-4.392zm21.853,10.01l8.206,-5.85c1.981,-1.412 5.38,-1.735 7.592,-0.723l9.162,4.196c2.212,1.012 2.399,2.979 0.418,4.391l-8.205,5.85c-1.981,1.412 -5.38,1.735 -7.593,0.723l-9.161,-4.196c-2.212,-1.012 -2.4,-2.98 -0.419,-4.391zm31.435,18.598l-9.162,-4.195c-2.212,-1.013 -2.4,-2.98 -0.419,-4.392l8.206,-5.85c1.981,-1.411 5.38,-1.735 7.592,-0.723l9.162,4.196c2.212,1.013 2.399,2.98 0.418,4.392l-8.205,5.849c-1.981,1.412 -5.38,1.736 -7.592,0.723zm21.853,10.01l-9.161,-4.196c-2.213,-1.013 -2.4,-2.98 -0.419,-4.392l8.206,-5.849c1.981,-1.412 5.38,-1.736 7.592,-0.723l9.162,4.196c2.212,1.012 2.399,2.979 0.418,4.391l-8.205,5.85c-1.981,1.411 -5.38,1.735 -7.593,0.723zm21.854,10.009l-9.161,-4.195c-2.213,-1.013 -2.4,-2.98 -0.419,-4.392l8.205,-5.849c1.982,-1.412 5.381,-1.736 7.593,-0.724l9.162,4.196c2.212,1.013 2.399,2.98 0.418,4.392l-8.205,5.849c-1.981,1.412 -5.381,1.736 -7.593,0.723zm51.706,23.682l-38.029,-17.418c-2.213,-1.013 -2.4,-2.98 -0.419,-4.392l8.206,-5.849c1.981,-1.412 5.38,-1.736 7.592,-0.723l38.027,17.418c2.213,1.012 2.4,2.98 0.419,4.391l-8.206,5.85c-1.981,1.412 -5.38,1.736 -7.592,0.723l0.002,0zm-319.078,-140.137l31.813,14.57c2.212,1.013 2.399,2.98 0.418,4.392l-8.205,5.85c-1.982,1.411 -5.381,1.735 -7.593,0.723l-31.812,-14.571c-2.213,-1.013 -2.4,-2.98 -0.419,-4.392l8.205,-5.849c1.982,-1.412 5.381,-1.736 7.593,-0.723zm36.914,21.107c1.981,-1.412 5.38,-1.735 7.592,-0.723l9.162,4.196c2.212,1.012 2.4,2.98 0.418,4.391l-8.205,5.85c-1.981,1.412 -5.38,1.735 -7.592,0.723l-9.162,-4.196c-2.212,-1.012 -2.4,-2.979 -0.418,-4.391l8.205,-5.85zm13.651,15.861l8.205,-5.85c1.981,-1.411 5.38,-1.735 7.592,-0.723l9.162,4.196c2.212,1.012 2.4,2.98 0.418,4.392l-8.205,5.849c-1.981,1.412 -5.38,1.736 -7.592,0.723l-9.162,-4.196c-2.212,-1.012 -2.4,-2.979 -0.418,-4.391zm31.434,18.598l-9.162,-4.195c-2.212,-1.013 -2.4,-2.98 -0.418,-4.392l8.205,-5.849c1.981,-1.412 5.38,-1.736 7.592,-0.723l9.162,4.195c2.212,1.013 2.4,2.98 0.418,4.392l-8.205,5.849c-1.981,1.412 -5.38,1.736 -7.592,0.723zm21.854,10.01l-9.162,-4.196c-2.212,-1.012 -2.4,-2.979 -0.418,-4.391l8.205,-5.85c1.981,-1.412 5.38,-1.735 7.592,-0.723l9.162,4.196c2.212,1.012 2.4,2.979 0.418,4.391l-8.205,5.85c-1.981,1.412 -5.38,1.735 -7.592,0.723zm21.853,10.009l-9.161,-4.195c-2.212,-1.013 -2.4,-2.98 -0.419,-4.392l8.206,-5.849c1.981,-1.412 5.38,-1.736 7.592,-0.723l9.162,4.195c2.212,1.013 2.399,2.98 0.418,4.392l-8.205,5.849c-1.981,1.412 -5.38,1.736 -7.593,0.723zm21.854,10.01l-9.161,-4.196c-2.213,-1.012 -2.4,-2.979 -0.419,-4.391l8.206,-5.85c1.981,-1.412 5.38,-1.735 7.592,-0.723l9.162,4.196c2.212,1.012 2.399,2.98 0.418,4.391l-8.205,5.85c-1.981,1.412 -5.38,1.735 -7.593,0.723zm21.854,10.009l-9.162,-4.195c-2.212,-1.013 -2.399,-2.98 -0.418,-4.392l8.205,-5.849c1.982,-1.412 5.381,-1.736 7.593,-0.723l9.162,4.195c2.212,1.013 2.399,2.98 0.418,4.392l-8.205,5.849c-1.981,1.412 -5.381,1.736 -7.593,0.723zm21.854,10.01l-9.162,-4.196c-2.212,-1.012 -2.399,-2.979 -0.418,-4.391l8.205,-5.85c1.982,-1.411 5.381,-1.735 7.593,-0.723l9.162,4.196c2.212,1.012 2.399,2.98 0.418,4.392l-8.205,5.849c-1.982,1.412 -5.381,1.736 -7.593,0.723zm28.072,-5.15l9.162,4.195c2.212,1.013 2.399,2.98 0.418,4.392l-8.205,5.849c-1.982,1.412 -5.381,1.736 -7.593,0.724l-9.162,-4.196c-2.212,-1.013 -2.399,-2.98 -0.418,-4.392l8.205,-5.849c1.981,-1.412 5.381,-1.736 7.593,-0.723zm6.058,16.582l8.205,-5.85c1.981,-1.412 5.38,-1.735 7.592,-0.723l9.162,4.196c2.212,1.012 2.4,2.98 0.418,4.391l-8.205,5.85c-1.981,1.412 -5.38,1.735 -7.592,0.723l-9.162,-4.196c-2.212,-1.012 -2.4,-2.979 -0.418,-4.391zm71.996,37.177l-48.74,-22.324c-2.212,-1.013 -2.399,-2.98 -0.418,-4.392l8.205,-5.849c1.981,-1.412 5.381,-1.736 7.593,-0.724l48.739,22.325c2.212,1.012 2.4,2.979 0.419,4.391l-8.206,5.85c-1.981,1.412 -5.38,1.735 -7.592,0.723zm-265.636,-115.659l9.162,4.196c2.212,1.012 2.399,2.979 0.418,4.391l-8.205,5.85c-1.982,1.411 -5.381,1.735 -7.593,0.723l-9.162,-4.196c-2.212,-1.012 -2.399,-2.98 -0.418,-4.392l8.205,-5.849c1.981,-1.412 5.381,-1.736 7.593,-0.723zm-46.444,-11.7l9.004,4.124c1.018,0.467 1.104,1.371 0.192,2.021l-3.601,2.567c-0.912,0.65 -2.475,0.799 -3.492,0.333l-9.004,-4.125c-1.018,-0.466 -1.104,-1.37 -0.192,-2.02l3.601,-2.568c0.912,-0.65 2.474,-0.799 3.492,-0.332zm-15.338,-7.025l9.005,4.124c1.018,0.467 1.104,1.371 0.192,2.021l-3.601,2.567c-0.912,0.651 -2.474,0.799 -3.492,0.333l-9.004,-4.125c-1.018,-0.466 -1.104,-1.37 -0.193,-2.02l3.602,-2.568c0.911,-0.65 2.473,-0.799 3.491,-0.332zm31.55,14.451l9.005,4.124c1.018,0.467 1.104,1.371 0.192,2.021l-3.601,2.567c-0.912,0.651 -2.474,0.799 -3.492,0.333l-9.004,-4.125c-1.018,-0.466 -1.104,-1.37 -0.193,-2.02l3.602,-2.568c0.912,-0.65 2.473,-0.799 3.491,-0.332zm-7.629,-13.544l9.004,4.124c1.018,0.467 1.104,1.371 0.192,2.021l-3.601,2.567c-0.912,0.651 -2.475,0.799 -3.491,0.333l-9.005,-4.125c-1.018,-0.466 -1.104,-1.37 -0.192,-2.02l3.601,-2.568c0.912,-0.65 2.475,-0.799 3.492,-0.332zm94.829,43.912l100.707,46.127c2.212,1.013 2.4,2.98 0.419,4.392l-8.206,5.849c-1.981,1.412 -5.38,1.736 -7.592,0.723l-100.71,-46.127c-2.212,-1.013 -2.399,-2.98 -0.418,-4.392l8.205,-5.849c1.982,-1.412 5.381,-1.736 7.593,-0.723l0.002,0zm114.134,52.275l22.84,10.461c2.212,1.013 2.4,2.98 0.418,4.392l-8.205,5.85c-1.981,1.411 -5.38,1.735 -7.592,0.723l-22.84,-10.461c-2.212,-1.013 -2.4,-2.98 -0.419,-4.392l8.206,-5.85c1.981,-1.411 5.38,-1.735 7.592,-0.723zm-149.826,-68.623l22.84,10.461c2.212,1.013 2.4,2.98 0.419,4.392l-8.206,5.849c-1.981,1.412 -5.38,1.736 -7.592,0.723l-22.84,-10.461c-2.212,-1.012 -2.4,-2.979 -0.418,-4.391l8.205,-5.85c1.981,-1.412 5.38,-1.735 7.592,-0.723zm185.951,85.169l9.161,4.196c2.213,1.012 2.4,2.98 0.419,4.391l-8.206,5.85c-1.981,1.412 -5.38,1.735 -7.592,0.723l-9.162,-4.196c-2.212,-1.012 -2.399,-2.979 -0.418,-4.391l8.205,-5.85c1.981,-1.412 5.38,-1.735 7.593,-0.723zm21.854,10.01l9.161,4.195c2.212,1.013 2.4,2.98 0.419,4.392l-8.206,5.849c-1.981,1.412 -5.38,1.736 -7.592,0.723l-9.162,-4.195c-2.212,-1.013 -2.399,-2.98 -0.418,-4.392l8.205,-5.849c1.981,-1.412 5.38,-1.736 7.593,-0.723zm21.853,10.009l9.162,4.196c2.212,1.012 2.4,2.98 0.418,4.392l-8.205,5.849c-1.981,1.412 -5.38,1.736 -7.592,0.723l-9.162,-4.196c-2.212,-1.012 -2.4,-2.979 -0.418,-4.391l8.205,-5.85c1.981,-1.411 5.38,-1.735 7.592,-0.723z"/>
    </mask>
    <g id="svg_24" mask="url(#mask0_702_5899)">
     <path id="svg_25" fill="#7FC1E7" d="m171.553,564.456l-1.003,-1.533l-34.213,22.273l0.631,0.968l1.458,-0.139l33.127,-21.569z"/>
     <path id="svg_26" fill="#7FC1E7" d="m169.537,561.414l1.003,1.534l-34.213,22.276l-1.003,-1.534l34.213,-22.276z"/>
     <path id="svg_27" fill="#7FC1E7" d="m168.531,559.888l1.003,1.534l-34.213,22.276l-1.003,-1.534l34.213,-22.276z"/>
     <path id="svg_28" fill="#7FC1E7" d="m167.53,558.346l1.003,1.534l-34.213,22.276l-1.003,-1.534l34.213,-22.276z"/>
     <path id="svg_29" fill="#7FC1E7" d="m166.527,556.81l1.003,1.534l-34.213,22.277l-1.003,-1.534l34.213,-22.277z"/>
     <path id="svg_30" fill="#7FC1E7" d="m165.523,555.277l1.003,1.534l-34.213,22.277l-1.003,-1.534l34.213,-22.277z"/>
     <path id="svg_31" fill="#7FC1E7" d="m165.53,555.249l-0.833,-1.276l-0.665,0.064l-33.718,21.952l1.003,1.536l34.213,-22.276z"/>
     <path id="svg_32" fill="#7FC1E7" d="m160.097,554.411l-30.787,20.045l1.004,1.533l33.718,-21.952l-3.935,0.374z"/>
     <path id="svg_33" fill="#7FC1E7" d="m156.159,554.786l-27.853,18.134l1.005,1.536l30.786,-20.045l-3.938,0.375z"/>
     <path id="svg_34" fill="#7FC1E7" d="m152.223,555.161l-24.92,16.226l1.003,1.533l27.853,-18.134l-3.936,0.375z"/>
     <path id="svg_35" fill="#7FC1E7" d="m148.286,555.536l-21.986,14.315l1.003,1.536l24.921,-16.226l-3.938,0.375z"/>
     <path id="svg_36" fill="#7FC1E7" d="m144.35,555.911l-19.055,12.407l1.005,1.533l21.986,-14.315l-3.936,0.375z"/>
     <path id="svg_37" fill="#7FC1E7" d="m140.415,556.286l-15.475,10.075l0.157,1.654l0.198,0.303l19.056,-12.407l-3.936,0.375z"/>
     <path id="svg_38" fill="#7FC1E7" d="m136.478,556.661l-11.734,7.639l0.196,2.061l15.475,-10.075l-3.937,0.375z"/>
     <path id="svg_39" fill="#7FC1E7" d="m132.542,557.036l-7.994,5.205l0.196,2.059l11.734,-7.639l-3.936,0.375z"/>
     <path id="svg_40" fill="#7FC1E7" d="m124.547,562.241l7.994,-5.205l-8.413,0.801l0.419,4.404z"/>
     <path id="svg_41" fill="#7FC1E7" d="m208.959,562.941l-0.441,-0.671l-19.761,12.866l3.936,-0.375l16.376,-10.662l-0.11,-1.158z"/>
     <path id="svg_42" fill="#7FC1E7" d="m208.519,562.27l-1.003,-1.535l-22.696,14.776l3.938,-0.375l19.761,-12.866z"/>
     <path id="svg_43" fill="#7FC1E7" d="m207.515,560.735l-1.003,-1.534l-23.088,15.03l0.869,1.33l0.526,-0.05l22.696,-14.776z"/>
     <path id="svg_44" fill="#7FC1E7" d="m205.501,557.691l1.004,1.534l-23.086,15.032l-1.004,-1.534l23.086,-15.032z"/>
     <path id="svg_45" fill="#7FC1E7" d="m205.507,557.666l-0.703,-1.076l-1.178,0.112l-22.209,14.46l1.005,1.535l23.085,-15.031z"/>
     <path id="svg_46" fill="#7FC1E7" d="m199.69,557.077l-19.277,12.551l1.003,1.534l22.21,-14.46l-3.936,0.375z"/>
     <path id="svg_47" fill="#7FC1E7" d="m195.753,557.452l-15.755,10.258l0.143,1.499l0.273,0.419l19.276,-12.551l-3.937,0.375z"/>
     <path id="svg_48" fill="#7FC1E7" d="m191.817,557.827l-12.015,7.823l0.196,2.06l15.755,-10.258l-3.936,0.375z"/>
     <path id="svg_49" fill="#7FC1E7" d="m187.882,558.202l-8.276,5.387l0.196,2.061l12.015,-7.823l-3.935,0.375z"/>
     <path id="svg_50" fill="#7FC1E7" d="m183.944,558.577l-4.534,2.953l0.196,2.059l8.276,-5.387l-3.938,0.375z"/>
     <path id="svg_51" fill="#7FC1E7" d="m180.009,558.951l-0.796,0.518l0.197,2.061l4.534,-2.953l-3.935,0.374z"/>
     <path id="svg_52" fill="#7FC1E7" d="m179.213,559.469l0.795,-0.518l-0.837,0.08l0.042,0.438z"/>
     <path id="svg_53" fill="#7FC1E7" d="m188.014,562.492l-1.121,0.729l1.179,-0.113l-0.058,-0.616z"/>
     <path id="svg_54" fill="#7FC1E7" d="m187.817,560.43l-4.862,3.166l3.938,-0.375l1.121,-0.729l-0.197,-2.062z"/>
     <path id="svg_55" fill="#7FC1E7" d="m187.621,558.371l-8.602,5.599l3.936,-0.374l4.862,-3.166l-0.196,-2.059z"/>
     <path id="svg_56" fill="#7FC1E7" d="m187.425,556.31l-12.342,8.035l3.936,-0.375l8.602,-5.599l-0.196,-2.061z"/>
     <path id="svg_57" fill="#7FC1E7" d="m187.229,554.251l-16.082,10.469l3.937,-0.375l12.342,-8.035l-0.197,-2.059z"/>
     <path id="svg_58" fill="#7FC1E7" d="m187.103,552.932l-0.361,-0.552l-19.532,12.715l3.936,-0.375l16.083,-10.469l-0.126,-1.319z"/>
     <path id="svg_59" fill="#7FC1E7" d="m186.743,552.38l-1.003,-1.535l-22.467,14.625l3.938,-0.375l19.532,-12.715z"/>
     <path id="svg_60" fill="#7FC1E7" d="m185.74,550.845l-1.003,-1.534l-25.399,16.534l3.935,-0.375l22.467,-14.625z"/>
     <path id="svg_61" fill="#7FC1E7" d="m184.736,549.311l-1.005,-1.535l-28.33,18.444l3.936,-0.375l25.399,-16.534z"/>
     <path id="svg_62" fill="#7FC1E7" d="m183.731,547.776l-1.003,-1.534l-29.316,19.085l0.667,1.019l1.322,-0.126l28.33,-18.444z"/>
     <path id="svg_63" fill="#7FC1E7" d="m181.714,544.735l1.004,1.534l-29.314,19.087l-1.004,-1.534l29.314,-19.087z"/>
     <path id="svg_64" fill="#7FC1E7" d="m180.71,543.204l1.004,1.534l-29.314,19.087l-1.004,-1.534l29.314,-19.087z"/>
     <path id="svg_65" fill="#7FC1E7" d="m179.709,541.663l1.003,1.534l-29.314,19.087l-1.004,-1.534l29.315,-19.087z"/>
     <path id="svg_66" fill="#7FC1E7" d="m178.703,540.133l1.003,1.533l-29.314,19.087l-1.004,-1.534l29.315,-19.086z"/>
     <path id="svg_67" fill="#7FC1E7" d="m178.713,540.104l-0.084,-0.128l-3.61,0.344l-26.625,17.334l1.003,1.535l29.316,-19.085z"/>
     <path id="svg_68" fill="#7FC1E7" d="m171.082,540.695l-23.69,15.425l1.003,1.534l26.625,-17.334l-3.938,0.375z"/>
     <path id="svg_69" fill="#7FC1E7" d="m167.146,541.07l-20.759,13.515l1.005,1.535l23.69,-15.425l-3.936,0.375z"/>
     <path id="svg_70" fill="#7FC1E7" d="m163.21,541.445l-17.648,11.489l0.044,0.458l0.78,1.193l20.76,-13.515l-3.936,0.375z"/>
     <path id="svg_71" fill="#7FC1E7" d="m159.272,541.82l-13.906,9.055l0.196,2.059l17.648,-11.489l-3.938,0.375z"/>
     <path id="svg_72" fill="#7FC1E7" d="m155.337,542.195l-10.167,6.619l0.196,2.061l13.906,-9.055l-3.935,0.375z"/>
     <path id="svg_73" fill="#7FC1E7" d="m145.17,548.814l10.167,-6.619l-10.7,1.019l0.533,5.6z"/>
     <path id="svg_74" fill="#7FC1E7" d="m261.411,562.95l-0.05,-0.077l-18.624,12.126l3.936,-0.375l14.924,-9.717l-0.186,-1.957z"/>
     <path id="svg_75" fill="#7FC1E7" d="m261.361,562.873l-1.003,-1.534l-21.558,14.035l3.937,-0.375l18.624,-12.126z"/>
     <path id="svg_76" fill="#7FC1E7" d="m260.358,561.339l-1.003,-1.535l-23.088,15.031l0.481,0.734l2.052,-0.195l21.558,-14.035z"/>
     <path id="svg_77" fill="#7FC1E7" d="m258.343,558.299l1.004,1.534l-23.087,15.032l-1.003,-1.534l23.086,-15.032z"/>
     <path id="svg_78" fill="#7FC1E7" d="m257.342,556.76l1.004,1.534l-23.087,15.031l-1.003,-1.533l23.086,-15.032z"/>
     <path id="svg_79" fill="#7FC1E7" d="m257.347,556.735l-0.089,-0.137l-3.587,0.342l-20.415,13.291l1.005,1.535l23.086,-15.031z"/>
     <path id="svg_80" fill="#7FC1E7" d="m249.733,557.315l-17.207,11.202l0.067,0.701l0.663,1.013l20.415,-13.291l-3.938,0.375z"/>
     <path id="svg_81" fill="#7FC1E7" d="m245.798,557.69l-13.468,8.768l0.196,2.059l17.207,-11.202l-3.935,0.375z"/>
     <path id="svg_82" fill="#7FC1E7" d="m241.862,558.065l-9.728,6.332l0.196,2.061l13.468,-8.768l-3.936,0.375z"/>
     <path id="svg_83" fill="#7FC1E7" d="m237.925,558.439l-5.987,3.899l0.196,2.059l9.728,-6.332l-3.937,0.374z"/>
     <path id="svg_84" fill="#7FC1E7" d="m233.989,558.814l-2.247,1.463l0.196,2.061l5.987,-3.898l-3.936,0.374z"/>
     <path id="svg_85" fill="#7FC1E7" d="m231.741,560.277l2.247,-1.463l-2.365,0.226l0.118,1.237z"/>
     <path id="svg_86" fill="#7FC1E7" d="m240.348,561.238l-3.412,2.221l3.591,-0.342l-0.179,-1.879z"/>
     <path id="svg_87" fill="#7FC1E7" d="m240.151,559.179l-7.151,4.654l3.935,-0.374l3.412,-2.221l-0.196,-2.059z"/>
     <path id="svg_88" fill="#7FC1E7" d="m239.955,557.118l-10.891,7.09l3.936,-0.375l7.151,-4.654l-0.196,-2.061z"/>
     <path id="svg_89" fill="#7FC1E7" d="m239.76,555.058l-14.633,9.525l3.938,-0.375l10.891,-7.09l-0.196,-2.06z"/>
     <path id="svg_90" fill="#7FC1E7" d="m239.563,552.997l-18.372,11.961l3.936,-0.375l14.633,-9.525l-0.197,-2.061z"/>
     <path id="svg_91" fill="#7FC1E7" d="m239.558,552.941l-0.976,-1.492l-21.328,13.884l3.937,-0.375l18.372,-11.961l-0.005,-0.056z"/>
     <path id="svg_92" fill="#7FC1E7" d="m238.582,551.449l-1.004,-1.535l-23.087,15.031l0.403,0.613l2.359,-0.225l21.329,-13.884z"/>
     <path id="svg_93" fill="#7FC1E7" d="m236.567,548.404l1.003,1.534l-23.086,15.031l-1.003,-1.533l23.086,-15.032z"/>
     <path id="svg_94" fill="#7FC1E7" d="m235.565,546.87l1.003,1.534l-23.086,15.032l-1.003,-1.534l23.086,-15.032z"/>
     <path id="svg_95" fill="#7FC1E7" d="m235.571,546.845l-0.168,-0.256l-3.279,0.312l-20.644,13.44l1.005,1.535l23.086,-15.031z"/>
     <path id="svg_96" fill="#7FC1E7" d="m228.187,547.276l-17.5,11.393l0.052,0.539l0.74,1.133l20.645,-13.44l-3.937,0.375z"/>
     <path id="svg_97" fill="#7FC1E7" d="m224.251,547.651l-13.76,8.959l0.196,2.059l17.5,-11.393l-3.936,0.375z"/>
     <path id="svg_98" fill="#7FC1E7" d="m220.315,548.026l-10.02,6.523l0.196,2.061l13.76,-8.959l-3.936,0.375z"/>
     <path id="svg_99" fill="#7FC1E7" d="m216.378,548.401l-6.279,4.088l0.196,2.06l10.02,-6.523l-3.937,0.375z"/>
     <path id="svg_100" fill="#7FC1E7" d="m212.442,548.776l-2.539,1.652l0.196,2.061l6.279,-4.088l-3.936,0.375z"/>
     <path id="svg_101" fill="#7FC1E7" d="m209.903,550.428l2.539,-1.653l-2.672,0.255l0.133,1.398z"/>
     <path id="svg_102" fill="#7FC1E7" d="m218.508,551.39l-3.118,2.03l3.281,-0.313l-0.163,-1.717z"/>
     <path id="svg_103" fill="#7FC1E7" d="m218.312,549.329l-6.858,4.466l3.935,-0.375l3.119,-2.03l-0.196,-2.061z"/>
     <path id="svg_104" fill="#7FC1E7" d="m218.115,547.27l-10.597,6.9l3.936,-0.375l6.857,-4.466l-0.196,-2.059z"/>
     <path id="svg_105" fill="#7FC1E7" d="m217.919,545.208l-14.339,9.336l3.938,-0.374l10.597,-6.9l-0.196,-2.062z"/>
     <path id="svg_106" fill="#7FC1E7" d="m217.723,543.149l-18.079,11.77l3.936,-0.375l14.339,-9.336l-0.196,-2.059z"/>
     <path id="svg_107" fill="#7FC1E7" d="m217.702,542.929l-0.896,-1.37l-21.097,13.735l3.936,-0.375l18.078,-11.77l-0.021,-0.22z"/>
     <path id="svg_108" fill="#7FC1E7" d="m216.805,541.559l-1.003,-1.535l-23.087,15.031l0.323,0.493l2.67,-0.254l21.097,-13.735z"/>
     <path id="svg_109" fill="#7FC1E7" d="m214.79,538.518l1.003,1.534l-23.086,15.031l-1.004,-1.534l23.087,-15.031z"/>
     <path id="svg_110" fill="#7FC1E7" d="m213.786,536.986l1.003,1.534l-23.086,15.031l-1.004,-1.533l23.087,-15.032z"/>
     <path id="svg_111" fill="#7FC1E7" d="m213.794,536.955l-0.245,-0.376l-2.971,0.283l-20.874,13.589l1.005,1.535l23.085,-15.031z"/>
     <path id="svg_112" fill="#7FC1E7" d="m206.64,537.237l-17.792,11.584l0.036,0.376l0.819,1.254l20.874,-13.589l-3.937,0.375z"/>
     <path id="svg_113" fill="#7FC1E7" d="m202.705,537.612l-14.052,9.148l0.196,2.061l17.792,-11.584l-3.936,0.375z"/>
     <path id="svg_114" fill="#7FC1E7" d="m198.769,537.987l-10.312,6.714l0.196,2.059l14.052,-9.148l-3.936,0.375z"/>
     <path id="svg_115" fill="#7FC1E7" d="m194.831,538.362l-6.571,4.277l0.196,2.062l10.313,-6.714l-3.938,0.375z"/>
     <path id="svg_116" fill="#7FC1E7" d="m190.895,538.737l-2.831,1.843l0.196,2.059l6.571,-4.277l-3.936,0.375z"/>
     <path id="svg_117" fill="#7FC1E7" d="m188.064,540.58l2.832,-1.843l-2.98,0.283l0.148,1.56z"/>
     <path id="svg_118" fill="#7FC1E7" d="m196.669,541.542l-2.826,1.839l2.974,-0.283l-0.148,-1.556z"/>
     <path id="svg_119" fill="#7FC1E7" d="m196.473,539.481l-6.566,4.275l3.936,-0.375l2.826,-1.839l-0.196,-2.061z"/>
     <path id="svg_120" fill="#7FC1E7" d="m196.276,537.421l-10.305,6.71l3.936,-0.375l6.565,-4.275l-0.196,-2.06z"/>
     <path id="svg_121" fill="#7FC1E7" d="m196.08,535.36l-14.047,9.146l3.938,-0.375l10.305,-6.71l-0.196,-2.061z"/>
     <path id="svg_122" fill="#7FC1E7" d="m195.884,533.301l-17.786,11.579l3.935,-0.374l14.047,-9.146l-0.196,-2.059z"/>
     <path id="svg_123" fill="#7FC1E7" d="m195.848,532.92l-0.818,-1.251l-20.868,13.586l3.936,-0.375l17.786,-11.579l-0.036,-0.381z"/>
     <path id="svg_124" fill="#7FC1E7" d="m195.03,531.669l-1.003,-1.535l-23.088,15.031l0.246,0.374l2.978,-0.284l20.867,-13.586z"/>
     <path id="svg_125" fill="#7FC1E7" d="m193.011,528.633l1.004,1.534l-23.087,15.032l-1.003,-1.534l23.086,-15.032z"/>
     <path id="svg_126" fill="#7FC1E7" d="m192.011,527.09l1.004,1.534l-23.087,15.032l-1.003,-1.534l23.086,-15.032z"/>
     <path id="svg_127" fill="#7FC1E7" d="m192.019,527.065l-0.326,-0.497l-2.661,0.254l-21.104,13.739l1.005,1.535l23.086,-15.031z"/>
     <path id="svg_128" fill="#7FC1E7" d="m185.094,527.197l-18.085,11.774l0.02,0.216l0.899,1.374l21.103,-13.739l-3.937,0.375z"/>
     <path id="svg_129" fill="#7FC1E7" d="m181.158,527.572l-14.345,9.34l0.196,2.059l18.085,-11.774l-3.936,0.375z"/>
     <path id="svg_130" fill="#7FC1E7" d="m177.222,527.946l-10.605,6.906l0.196,2.06l14.345,-9.34l-3.936,0.374z"/>
     <path id="svg_131" fill="#7FC1E7" d="m166.617,534.852l10.606,-6.906l-11.163,1.063l0.557,5.843z"/>
     <path id="svg_132" fill="#7FC1E7" d="m235.486,535.96l-2.644,1.722l2.783,-0.265l-0.139,-1.457z"/>
     <path id="svg_133" fill="#7FC1E7" d="m235.29,533.901l-6.385,4.156l3.937,-0.375l2.644,-1.722l-0.196,-2.059z"/>
     <path id="svg_134" fill="#7FC1E7" d="m235.094,531.84l-10.125,6.592l3.936,-0.375l6.385,-4.156l-0.196,-2.061z"/>
     <path id="svg_135" fill="#7FC1E7" d="m234.897,529.781l-13.864,9.026l3.936,-0.375l10.125,-6.592l-0.197,-2.059z"/>
     <path id="svg_136" fill="#7FC1E7" d="m234.701,527.719l-17.605,11.463l3.937,-0.375l13.864,-9.027l-0.196,-2.061z"/>
     <path id="svg_137" fill="#7FC1E7" d="m234.655,527.239l-0.77,-1.177l-20.725,13.494l3.935,-0.374l17.606,-11.463l-0.046,-0.48z"/>
     <path id="svg_138" fill="#7FC1E7" d="m233.885,526.062l-1.003,-1.533l-23.66,15.402l3.938,-0.375l20.725,-13.494z"/>
     <path id="svg_139" fill="#7FC1E7" d="m232.882,524.529l-1.005,-1.535l-26.59,17.312l3.936,-0.375l23.659,-15.402z"/>
     <path id="svg_140" fill="#7FC1E7" d="m231.877,522.994l-1.003,-1.534l-29.523,19.221l3.936,-0.375l26.59,-17.312z"/>
     <path id="svg_141" fill="#7FC1E7" d="m230.875,521.46l-1.004,-1.535l-32.457,21.131l3.937,-0.375l29.524,-19.221z"/>
     <path id="svg_142" fill="#7FC1E7" d="m229.871,519.925l-1.005,-1.534l-32.76,21.328l0.9,1.376l0.407,-0.039l32.458,-21.131z"/>
     <path id="svg_143" fill="#7FC1E7" d="m227.853,516.886l1.003,1.533l-32.758,21.33l-1.004,-1.534l32.759,-21.329z"/>
     <path id="svg_144" fill="#7FC1E7" d="m226.852,515.346l1.003,1.534l-32.758,21.33l-1.003,-1.534l32.758,-21.33z"/>
     <path id="svg_145" fill="#7FC1E7" d="m225.845,513.814l1.004,1.534l-32.759,21.329l-1.003,-1.534l32.758,-21.329z"/>
     <path id="svg_146" fill="#7FC1E7" d="m224.843,512.282l1.004,1.534l-32.759,21.329l-1.003,-1.534l32.758,-21.329z"/>
     <path id="svg_147" fill="#7FC1E7" d="m223.841,510.744l1.004,1.534l-32.759,21.329l-1.003,-1.534l32.758,-21.329z"/>
     <path id="svg_148" fill="#7FC1E7" d="m223.848,510.718l-0.056,-0.084l-3.717,0.354l-29.99,19.525l1.004,1.533l32.759,-21.328z"/>
     <path id="svg_149" fill="#7FC1E7" d="m216.138,511.363l-27.058,17.614l1.005,1.536l29.989,-19.525l-3.936,0.375z"/>
     <path id="svg_150" fill="#7FC1E7" d="m212.203,511.737l-24.126,15.707l1.003,1.533l27.059,-17.614l-3.936,0.374z"/>
     <path id="svg_151" fill="#7FC1E7" d="m208.266,512.112l-21.192,13.796l1.003,1.536l24.126,-15.707l-3.937,0.375z"/>
     <path id="svg_152" fill="#7FC1E7" d="m204.33,512.487l-18.2,11.848l0.014,0.153l0.93,1.42l21.192,-13.796l-3.936,0.375z"/>
     <path id="svg_153" fill="#7FC1E7" d="m200.393,512.862l-14.459,9.414l0.196,2.059l18.2,-11.848l-3.937,0.375z"/>
     <path id="svg_154" fill="#7FC1E7" d="m185.934,522.276l14.459,-9.414l-15.217,1.449l0.758,7.965z"/>
     <path id="svg_155" fill="#7FC1E7" d="m258.407,547.293l-1.062,0.692l1.118,-0.107l-0.056,-0.585z"/>
     <path id="svg_156" fill="#7FC1E7" d="m258.211,545.232l-4.801,3.128l3.935,-0.375l1.062,-0.692l-0.196,-2.061z"/>
     <path id="svg_157" fill="#7FC1E7" d="m258.015,543.173l-8.543,5.561l3.937,-0.374l4.802,-3.128l-0.196,-2.059z"/>
     <path id="svg_158" fill="#7FC1E7" d="m257.818,541.112l-12.282,7.997l3.936,-0.374l8.543,-5.562l-0.197,-2.061z"/>
     <path id="svg_159" fill="#7FC1E7" d="m257.622,539.053l-16.022,10.431l3.936,-0.375l12.282,-7.997l-0.196,-2.059z"/>
     <path id="svg_160" fill="#7FC1E7" d="m257.493,537.7l-0.346,-0.526l-19.484,12.685l3.937,-0.375l16.022,-10.431l-0.129,-1.353z"/>
     <path id="svg_161" fill="#7FC1E7" d="m257.148,537.174l-1.003,-1.536l-22.417,14.596l3.935,-0.375l19.485,-12.685z"/>
     <path id="svg_162" fill="#7FC1E7" d="m256.144,535.638l-1.003,-1.533l-23.088,15.029l0.775,1.186l0.899,-0.086l22.417,-14.596z"/>
     <path id="svg_163" fill="#7FC1E7" d="m254.13,532.593l1.004,1.534l-23.087,15.032l-1.003,-1.534l23.086,-15.032z"/>
     <path id="svg_164" fill="#7FC1E7" d="m254.136,532.569l-0.797,-1.22l-0.807,0.077l-22.485,14.639l1.003,1.536l23.086,-15.032z"/>
     <path id="svg_165" fill="#7FC1E7" d="m248.596,531.8l-19.553,12.732l1.005,1.533l22.484,-14.639l-3.936,0.374z"/>
     <path id="svg_166" fill="#7FC1E7" d="m244.661,532.175l-16.11,10.488l0.124,1.305l0.368,0.564l19.554,-12.732l-3.936,0.375z"/>
     <path id="svg_167" fill="#7FC1E7" d="m240.723,532.55l-12.369,8.054l0.196,2.059l16.11,-10.488l-3.937,0.375z"/>
     <path id="svg_168" fill="#7FC1E7" d="m236.787,532.925l-8.629,5.618l0.196,2.061l12.369,-8.054l-3.936,0.375z"/>
     <path id="svg_169" fill="#7FC1E7" d="m232.851,533.3l-4.889,3.184l0.196,2.059l8.629,-5.618l-3.936,0.375z"/>
     <path id="svg_170" fill="#7FC1E7" d="m228.914,533.675l-1.148,0.747l0.196,2.062l4.89,-3.184l-3.938,0.375z"/>
     <path id="svg_171" fill="#7FC1E7" d="m227.766,534.423l1.148,-0.748l-1.208,0.115l0.06,0.633z"/>
     <path id="svg_172" fill="#7FC1E7" d="m280.246,557.142l-1.354,0.881l1.425,-0.135l-0.071,-0.746z"/>
     <path id="svg_173" fill="#7FC1E7" d="m280.05,555.082l-5.094,3.316l3.936,-0.374l1.354,-0.882l-0.196,-2.06z"/>
     <path id="svg_174" fill="#7FC1E7" d="m279.854,553.021l-8.835,5.752l3.937,-0.375l5.094,-3.316l-0.196,-2.061z"/>
     <path id="svg_175" fill="#7FC1E7" d="m279.657,550.962l-12.574,8.186l3.935,-0.375l8.835,-5.752l-0.196,-2.059z"/>
     <path id="svg_176" fill="#7FC1E7" d="m279.461,548.901l-16.314,10.622l3.936,-0.375l12.574,-8.186l-0.196,-2.061z"/>
     <path id="svg_177" fill="#7FC1E7" d="m279.348,547.71l-0.424,-0.647l-19.714,12.835l3.938,-0.375l16.313,-10.622l-0.113,-1.191z"/>
     <path id="svg_178" fill="#7FC1E7" d="m278.923,547.064l-1.003,-1.536l-22.647,14.745l3.936,-0.375l19.714,-12.834z"/>
     <path id="svg_179" fill="#7FC1E7" d="m277.92,545.528l-1.003,-1.534l-23.087,15.03l0.854,1.305l0.59,-0.056l22.646,-14.745z"/>
     <path id="svg_180" fill="#7FC1E7" d="m275.909,542.483l1.003,1.534l-23.086,15.032l-1.004,-1.534l23.087,-15.032z"/>
     <path id="svg_181" fill="#7FC1E7" d="m275.913,542.459l-0.72,-1.099l-1.114,0.106l-22.255,14.489l1.003,1.536l23.086,-15.032z"/>
     <path id="svg_182" fill="#7FC1E7" d="m270.143,541.841l-19.324,12.581l1.005,1.533l22.255,-14.489l-3.936,0.375z"/>
     <path id="svg_183" fill="#7FC1E7" d="m266.207,542.216l-15.818,10.296l0.14,1.465l0.289,0.445l19.325,-12.581l-3.936,0.375z"/>
     <path id="svg_184" fill="#7FC1E7" d="m262.269,542.591l-12.076,7.861l0.196,2.06l15.818,-10.296l-3.938,0.375z"/>
     <path id="svg_185" fill="#7FC1E7" d="m258.334,542.966l-8.337,5.427l0.196,2.059l12.077,-7.861l-3.936,0.375z"/>
     <path id="svg_186" fill="#7FC1E7" d="m254.396,543.341l-4.595,2.991l0.196,2.061l8.337,-5.427l-3.938,0.375z"/>
     <path id="svg_187" fill="#7FC1E7" d="m250.461,543.715l-0.856,0.558l0.196,2.059l4.595,-2.991l-3.935,0.374z"/>
     <path id="svg_188" fill="#7FC1E7" d="m249.605,544.273l0.856,-0.558l-0.901,0.086l0.045,0.472z"/>
     <path id="svg_189" fill="#7FC1E7" d="m301.692,562.87l-9.127,5.942l3.938,-0.375l5.386,-3.506l-0.197,-2.061z"/>
     <path id="svg_190" fill="#7FC1E7" d="m301.496,560.81l-12.866,8.377l3.935,-0.375l9.127,-5.943l-0.196,-2.059z"/>
     <path id="svg_191" fill="#7FC1E7" d="m301.3,558.749l-16.608,10.813l3.938,-0.375l12.866,-8.377l-0.196,-2.061z"/>
     <path id="svg_192" fill="#7FC1E7" d="m301.202,557.719l-0.502,-0.767l-19.943,12.985l3.935,-0.375l16.608,-10.813l-0.098,-1.03z"/>
     <path id="svg_193" fill="#7FC1E7" d="m300.7,556.952l-1.003,-1.534l-22.877,14.893l3.936,-0.374l19.944,-12.985z"/>
     <path id="svg_194" fill="#7FC1E7" d="m299.697,555.418l-1.003,-1.535l-23.088,15.031l0.932,1.424l0.282,-0.026l22.877,-14.894z"/>
     <path id="svg_195" fill="#7FC1E7" d="m297.685,552.378l1.003,1.534l-23.086,15.032l-1.003,-1.534l23.086,-15.032z"/>
     <path id="svg_196" fill="#7FC1E7" d="m297.689,552.349l-0.64,-0.98l-1.423,0.136l-22.028,14.34l1.005,1.534l23.086,-15.03z"/>
     <path id="svg_197" fill="#7FC1E7" d="m291.689,551.88l-19.094,12.43l1.003,1.535l22.027,-14.34l-3.936,0.375z"/>
     <path id="svg_198" fill="#7FC1E7" d="m287.754,552.255l-15.524,10.107l0.155,1.626l0.21,0.322l19.094,-12.43l-3.935,0.375z"/>
     <path id="svg_199" fill="#7FC1E7" d="m283.816,552.63l-11.782,7.67l0.196,2.062l15.524,-10.107l-3.938,0.375z"/>
     <path id="svg_200" fill="#7FC1E7" d="m279.881,553.004l-8.043,5.237l0.196,2.059l11.782,-7.67l-3.935,0.374z"/>
     <path id="svg_201" fill="#7FC1E7" d="m275.943,553.379l-4.301,2.801l0.196,2.061l8.043,-5.237l-3.938,0.375z"/>
     <path id="svg_202" fill="#7FC1E7" d="m272.008,553.754l-0.563,0.367l0.197,2.059l4.301,-2.801l-3.935,0.375z"/>
     <path id="svg_203" fill="#7FC1E7" d="m271.445,554.121l0.562,-0.367l-0.592,0.056l0.03,0.311z"/>
     <path id="svg_204" fill="#7FC1E7" d="m319.462,562.266l1.004,1.534l-23.086,15.032l-1.004,-1.534l23.086,-15.032z"/>
     <path id="svg_205" fill="#7FC1E7" d="m319.465,562.239l-0.562,-0.86l-1.731,0.165l-21.798,14.191l1.005,1.534l23.086,-15.03z"/>
     <path id="svg_206" fill="#7FC1E7" d="m313.236,561.919l-18.865,12.281l1.003,1.535l21.798,-14.191l-3.936,0.375z"/>
     <path id="svg_207" fill="#7FC1E7" d="m309.299,562.294l-15.23,9.916l0.17,1.788l0.132,0.202l18.865,-12.281l-3.937,0.375z"/>
     <path id="svg_208" fill="#7FC1E7" d="m305.363,562.668l-11.49,7.482l0.196,2.06l15.23,-9.916l-3.936,0.374z"/>
     <path id="svg_209" fill="#7FC1E7" d="m301.427,563.043l-7.751,5.046l0.196,2.061l11.49,-7.482l-3.935,0.375z"/>
     <path id="svg_210" fill="#7FC1E7" d="m232.434,516.068l-1.349,0.88l1.419,-0.135l-0.07,-0.745z"/>
     <path id="svg_211" fill="#7FC1E7" d="m232.237,514.009l-5.09,3.314l3.938,-0.375l1.348,-0.88l-0.196,-2.059z"/>
     <path id="svg_212" fill="#7FC1E7" d="m232.041,511.948l-8.83,5.75l3.936,-0.375l5.09,-3.314l-0.196,-2.061z"/>
     <path id="svg_213" fill="#7FC1E7" d="m231.896,510.425l-0.263,-0.4l-12.358,8.047l3.936,-0.375l8.83,-5.749l-0.145,-1.523z"/>
     <path id="svg_214" fill="#7FC1E7" d="m231.633,510.025l-1.003,-1.534l-15.292,9.956l3.937,-0.375l12.358,-8.047z"/>
     <path id="svg_215" fill="#7FC1E7" d="m230.63,508.491l-1.005,-1.535l-18.223,11.866l3.936,-0.375l15.292,-9.956z"/>
     <path id="svg_216" fill="#7FC1E7" d="m229.625,506.956l-1.003,-1.534l-19.061,12.409l0.718,1.098l1.123,-0.107l18.223,-11.866z"/>
     <path id="svg_217" fill="#7FC1E7" d="m227.611,503.914l1.003,1.534l-19.06,12.41l-1.004,-1.534l19.061,-12.41z"/>
     <path id="svg_218" fill="#7FC1E7" d="m226.608,502.376l1.003,1.534l-19.06,12.41l-1.004,-1.534l19.061,-12.41z"/>
     <path id="svg_219" fill="#7FC1E7" d="m226.615,502.353l-0.498,-0.762l-1.979,0.188l-17.587,11.45l1.003,1.534l19.061,-12.41z"/>
     <path id="svg_220" fill="#7FC1E7" d="m220.2,502.154l-14.653,9.54l1.004,1.535l17.587,-11.45l-3.938,0.375z"/>
     <path id="svg_221" fill="#7FC1E7" d="m216.264,502.529l-11.72,7.631l1.003,1.534l14.653,-9.54l-3.936,0.375z"/>
     <path id="svg_222" fill="#7FC1E7" d="m204.499,510.093l0.045,0.067l11.72,-7.631l-12.373,1.178l0.608,6.386z"/>
     <path id="svg_223" fill="#7FC1E7" d="m255.688,527.185l-0.467,0.302l0.491,-0.046l-0.024,-0.256z"/>
     <path id="svg_224" fill="#7FC1E7" d="m255.491,525.124l-4.207,2.738l3.937,-0.375l0.466,-0.302l-0.196,-2.061z"/>
     <path id="svg_225" fill="#7FC1E7" d="m255.295,523.065l-7.947,5.172l3.936,-0.375l4.207,-2.738l-0.196,-2.059z"/>
     <path id="svg_226" fill="#7FC1E7" d="m255.103,521.055l-0.025,-0.038l-11.666,7.595l3.936,-0.375l7.947,-5.172l-0.192,-2.01z"/>
     <path id="svg_227" fill="#7FC1E7" d="m255.079,521.017l-1.005,-1.534l-14.599,9.504l3.937,-0.375l11.667,-7.595z"/>
     <path id="svg_228" fill="#7FC1E7" d="m254.074,519.483l-1.003,-1.535l-17.532,11.414l3.936,-0.375l14.599,-9.504z"/>
     <path id="svg_229" fill="#7FC1E7" d="m253.07,517.948l-1.003,-1.534l-19.061,12.409l0.48,0.734l2.053,-0.195l17.531,-11.414z"/>
     <path id="svg_230" fill="#7FC1E7" d="m251.057,514.902l1.004,1.534l-19.061,12.41l-1.003,-1.534l19.06,-12.41z"/>
     <path id="svg_231" fill="#7FC1E7" d="m250.052,513.369l1.004,1.534l-19.061,12.41l-1.003,-1.534l19.06,-12.41z"/>
     <path id="svg_232" fill="#7FC1E7" d="m250.059,513.345l-0.735,-1.126l-1.05,0.1l-18.279,11.902l1.003,1.533l19.061,-12.409z"/>
     <path id="svg_233" fill="#7FC1E7" d="m244.337,512.694l-15.345,9.991l1.003,1.536l18.279,-11.902l-3.937,0.375z"/>
     <path id="svg_234" fill="#7FC1E7" d="m240.401,513.069l-12.414,8.083l1.005,1.533l15.345,-9.991l-3.936,0.375z"/>
     <path id="svg_235" fill="#7FC1E7" d="m236.465,513.443l-8.899,5.794l0.141,1.486l0.279,0.429l12.414,-8.083l-3.935,0.374z"/>
     <path id="svg_236" fill="#7FC1E7" d="m232.527,513.818l-5.157,3.36l0.196,2.059l8.899,-5.794l-3.938,0.375z"/>
     <path id="svg_237" fill="#7FC1E7" d="m228.592,514.193l-1.419,0.924l0.197,2.061l5.157,-3.36l-3.935,0.375z"/>
     <path id="svg_238" fill="#7FC1E7" d="m227.174,515.117l1.418,-0.924l-1.493,0.142l0.075,0.782z"/>
     <path id="svg_239" fill="#7FC1E7" d="m278.743,536.24l-3.322,2.164l3.497,-0.333l-0.175,-1.831z"/>
     <path id="svg_240" fill="#7FC1E7" d="m278.547,534.181l-7.062,4.598l3.935,-0.375l3.323,-2.164l-0.196,-2.059z"/>
     <path id="svg_241" fill="#7FC1E7" d="m278.351,532.12l-10.802,7.033l3.936,-0.374l7.062,-4.598l-0.196,-2.061z"/>
     <path id="svg_242" fill="#7FC1E7" d="m278.309,531.685l-0.791,-1.21l-13.907,9.053l3.938,-0.375l10.801,-7.033l-0.041,-0.435z"/>
     <path id="svg_243" fill="#7FC1E7" d="m277.518,530.475l-1.003,-1.535l-16.839,10.963l3.936,-0.375l13.906,-9.053z"/>
     <path id="svg_244" fill="#7FC1E7" d="m276.515,528.94l-1.003,-1.534l-19.063,12.409l0.244,0.372l2.983,-0.284l16.839,-10.963z"/>
     <path id="svg_245" fill="#7FC1E7" d="m274.501,525.9l1.003,1.534l-19.061,12.411l-1.003,-1.534l19.061,-12.411z"/>
     <path id="svg_246" fill="#7FC1E7" d="m273.497,524.364l1.003,1.534l-19.06,12.41l-1.004,-1.534l19.061,-12.41z"/>
     <path id="svg_247" fill="#7FC1E7" d="m273.504,524.337l-0.974,-1.488l-0.119,0.011l-18.971,12.353l1.003,1.533l19.061,-12.409z"/>
     <path id="svg_248" fill="#7FC1E7" d="m268.474,523.235l-16.039,10.442l1.005,1.536l18.971,-12.353l-3.937,0.375z"/>
     <path id="svg_249" fill="#7FC1E7" d="m264.538,523.61l-13.106,8.534l1.003,1.533l16.039,-10.442l-3.936,0.375z"/>
     <path id="svg_250" fill="#7FC1E7" d="m260.601,523.985l-9.783,6.37l0.095,0.998l0.518,0.791l13.106,-8.534l-3.936,0.375z"/>
     <path id="svg_251" fill="#7FC1E7" d="m256.664,524.36l-6.042,3.934l0.196,2.061l9.784,-6.37l-3.938,0.375z"/>
     <path id="svg_252" fill="#7FC1E7" d="m252.729,524.735l-2.302,1.499l0.196,2.06l6.042,-3.934l-3.936,0.375z"/>
     <path id="svg_253" fill="#7FC1E7" d="m250.426,526.234l2.303,-1.499l-2.424,0.23l0.121,1.269z"/>
     <path id="svg_254" fill="#7FC1E7" d="m301.997,547.357l-2.44,1.588l2.568,-0.244l-0.128,-1.344z"/>
     <path id="svg_255" fill="#7FC1E7" d="m301.801,545.296l-6.179,4.024l3.935,-0.375l2.44,-1.588l-0.196,-2.061z"/>
     <path id="svg_256" fill="#7FC1E7" d="m301.604,543.237l-9.92,6.458l3.938,-0.375l6.179,-4.024l-0.197,-2.059z"/>
     <path id="svg_257" fill="#7FC1E7" d="m301.517,542.314l-0.554,-0.847l-13.215,8.603l3.936,-0.375l9.92,-6.458l-0.087,-0.923z"/>
     <path id="svg_258" fill="#7FC1E7" d="m300.963,541.467l-1.004,-1.536l-16.147,10.514l3.936,-0.375l13.215,-8.603z"/>
     <path id="svg_259" fill="#7FC1E7" d="m299.959,539.931l-1.004,-1.533l-19.061,12.409l0.006,0.01l3.913,-0.372l16.146,-10.514z"/>
     <path id="svg_260" fill="#7FC1E7" d="m297.947,536.89l1.003,1.534l-19.06,12.41l-1.004,-1.534l19.061,-12.41z"/>
     <path id="svg_261" fill="#7FC1E7" d="m296.943,535.359l1.003,1.534l-19.06,12.41l-1.004,-1.534l19.061,-12.41z"/>
     <path id="svg_262" fill="#7FC1E7" d="m295.939,533.816l1.003,1.534l-19.06,12.411l-1.003,-1.534l19.06,-12.411z"/>
     <path id="svg_263" fill="#7FC1E7" d="m295.943,533.794l-0.206,-0.315l-3.127,0.298l-16.731,10.892l1.003,1.536l19.061,-12.411z"/>
     <path id="svg_264" fill="#7FC1E7" d="m288.675,534.151l-13.799,8.985l1.003,1.533l16.731,-10.892l-3.935,0.374z"/>
     <path id="svg_265" fill="#7FC1E7" d="m284.737,534.526l-10.665,6.944l0.049,0.511l0.755,1.155l13.799,-8.985l-3.938,0.375z"/>
     <path id="svg_266" fill="#7FC1E7" d="m280.802,534.901l-6.926,4.508l0.196,2.061l10.665,-6.944l-3.935,0.375z"/>
     <path id="svg_267" fill="#7FC1E7" d="m276.865,535.276l-3.186,2.074l0.196,2.059l6.926,-4.508l-3.936,0.375z"/>
     <path id="svg_268" fill="#7FC1E7" d="m273.679,537.35l3.186,-2.074l-3.353,0.319l0.167,1.755z"/>
     <path id="svg_269" fill="#7FC1E7" d="m325.251,558.473l-1.557,1.014l1.639,-0.156l-0.082,-0.858z"/>
     <path id="svg_270" fill="#7FC1E7" d="m325.055,556.412l-5.296,3.449l3.935,-0.374l1.557,-1.014l-0.196,-2.061z"/>
     <path id="svg_271" fill="#7FC1E7" d="m324.858,554.352l-9.037,5.884l3.937,-0.375l5.297,-3.449l-0.197,-2.06z"/>
     <path id="svg_272" fill="#7FC1E7" d="m324.724,552.943l-0.317,-0.484l-12.522,8.152l3.936,-0.375l9.038,-5.884l-0.135,-1.409z"/>
     <path id="svg_273" fill="#7FC1E7" d="m324.407,552.459l-1.005,-1.536l-15.453,10.063l3.936,-0.375l12.522,-8.152z"/>
     <path id="svg_274" fill="#7FC1E7" d="m323.402,550.923l-1.003,-1.533l-18.387,11.971l3.937,-0.375l15.453,-10.063z"/>
     <path id="svg_275" fill="#7FC1E7" d="m322.399,549.39l-1.003,-1.536l-19.061,12.411l0.772,1.182l0.905,-0.086l18.387,-11.971z"/>
     <path id="svg_276" fill="#7FC1E7" d="m320.386,546.349l1.004,1.533l-19.061,12.411l-1.003,-1.534l19.06,-12.41z"/>
     <path id="svg_277" fill="#7FC1E7" d="m319.385,544.811l1.004,1.534l-19.061,12.41l-1.003,-1.534l19.06,-12.41z"/>
     <path id="svg_278" fill="#7FC1E7" d="m319.387,544.786l-0.443,-0.677l-2.198,0.209l-17.423,11.343l1.003,1.535l19.061,-12.41z"/>
     <path id="svg_279" fill="#7FC1E7" d="m312.811,544.693l-14.49,9.433l1.003,1.535l17.423,-11.343l-3.936,0.375z"/>
     <path id="svg_280" fill="#7FC1E7" d="m308.874,545.068l-11.548,7.518l0.002,0.025l0.993,1.515l14.491,-9.433l-3.938,0.375z"/>
     <path id="svg_281" fill="#7FC1E7" d="m304.938,545.443l-7.808,5.082l0.196,2.061l11.548,-7.518l-3.936,0.375z"/>
     <path id="svg_282" fill="#7FC1E7" d="m301.002,545.818l-4.069,2.647l0.196,2.06l7.809,-5.082l-3.936,0.375z"/>
     <path id="svg_283" fill="#7FC1E7" d="m297.064,546.192l-0.327,0.212l0.196,2.061l4.069,-2.647l-3.938,0.374z"/>
     <path id="svg_284" fill="#7FC1E7" d="m296.737,546.404l0.327,-0.211l-0.344,0.032l0.017,0.179z"/>
     <path id="svg_285" fill="#7FC1E7" d="m347.85,563.451l-1.003,-1.536l-14.761,9.611l3.936,-0.375l11.828,-7.7z"/>
     <path id="svg_286" fill="#7FC1E7" d="m346.847,561.915l-1.003,-1.533l-17.695,11.519l3.937,-0.375l14.761,-9.611z"/>
     <path id="svg_287" fill="#7FC1E7" d="m345.843,560.382l-1.003,-1.536l-19.063,12.41l0.537,0.819l1.834,-0.174l17.695,-11.519z"/>
     <path id="svg_288" fill="#7FC1E7" d="m343.832,557.338l1.003,1.534l-19.06,12.41l-1.004,-1.534l19.061,-12.41z"/>
     <path id="svg_289" fill="#7FC1E7" d="m342.83,555.806l1.003,1.534l-19.06,12.41l-1.004,-1.534l19.061,-12.41z"/>
     <path id="svg_290" fill="#7FC1E7" d="m342.832,555.777l-0.68,-1.04l-1.269,0.121l-18.115,11.795l1.003,1.533l19.061,-12.409z"/>
     <path id="svg_291" fill="#7FC1E7" d="m336.948,555.233l-15.185,9.885l1.005,1.535l18.116,-11.795l-3.936,0.375z"/>
     <path id="svg_292" fill="#7FC1E7" d="m333.011,555.608l-12.25,7.976l1.003,1.534l15.184,-9.885l-3.937,0.375z"/>
     <path id="svg_293" fill="#7FC1E7" d="m329.075,555.982l-8.691,5.66l0.152,1.599l0.225,0.343l12.25,-7.976l-3.936,0.374z"/>
     <path id="svg_294" fill="#7FC1E7" d="m325.138,556.357l-4.951,3.224l0.196,2.061l8.691,-5.66l-3.936,0.375z"/>
     <path id="svg_295" fill="#7FC1E7" d="m321.201,556.732l-1.21,0.79l0.196,2.059l4.952,-3.224l-3.938,0.375z"/>
     <path id="svg_296" fill="#7FC1E7" d="m319.991,557.522l1.21,-0.79l-1.274,0.122l0.064,0.668z"/>
    </g>
    <g id="svg_297">
     <path id="svg_298" fill="#394F94" d="m382.649,519.609l20.836,-13.076l-37.806,-16.044l-20.84,13.076l37.81,16.044z"/>
     <path id="svg_299" fill="#394F94" d="m422.813,536.029l20.836,-13.076l-34.806,-14.044l-20.837,13.079l34.807,14.041z"/>
     <path id="svg_300" fill="#394F94" d="m340.263,501.531l20.84,-13.076l-37.81,-16.043l-20.834,13.076l37.804,16.043z"/>
     <path id="svg_301" fill="#394F94" d="m293.968,481.442l20.836,-13.076l-37.807,-16.043l-20.833,13.076l37.804,16.043z"/>
    </g>
    <path id="svg_302" fill="#4C7B53" d="m381.166,514.245l14.928,-9.367l-0.046,-52.442l-14.927,9.367l0.045,52.442z"/>
    <path id="svg_303" fill="url(#paint3_linear_702_5899)" d="m381.166,514.245l14.928,-9.367l-0.046,-52.442l-14.927,9.367l0.045,52.442z"/>
    <path id="svg_304" fill="#4970CA" d="m381.121,461.803l14.928,-9.367l-27.088,-11.494l-14.927,9.367l27.087,11.494z"/>
    <path id="svg_305" fill="#8BB07C" d="m354.033,450.309l0.046,52.441l27.087,11.495l-0.045,-52.442l-27.088,-11.494z"/>
    <path id="svg_306" fill="url(#paint4_linear_702_5899)" d="m354.033,450.309l0.046,52.441l27.087,11.495l-0.045,-52.442l-27.088,-11.494z"/>
    <path id="svg_307" fill="#8A2048" d="m420.649,530.998l14.927,-9.367l-0.028,-32.375l-14.928,9.367l0.029,32.375z"/>
    <path id="svg_308" fill="url(#paint5_linear_702_5899)" d="m420.649,530.998l14.927,-9.367l-0.028,-32.375l-14.928,9.367l0.029,32.375z"/>
    <path id="svg_309" fill="#4970CA" d="m420.62,498.623l14.928,-9.367l-27.088,-11.494l-14.924,9.369l27.084,11.492z"/>
    <path id="svg_310" fill="#E32C86" d="m393.536,487.131l0.028,32.373l27.084,11.494l-0.028,-32.375l-27.084,-11.492z"/>
    <path id="svg_311" fill="url(#paint6_linear_702_5899)" d="m393.536,487.131l0.028,32.373l27.084,11.494l-0.028,-32.375l-27.084,-11.492z"/>
    <path id="svg_312" fill="#007596" d="m338.798,496.266l14.928,-9.369l-0.077,-86.959l-14.927,9.369l0.076,86.959z"/>
    <path id="svg_313" fill="url(#paint7_linear_702_5899)" d="m338.798,496.266l14.928,-9.369l-0.077,-86.959l-14.927,9.369l0.076,86.959z"/>
    <path id="svg_314" fill="#4970CA" d="m338.722,409.307l14.927,-9.369l-27.087,-11.495l-14.925,9.37l27.085,11.494z"/>
    <path id="svg_315" fill="#00ADE1" d="m311.637,397.813l0.076,86.959l27.085,11.494l-0.077,-86.959l-27.084,-11.494z"/>
    <path id="svg_316" fill="url(#paint8_linear_702_5899)" d="m311.637,397.813l0.076,86.959l27.085,11.494l-0.077,-86.959l-27.084,-11.494z"/>
    <path id="svg_317" fill="#23398E" d="m292.473,476.607l14.927,-9.367l-0.096,-90.617l-14.927,9.37l0.096,90.614z"/>
    <path id="svg_318" fill="url(#paint9_linear_702_5899)" d="m292.473,476.607l14.927,-9.367l-0.096,-90.617l-14.927,9.37l0.096,90.614z"/>
    <path id="svg_319" fill="#4970CA" d="m292.376,385.993l14.928,-9.369l-27.088,-11.492l-14.924,9.367l27.084,11.494z"/>
    <path id="svg_320" fill="#6F6EB1" d="m265.292,374.499l0.096,90.614l27.085,11.494l-0.097,-90.614l-27.084,-11.494z"/>
    <path id="svg_321" fill="url(#paint10_linear_702_5899)" d="m265.292,374.499l0.096,90.614l27.085,11.494l-0.097,-90.614l-27.084,-11.494z"/>
    <path id="svg_322" fill="#633763" d="m352.491,406.125l4.222,-2.654l1.16,-6.184l-4.225,2.651l-1.157,6.187z"/>
    <path id="svg_323" fill="#343FC5" d="m357.874,397.287l24.291,36.438l-4.225,2.651l-24.291,-36.438l4.225,-2.651z"/>
    <path id="svg_324" fill="#343FC5" d="m352.491,406.125l4.222,-2.654l-1.726,9.226l-4.222,2.65l1.726,-9.222z"/>
    <path id="svg_325" fill="#343FC5" d="m354.871,393.4l4.225,-2.651l-1.223,6.538l-4.225,2.651l1.223,-6.538z"/>
    <path id="svg_326" fill="#343FC5" d="m354.871,393.4l4.225,-2.651l-13.799,-7.44l-4.225,2.65l13.799,7.441z"/>
    <path id="svg_327" fill="#343FC5" d="m382.044,450.456l4.225,-2.651l1.799,-20.395l-4.225,2.651l-1.799,20.395z"/>
    <path id="svg_328" fill="#623763" d="m421.755,486.97l4.225,-2.653l3.571,-2.561l-4.225,2.651l-3.571,2.563z"/>
    <path id="svg_329" fill="#CFDAFF" d="m354.871,393.4l-1.222,6.538l24.291,36.438l1.8,-20.401l45.586,68.432l-3.571,2.563l-37.912,-56.909l-1.799,20.395l-29.553,-44.331l-1.726,9.222l-9.692,-29.388l13.798,7.441z"/>
    <path id="svg_330" fill="#343FC5" d="m425.326,484.407l4.225,-2.651l-45.586,-68.431l-4.225,2.651l45.586,68.431z"/>
   </g>
  </g>
 </g>
</svg>