<svg width="1200" height="289" xmlns="http://www.w3.org/2000/svg">
 <defs>
  <clipPath id="clip0_702_7488">
   <rect id="svg_1" transform="matrix(-1,0,0,1,1183,0) " fill="white" height="289" width="493"/>
  </clipPath>
  <radialGradient gradientTransform="translate(722 92.65) rotate(111.104) scale(417.985 2227.63)" gradientUnits="userSpaceOnUse" r="1" cy="0" cx="0" id="paint0_radial_702_7488">
   <stop stop-color="#001047"/>
   <stop offset="1"/>
  </radialGradient>
  <linearGradient y2="-0.633154" x2="0.314759" y1="0.90166" x1="0.498427" id="paint1_linear_702_7488">
   <stop stop-color="#5956FF"/>
   <stop stop-color="#95FEDA" offset="1"/>
  </linearGradient>
  <linearGradient y2="-0.763037" x2="0.30747" y1="0.789617" x1="-0.000779" id="paint2_linear_702_7488">
   <stop stop-color="#5956FF"/>
   <stop stop-color="#95FEDA" offset="1"/>
  </linearGradient>
  <linearGradient y2="0.493925" x2="2.732805" y1="1.002734" x1="1.010022" id="paint3_linear_702_7488">
   <stop stop-color="#5956FF"/>
   <stop stop-color="#95FEDA" offset="1"/>
  </linearGradient>
  <linearGradient y2="0.304648" x2="1.77938" y1="1.002722" x1="1.009582" id="paint4_linear_702_7488">
   <stop stop-color="#5956FF"/>
   <stop stop-color="#95FEDA" offset="1"/>
  </linearGradient>
  <linearGradient y2="0.351804" x2="2.016717" y1="1.002731" x1="1.009361" id="paint5_linear_702_7488">
   <stop stop-color="#5956FF"/>
   <stop stop-color="#95FEDA" offset="1"/>
  </linearGradient>
  <linearGradient y2="0.231358" x2="1.410918" y1="1.002736" x1="1.00959" id="paint6_linear_702_7488">
   <stop stop-color="#5956FF"/>
   <stop stop-color="#95FEDA" offset="1"/>
  </linearGradient>
  <linearGradient y2="0.678785" x2="3.662884" y1="1.00273" x1="1.009597" id="paint7_linear_702_7488">
   <stop stop-color="#5956FF"/>
   <stop stop-color="#95FEDA" offset="1"/>
  </linearGradient>
  <linearGradient y2="0.442323" x2="2.472777" y1="1.002732" x1="1.00961" id="paint8_linear_702_7488">
   <stop stop-color="#5956FF"/>
   <stop stop-color="#95FEDA" offset="1"/>
  </linearGradient>
  <linearGradient y2="0.693069" x2="3.734803" y1="1.002731" x1="1.00965" id="paint9_linear_702_7488">
   <stop stop-color="#5956FF"/>
   <stop stop-color="#95FEDA" offset="1"/>
  </linearGradient>
  <linearGradient y2="0.456146" x2="2.542214" y1="1.002732" x1="1.009601" id="paint10_linear_702_7488">
   <stop stop-color="#5956FF"/>
   <stop stop-color="#95FEDA" offset="1"/>
  </linearGradient>
 </defs>
 <g>
  <title>background</title>
  <rect fill="none" id="canvas_background" height="402" width="582" y="-1" x="-1"/>
 </g>
 <g>
  <title>Layer 1</title>
  <rect id="svg_2" fill="white" rx="16" height="220" width="1200" y="69"/>
  <rect x="0" id="svg_3" fill="url(#paint0_radial_702_7488)" rx="16" height="220" width="1200" y="70"/>
  <g id="svg_10" clip-path="url(#clip0_702_7488)">
   <path id="svg_11" fill="#81C6E6" d="m839,10.7503l0,176.4467c0,5.667 3.826,6.702 3.826,6.702l291.244,127.745c6.87,1.174 6.1,-11.352 6.1,-11.352l0,-174.272c0,-6.416 -4.22,-7.361 -4.22,-7.361l-290.812,-121.27238c0,0 -6.135,-3.39485 -6.135,3.36088l-0.003,0.0028z"/>
   <path id="svg_12" fill="url(#paint1_linear_702_7488)" d="m839,10.7503l0,176.4467c0,5.667 3.826,6.702 3.826,6.702l291.244,127.745c6.87,1.174 6.1,-11.352 6.1,-11.352l0,-174.272c0,-6.416 -4.22,-7.361 -4.22,-7.361l-290.812,-121.27238c0,0 -6.135,-3.39485 -6.135,3.36088l-0.003,0.0028z"/>
   <path id="svg_13" fill="#343FC5" d="m1148.07,308.32l-10.55,7.106c2.43,-0.775 2.58,-3.98 2.58,-3.98l0.07,-175.14l8.87,-6.108l0,175.731c0,0 0.19,1.599 -0.97,2.394l0,-0.003z"/>
   <path id="svg_14" stroke-opacity="0.05" stroke="#5460F2" d="m1147.79,307.905l0.06,-0.042c0.39,-0.296 0.57,-0.726 0.65,-1.131c0.04,-0.211 0.05,-0.403 0.05,-0.541c0,-0.069 0,-0.123 0,-0.159c0,-0.017 0,-0.03 0,-0.037l0,-0.006l0,0l0,-0.001l0,0l0,0l0,-0.001l-0.01,-0.028l0,-0.03l0,-174.78l-7.87,5.42l-0.07,174.877l0,0.012l0,0.011l-0.5,-0.023c0.5,0.023 0.5,0.024 0.5,0.024l0,0l0,0.001l0,0.004l0,0.01l-0.01,0.033c0,0.028 0,0.067 -0.01,0.117c-0.01,0.098 -0.02,0.238 -0.05,0.406c-0.04,0.245 -0.11,0.555 -0.21,0.895l7.47,-5.031z"/>
   <path id="svg_15" fill="#343FC5" d="m1137.17,129.281c0,0 3.02,1.548 3,7.025l8.87,-6.029c0,-3.98 -1.98,-6.077 -3.16,-6.968l-8.71,5.975l0,-0.003z"/>
   <path id="svg_16" fill="#343FC5" d="m1145.96,123.374c-0.48,-0.407 -0.95,-0.611 -0.95,-0.611l-290.938,-121.60027c0,0 -4.369,-2.53199 -7.414,-0.12447l-5.643,3.81637c0,0 -2.012,1.08635 -1.853,4.21809c0,0 0.549,-3.47972 5.976,-1.68328l292.032,121.89156l8.79,-5.907z"/>
   <path id="svg_17" stroke-opacity="0.05" stroke="#5460F2" d="m1145.08,123.364c-0.01,-0.005 -0.01,-0.01 -0.02,-0.014c-0.08,-0.045 -0.15,-0.079 -0.19,-0.1c-0.02,-0.011 -0.04,-0.019 -0.05,-0.023l-0.01,-0.005l-290.931,-121.59794l-0.03,-0.01248l291.231,121.75242zm0,0l-7.96,5.352l-291.789,-121.78798l-0.018,-0.0073l-0.018,-0.00595c-2.707,-0.89609 -4.374,-0.56238 -5.381,0.16762c0.144,-0.4137 0.332,-0.74258 0.519,-0.99865c0.212,-0.29113 0.427,-0.49401 0.585,-0.6219c0.079,-0.06388 0.143,-0.10869 0.185,-0.13611c0.021,-0.0137 0.036,-0.02301 0.045,-0.02814l0.005,-0.003l0,-0.00027l0.001,-0.00026l0,-0.00043l0.002,-0.00061l303.824,118.07098zm-291.258,-121.76841l0,-0.0001l-0.001,-0.00015l0,-0.00041l-0.007,-0.00393l-0.032,-0.01771c-0.029,-0.01596 -0.074,-0.03991 -0.132,-0.07005c-0.118,-0.06032 -0.291,-0.14518 -0.508,-0.24034c-0.437,-0.19084 -1.048,-0.42022 -1.745,-0.57746c-1.408,-0.31746 -3.078,-0.32291 -4.429,0.74503l-0.015,0.01153l-0.015,0.01042l-5.643,3.81637l-0.02,0.01396l12.547,-3.68716z"/>
   <path id="svg_18" fill="#B6E1F8" d="m832.565,197.597l-138.547,93.497c0,0 -6.016,4.588 0.733,8.577l287.36,120.082c5.682,2.373 10.802,-0.951 10.802,-0.951l141.797,-90.695c5.92,-4.111 -2.6,-8.856 -2.6,-8.856l-285.518,-124.388c0,0 -6.76,-1.96 -14.027,2.734z"/>
   <path id="svg_19" fill="url(#paint2_linear_702_7488)" d="m832.565,197.597l-138.547,93.497c0,0 -6.016,4.588 0.733,8.577l287.36,120.082c5.682,2.373 10.802,-0.951 10.802,-0.951l141.797,-90.695c5.92,-4.111 -2.6,-8.856 -2.6,-8.856l-285.518,-124.388c0,0 -6.76,-1.96 -14.027,2.734z"/>
   <path id="svg_20" fill="#E5F0FF" d="m849.454,21.5742l280.286,117.0908l0,165.934l-280.286,-120.601l0,-162.4238z"/>
   <mask height="224" width="429" y="217" x="737" maskUnits="userSpaceOnUse" id="mask0_702_7488">
    <path id="svg_21" fill="white" d="m1160.67,368.729l4.25,-3.032c1.37,-0.972 1.24,-2.324 -0.28,-3.02l-15.32,-7.014c-1.52,-0.698 -3.86,-0.475 -5.22,0.497l-4.25,3.032c-1.36,0.972 -1.23,2.322 0.29,3.02l15.31,7.014c1.52,0.698 3.86,0.475 5.22,-0.497zm-28.43,-10.133l-15.31,-7.014c-1.52,-0.698 -1.65,-2.05 -0.29,-3.02l4.26,-3.032c1.36,-0.972 3.7,-1.195 5.22,-0.497l15.31,7.014c1.52,0.698 1.65,2.048 0.29,3.02l-4.26,3.032c-1.36,0.972 -3.7,1.195 -5.22,0.497zm-23.2,-10.63l-15.32,-7.014c-1.52,-0.698 -1.65,-2.05 -0.29,-3.02l4.26,-3.032c1.36,-0.972 3.7,-1.195 5.22,-0.497l15.31,7.014c1.52,0.698 1.65,2.048 0.29,3.02l-4.25,3.032c-1.37,0.972 -3.7,1.195 -5.22,0.497zm-23.21,-10.63l-15.32,-7.014c-1.52,-0.698 -1.64,-2.05 -0.28,-3.02l4.25,-3.032c1.36,-0.972 3.7,-1.195 5.22,-0.497l15.31,7.014c1.52,0.698 1.65,2.048 0.29,3.02l-4.25,3.032c-1.36,0.972 -3.7,1.195 -5.22,0.497zm-23.21,-10.629l-15.31,-7.015c-1.52,-0.698 -1.65,-2.05 -0.29,-3.02l4.25,-3.032c1.36,-0.972 3.7,-1.195 5.22,-0.497l15.32,7.014c1.52,0.698 1.65,2.05 0.28,3.02l-4.25,3.032c-1.36,0.972 -3.7,1.195 -5.22,0.498zm-23.21,-10.63l-15.31,-7.015c-1.52,-0.698 -1.65,-2.05 -0.29,-3.02l4.26,-3.032c1.36,-0.972 3.7,-1.195 5.22,-0.497l15.31,7.015c1.52,0.697 1.65,2.047 0.29,3.019l-4.26,3.032c-1.36,0.972 -3.7,1.195 -5.22,0.498zm-23.2,-10.63l-15.32,-7.015c-1.518,-0.697 -1.647,-2.05 -0.29,-3.02l4.26,-3.032c1.36,-0.972 3.7,-1.195 5.22,-0.497l15.31,7.015c1.52,0.697 1.65,2.048 0.29,3.02l-4.25,3.032c-1.37,0.971 -3.7,1.194 -5.22,0.497zm-23.212,-10.63l-15.313,-7.015c-1.521,-0.697 -1.649,-2.05 -0.288,-3.02l4.253,-3.032c1.362,-0.972 3.7,-1.194 5.221,-0.497l15.309,7.015c1.52,0.697 1.65,2.048 0.29,3.02l-4.252,3.032c-1.361,0.972 -3.7,1.194 -5.22,0.497zm-23.208,-10.63l-15.313,-7.015c-1.52,-0.697 -1.649,-2.05 -0.287,-3.02l4.253,-3.032c1.361,-0.972 3.7,-1.194 5.22,-0.497l15.313,7.015c1.521,0.697 1.649,2.048 0.288,3.02l-4.253,3.032c-1.362,0.972 -3.7,1.194 -5.221,0.497zm-23.207,-10.63l-15.313,-7.015c-1.521,-0.697 -1.649,-2.049 -0.288,-3.02l4.253,-3.032c1.362,-0.972 3.7,-1.194 5.221,-0.497l15.313,7.015c1.52,0.697 1.649,2.048 0.287,3.02l-4.253,3.032c-1.361,0.972 -3.7,1.194 -5.22,0.497zm-23.208,-10.63l-15.313,-7.015c-1.52,-0.697 -1.649,-2.049 -0.287,-3.02l4.253,-3.032c1.361,-0.972 3.7,-1.194 5.22,-0.497l15.313,7.015c1.521,0.697 1.649,2.048 0.288,3.02l-4.253,3.032c-1.362,0.972 -3.7,1.195 -5.221,0.497zm-23.207,-10.63l-15.315,-7.014c-1.52,-0.698 -1.649,-2.05 -0.288,-3.02l4.253,-3.032c1.362,-0.972 3.7,-1.195 5.221,-0.497l15.315,7.014c1.52,0.698 1.649,2.048 0.287,3.02l-4.253,3.032c-1.361,0.972 -3.7,1.195 -5.22,0.497zm-23.208,-10.63l-15.313,-7.015c-1.52,-0.697 -1.649,-2.049 -0.287,-3.019l4.253,-3.032c1.361,-0.972 3.7,-1.195 5.22,-0.498l15.313,7.015c1.521,0.698 1.649,2.05 0.288,3.02l-4.253,3.032c-1.362,0.972 -3.7,1.195 -5.221,0.497zm-29.334,-24.192l15.313,7.015c1.52,0.697 1.649,2.048 0.287,3.02l-4.253,3.032c-1.361,0.972 -3.699,1.195 -5.22,0.497l-15.313,-7.015c-1.52,-0.697 -1.649,-2.049 -0.288,-3.02l4.253,-3.032c1.362,-0.972 3.7,-1.194 5.221,-0.497zm287.094,165.056l-9.16,-4.196c-2.21,-1.012 -2.4,-2.979 -0.42,-4.391l8.21,-5.85c1.98,-1.412 5.38,-1.735 7.59,-0.723l9.16,4.196c2.21,1.012 2.4,2.979 0.42,4.391l-8.2,5.85c-1.99,1.412 -5.38,1.735 -7.6,0.723zm-21.85,-10.01l-9.16,-4.195c-2.21,-1.013 -2.4,-2.98 -0.42,-4.392l8.2,-5.849c1.99,-1.412 5.38,-1.736 7.6,-0.723l9.16,4.195c2.21,1.013 2.4,2.98 0.42,4.392l-8.21,5.849c-1.98,1.412 -5.38,1.736 -7.59,0.723zm-14.26,-10.732c-1.99,1.412 -5.38,1.736 -7.6,0.723l-9.16,-4.196c-2.21,-1.012 -2.4,-2.979 -0.42,-4.391l8.21,-5.85c1.98,-1.411 5.38,-1.735 7.59,-0.723l9.16,4.196c2.22,1.012 2.4,2.98 0.42,4.391l-8.2,5.85zm-13.65,-15.861l-8.21,5.85c-1.98,1.412 -5.38,1.735 -7.59,0.723l-9.16,-4.196c-2.22,-1.012 -2.4,-2.979 -0.42,-4.391l8.2,-5.85c1.98,-1.412 5.38,-1.735 7.6,-0.723l9.16,4.196c2.21,1.012 2.4,2.979 0.42,4.391zm-21.86,-10.009l-8.2,5.849c-1.98,1.412 -5.38,1.736 -7.6,0.723l-9.16,-4.195c-2.21,-1.013 -2.4,-2.98 -0.42,-4.392l8.21,-5.849c1.98,-1.412 5.38,-1.736 7.59,-0.723l9.16,4.195c2.22,1.013 2.4,2.98 0.42,4.392zm-46.81,-7.633c-2.21,-1.013 -2.4,-2.98 -0.42,-4.392l8.21,-5.849c1.98,-1.412 5.38,-1.736 7.59,-0.723l9.16,4.196c2.21,1.012 2.4,2.979 0.42,4.391l-8.21,5.85c-1.98,1.411 -5.38,1.735 -7.59,0.723l-9.16,-4.196zm-21.854,-10.009c-2.212,-1.013 -2.399,-2.98 -0.418,-4.392l8.202,-5.85c1.98,-1.411 5.38,-1.735 7.6,-0.723l9.16,4.196c2.21,1.013 2.4,2.98 0.42,4.392l-8.21,5.849c-1.98,1.412 -5.38,1.736 -7.59,0.723l-9.164,-4.195zm-21.854,-10.01c-2.212,-1.013 -2.399,-2.98 -0.418,-4.392l8.205,-5.849c1.981,-1.412 5.38,-1.736 7.593,-0.723l9.161,4.195c2.212,1.013 2.4,2.98 0.419,4.392l-8.206,5.849c-1.981,1.412 -5.38,1.736 -7.592,0.724l-9.162,-4.196zm-21.854,-10.01c-2.212,-1.012 -2.399,-2.979 -0.418,-4.391l8.205,-5.85c1.981,-1.411 5.381,-1.735 7.593,-0.723l9.161,4.196c2.213,1.012 2.4,2.98 0.419,4.392l-8.206,5.849c-1.981,1.412 -5.38,1.736 -7.592,0.723l-9.162,-4.196zm-21.854,-10.009c-2.212,-1.013 -2.399,-2.98 -0.418,-4.392l8.205,-5.849c1.981,-1.412 5.381,-1.736 7.593,-0.723l9.162,4.195c2.212,1.013 2.399,2.98 0.418,4.392l-8.205,5.849c-1.982,1.412 -5.381,1.736 -7.593,0.723l-9.162,-4.195zm3.104,-12.386l-8.205,5.849c-1.981,1.412 -5.38,1.736 -7.593,0.723l-9.161,-4.195c-2.213,-1.013 -2.4,-2.98 -0.419,-4.392l8.206,-5.849c1.981,-1.412 5.38,-1.736 7.592,-0.724l9.162,4.196c2.212,1.013 2.399,2.98 0.418,4.392zm-21.854,-10.01l-8.205,5.85c-1.981,1.411 -5.38,1.735 -7.592,0.723l-9.162,-4.196c-2.212,-1.012 -2.4,-2.98 -0.419,-4.392l8.206,-5.849c1.981,-1.412 5.38,-1.736 7.592,-0.723l9.162,4.195c2.212,1.013 2.399,2.98 0.418,4.392zm-22.272,-14.401c2.212,1.013 2.4,2.98 0.418,4.392l-8.205,5.849c-1.981,1.412 -5.38,1.736 -7.592,0.723l-9.162,-4.195c-2.212,-1.013 -2.4,-2.98 -0.418,-4.392l8.205,-5.85c1.981,-1.411 5.38,-1.735 7.592,-0.723l9.162,4.196zm-51.69,-23.676l28.852,13.215c2.212,1.012 2.399,2.979 0.418,4.391l-8.205,5.85c-1.981,1.412 -5.381,1.735 -7.593,0.723l-28.852,-13.215c-2.212,-1.012 -2.399,-2.98 -0.418,-4.391l8.205,-5.85c1.981,-1.412 5.38,-1.736 7.593,-0.723zm-34.493,25.664c-2.213,-1.013 -2.4,-2.98 -0.419,-4.392l8.206,-5.849c1.981,-1.412 5.38,-1.736 7.592,-0.723l9.162,4.195c2.212,1.013 2.399,2.98 0.418,4.392l-8.205,5.849c-1.981,1.412 -5.381,1.736 -7.593,0.723l-9.161,-4.195zm21.435,5.618l8.205,-5.85c1.982,-1.412 5.381,-1.735 7.593,-0.723l9.162,4.196c2.212,1.012 2.399,2.979 0.418,4.391l-8.205,5.85c-1.981,1.412 -5.381,1.735 -7.593,0.723l-9.162,-4.196c-2.212,-1.012 -2.399,-2.979 -0.418,-4.391zm21.854,10.009l8.205,-5.849c1.982,-1.412 5.381,-1.736 7.593,-0.723l9.162,4.195c2.212,1.013 2.399,2.98 0.418,4.392l-8.205,5.849c-1.982,1.412 -5.381,1.736 -7.593,0.723l-9.162,-4.195c-2.212,-1.013 -2.399,-2.98 -0.418,-4.392zm21.854,10.01l8.205,-5.85c1.981,-1.412 5.381,-1.735 7.593,-0.723l9.162,4.196c2.212,1.012 2.399,2.979 0.418,4.391l-8.205,5.85c-1.982,1.412 -5.381,1.735 -7.593,0.723l-9.162,-4.196c-2.212,-1.012 -2.399,-2.979 -0.418,-4.391zm21.854,10.009l8.205,-5.849c1.981,-1.412 5.38,-1.736 7.593,-0.723l9.161,4.195c2.213,1.013 2.4,2.98 0.419,4.392l-8.206,5.849c-1.981,1.412 -5.38,1.736 -7.592,0.723l-9.162,-4.195c-2.212,-1.013 -2.399,-2.98 -0.418,-4.392zm47.23,12.026l-8.205,5.85c-1.981,1.412 -5.381,1.735 -7.593,0.723l-9.162,-4.196c-2.212,-1.012 -2.399,-2.979 -0.418,-4.391l8.205,-5.85c1.982,-1.412 5.381,-1.735 7.593,-0.723l9.162,4.196c2.212,1.012 2.399,2.979 0.418,4.391zm21.854,10.01l-8.205,5.849c-1.982,1.412 -5.381,1.736 -7.593,0.723l-9.162,-4.195c-2.212,-1.013 -2.399,-2.98 -0.418,-4.392l8.205,-5.849c1.982,-1.412 5.381,-1.736 7.593,-0.723l9.162,4.195c2.212,1.013 2.399,2.98 0.418,4.392zm21.854,10.009l-8.205,5.85c-1.982,1.412 -5.381,1.735 -7.593,0.723l-9.162,-4.196c-2.212,-1.012 -2.399,-2.979 -0.418,-4.391l8.205,-5.85c1.981,-1.412 5.381,-1.735 7.593,-0.723l9.162,4.196c2.212,1.012 2.399,2.98 0.418,4.391zm21.856,10.01l-8.208,5.849c-1.981,1.412 -5.38,1.736 -7.592,0.723l-9.162,-4.195c-2.212,-1.013 -2.399,-2.98 -0.418,-4.392l8.205,-5.849c1.981,-1.412 5.381,-1.736 7.593,-0.723l9.162,4.195c2.21,1.013 2.4,2.98 0.42,4.392zm21.85,10.009l-8.2,5.85c-1.98,1.412 -5.38,1.735 -7.6,0.723l-9.158,-4.196c-2.212,-1.012 -2.399,-2.979 -0.418,-4.391l8.206,-5.85c1.98,-1.412 5.38,-1.735 7.59,-0.723l9.16,4.196c2.22,1.012 2.4,2.98 0.42,4.391zm-3.52,7.995l8.2,-5.849c1.99,-1.412 5.39,-1.736 7.6,-0.723l9.16,4.195c2.21,1.013 2.4,2.98 0.42,4.392l-8.21,5.849c-1.98,1.412 -5.38,1.736 -7.59,0.723l-9.16,-4.195c-2.21,-1.013 -2.4,-2.98 -0.42,-4.392zm21.85,10.01l8.21,-5.85c1.98,-1.412 5.38,-1.735 7.59,-0.723l9.16,4.196c2.22,1.012 2.4,2.979 0.42,4.391l-8.2,5.85c-1.99,1.412 -5.38,1.735 -7.6,0.723l-9.16,-4.196c-2.21,-1.012 -2.4,-2.979 -0.42,-4.391zm21.86,10.009l8.2,-5.849c1.98,-1.412 5.38,-1.736 7.6,-0.723l9.16,4.195c2.21,1.013 2.4,2.98 0.42,4.392l-8.21,5.849c-1.98,1.412 -5.38,1.736 -7.59,0.723l-9.16,-4.195c-2.22,-1.013 -2.4,-2.98 -0.42,-4.392zm51.2,27.65l-28.86,-13.215c-2.21,-1.012 -2.4,-2.979 -0.41,-4.391l8.2,-5.85c1.98,-1.412 5.38,-1.735 7.59,-0.723l28.86,13.215c2.21,1.013 2.4,2.98 0.41,4.392l-8.2,5.849c-1.98,1.412 -5.38,1.736 -7.59,0.723zm-319.085,-140.139l21.841,10.004c2.212,1.013 2.399,2.98 0.418,4.392l-8.205,5.849c-1.981,1.412 -5.38,1.736 -7.592,0.723l-21.841,-10.004c-2.212,-1.012 -2.4,-2.979 -0.418,-4.391l8.205,-5.85c1.981,-1.411 5.38,-1.735 7.592,-0.723zm28.317,30.979l-9.161,-4.195c-2.213,-1.013 -2.4,-2.98 -0.419,-4.392l8.206,-5.849c1.981,-1.412 5.38,-1.736 7.592,-0.723l9.162,4.195c2.212,1.013 2.399,2.98 0.418,4.392l-8.205,5.849c-1.981,1.412 -5.38,1.736 -7.593,0.723zm21.854,10.01l-9.162,-4.196c-2.212,-1.012 -2.399,-2.98 -0.418,-4.391l8.205,-5.85c1.982,-1.412 5.381,-1.735 7.593,-0.723l9.162,4.196c2.212,1.012 2.399,2.979 0.418,4.391l-8.205,5.85c-1.981,1.412 -5.381,1.735 -7.593,0.723zm21.854,10.009l-9.162,-4.195c-2.212,-1.013 -2.399,-2.98 -0.418,-4.392l8.205,-5.849c1.982,-1.412 5.381,-1.736 7.593,-0.723l9.162,4.195c2.212,1.013 2.399,2.98 0.418,4.392l-8.205,5.849c-1.982,1.412 -5.381,1.736 -7.593,0.723zm12.276,1.422l8.205,-5.849c1.981,-1.412 5.38,-1.736 7.593,-0.723l9.161,4.196c2.212,1.012 2.4,2.979 0.419,4.391l-8.206,5.85c-1.981,1.411 -5.38,1.735 -7.592,0.723l-9.162,-4.196c-2.212,-1.012 -2.399,-2.98 -0.418,-4.392zm21.854,10.01l8.205,-5.849c1.981,-1.412 5.38,-1.736 7.592,-0.723l9.162,4.195c2.212,1.013 2.4,2.98 0.418,4.392l-8.205,5.849c-1.981,1.412 -5.38,1.736 -7.592,0.723l-9.162,-4.195c-2.212,-1.013 -2.399,-2.98 -0.418,-4.392zm21.854,10.01l8.205,-5.85c1.981,-1.412 5.38,-1.735 7.592,-0.723l9.162,4.196c2.212,1.012 2.4,2.979 0.418,4.391l-8.205,5.85c-1.981,1.412 -5.38,1.735 -7.592,0.723l-9.162,-4.196c-2.212,-1.012 -2.4,-2.98 -0.418,-4.391zm21.854,10.009l8.205,-5.849c1.981,-1.412 5.38,-1.736 7.592,-0.723l9.162,4.195c2.212,1.013 2.4,2.98 0.418,4.392l-8.205,5.849c-1.981,1.412 -5.38,1.736 -7.592,0.723l-9.162,-4.195c-2.212,-1.013 -2.4,-2.98 -0.418,-4.392zm21.853,10.01l8.206,-5.85c1.981,-1.412 5.38,-1.735 7.592,-0.723l9.162,4.196c2.212,1.012 2.399,2.979 0.418,4.391l-8.205,5.85c-1.981,1.412 -5.38,1.735 -7.593,0.723l-9.161,-4.196c-2.212,-1.012 -2.4,-2.98 -0.419,-4.391zm31.435,18.598l-9.162,-4.195c-2.212,-1.013 -2.4,-2.98 -0.419,-4.392l8.206,-5.85c1.981,-1.411 5.379,-1.735 7.589,-0.723l9.17,4.196c2.21,1.013 2.39,2.98 0.41,4.392l-8.2,5.849c-1.98,1.412 -5.38,1.736 -7.594,0.723zm21.854,10.01l-9.16,-4.196c-2.21,-1.013 -2.4,-2.98 -0.42,-4.392l8.2,-5.849c1.99,-1.412 5.38,-1.736 7.6,-0.723l9.16,4.196c2.21,1.012 2.4,2.979 0.42,4.391l-8.21,5.85c-1.98,1.411 -5.38,1.735 -7.59,0.723zm21.85,10.009l-9.16,-4.195c-2.21,-1.013 -2.4,-2.98 -0.42,-4.392l8.21,-5.849c1.98,-1.412 5.38,-1.736 7.59,-0.724l9.16,4.196c2.21,1.013 2.4,2.98 0.42,4.392l-8.2,5.849c-1.99,1.412 -5.38,1.736 -7.6,0.723zm51.71,23.682l-38.03,-17.418c-2.21,-1.013 -2.4,-2.98 -0.42,-4.392l8.21,-5.849c1.98,-1.412 5.38,-1.736 7.59,-0.723l38.03,17.418c2.21,1.012 2.4,2.98 0.41,4.391l-8.2,5.85c-1.98,1.412 -5.38,1.736 -7.59,0.723l0,0zm-319.079,-140.137l31.813,14.57c2.212,1.013 2.399,2.98 0.418,4.392l-8.205,5.85c-1.982,1.411 -5.381,1.735 -7.593,0.723l-31.812,-14.571c-2.213,-1.013 -2.4,-2.98 -0.419,-4.392l8.205,-5.849c1.982,-1.412 5.381,-1.736 7.593,-0.723zm36.914,21.107c1.981,-1.412 5.38,-1.735 7.592,-0.723l9.162,4.196c2.212,1.012 2.4,2.98 0.418,4.391l-8.205,5.85c-1.981,1.412 -5.38,1.735 -7.592,0.723l-9.162,-4.196c-2.212,-1.012 -2.4,-2.979 -0.418,-4.391l8.205,-5.85zm13.651,15.861l8.205,-5.85c1.981,-1.411 5.38,-1.735 7.592,-0.723l9.162,4.196c2.212,1.012 2.4,2.98 0.418,4.392l-8.205,5.849c-1.981,1.412 -5.38,1.736 -7.592,0.723l-9.162,-4.196c-2.212,-1.012 -2.4,-2.979 -0.418,-4.391zm31.434,18.598l-9.162,-4.195c-2.212,-1.013 -2.4,-2.98 -0.418,-4.392l8.205,-5.849c1.981,-1.412 5.38,-1.736 7.592,-0.723l9.162,4.195c2.212,1.013 2.4,2.98 0.418,4.392l-8.205,5.849c-1.981,1.412 -5.38,1.736 -7.592,0.723zm21.854,10.01l-9.162,-4.196c-2.212,-1.012 -2.4,-2.979 -0.418,-4.391l8.205,-5.85c1.981,-1.412 5.38,-1.735 7.592,-0.723l9.162,4.196c2.212,1.012 2.4,2.979 0.418,4.391l-8.205,5.85c-1.981,1.412 -5.38,1.735 -7.592,0.723zm21.853,10.009l-9.161,-4.195c-2.212,-1.013 -2.4,-2.98 -0.419,-4.392l8.206,-5.849c1.981,-1.412 5.38,-1.736 7.592,-0.723l9.162,4.195c2.212,1.013 2.399,2.98 0.418,4.392l-8.205,5.849c-1.981,1.412 -5.38,1.736 -7.593,0.723zm21.854,10.01l-9.161,-4.196c-2.213,-1.012 -2.4,-2.979 -0.419,-4.391l8.206,-5.85c1.981,-1.412 5.38,-1.735 7.592,-0.723l9.162,4.196c2.212,1.012 2.399,2.98 0.418,4.391l-8.205,5.85c-1.981,1.412 -5.38,1.735 -7.593,0.723zm21.854,10.009l-9.162,-4.195c-2.212,-1.013 -2.399,-2.98 -0.418,-4.392l8.205,-5.849c1.982,-1.412 5.381,-1.736 7.593,-0.723l9.162,4.195c2.212,1.013 2.399,2.98 0.418,4.392l-8.205,5.849c-1.981,1.412 -5.381,1.736 -7.593,0.723zm21.854,10.01l-9.162,-4.196c-2.212,-1.012 -2.399,-2.979 -0.418,-4.391l8.205,-5.85c1.982,-1.411 5.381,-1.735 7.593,-0.723l9.162,4.196c2.212,1.012 2.399,2.98 0.418,4.392l-8.205,5.849c-1.982,1.412 -5.381,1.736 -7.593,0.723zm28.072,-5.15l9.159,4.195c2.21,1.013 2.4,2.98 0.42,4.392l-8.204,5.849c-1.982,1.412 -5.381,1.736 -7.593,0.724l-9.162,-4.196c-2.212,-1.013 -2.399,-2.98 -0.418,-4.392l8.205,-5.849c1.981,-1.412 5.381,-1.736 7.593,-0.723zm6.059,16.582l8.2,-5.85c1.99,-1.412 5.38,-1.735 7.6,-0.723l9.16,4.196c2.21,1.012 2.4,2.98 0.42,4.391l-8.21,5.85c-1.98,1.412 -5.38,1.735 -7.59,0.723l-9.16,-4.196c-2.215,-1.012 -2.403,-2.979 -0.42,-4.391zm71.99,37.177l-48.73,-22.324c-2.22,-1.013 -2.4,-2.98 -0.42,-4.392l8.2,-5.849c1.98,-1.412 5.38,-1.736 7.59,-0.724l48.74,22.325c2.22,1.012 2.4,2.979 0.42,4.391l-8.2,5.85c-1.98,1.412 -5.38,1.735 -7.6,0.723zm-265.631,-115.659l9.162,4.196c2.212,1.012 2.399,2.979 0.418,4.391l-8.205,5.85c-1.982,1.411 -5.381,1.735 -7.593,0.723l-9.162,-4.196c-2.212,-1.012 -2.399,-2.98 -0.418,-4.392l8.205,-5.849c1.981,-1.412 5.381,-1.736 7.593,-0.723zm-46.444,-11.7l9.004,4.124c1.018,0.467 1.104,1.371 0.192,2.021l-3.601,2.567c-0.912,0.65 -2.475,0.799 -3.492,0.333l-9.004,-4.125c-1.018,-0.466 -1.104,-1.37 -0.192,-2.02l3.601,-2.568c0.912,-0.65 2.474,-0.799 3.492,-0.332zm-15.338,-7.025l9.005,4.124c1.018,0.467 1.104,1.371 0.192,2.021l-3.601,2.567c-0.912,0.651 -2.474,0.799 -3.492,0.333l-9.004,-4.125c-1.018,-0.466 -1.104,-1.37 -0.193,-2.02l3.602,-2.568c0.911,-0.65 2.473,-0.799 3.491,-0.332zm31.55,14.451l9.005,4.124c1.018,0.467 1.104,1.371 0.192,2.021l-3.601,2.567c-0.912,0.651 -2.474,0.799 -3.492,0.333l-9.004,-4.125c-1.018,-0.466 -1.104,-1.37 -0.193,-2.02l3.602,-2.568c0.912,-0.65 2.473,-0.799 3.491,-0.332zm-7.629,-13.544l9.004,4.124c1.018,0.467 1.104,1.371 0.192,2.021l-3.601,2.567c-0.912,0.651 -2.475,0.799 -3.491,0.333l-9.005,-4.125c-1.018,-0.466 -1.104,-1.37 -0.192,-2.02l3.601,-2.568c0.912,-0.65 2.475,-0.799 3.492,-0.332zm94.829,43.912l100.707,46.127c2.212,1.013 2.4,2.98 0.419,4.392l-8.206,5.849c-1.981,1.412 -5.38,1.736 -7.592,0.723l-100.71,-46.127c-2.212,-1.013 -2.399,-2.98 -0.418,-4.392l8.205,-5.849c1.982,-1.412 5.381,-1.736 7.593,-0.723l0.002,0zm114.134,52.275l22.839,10.461c2.21,1.013 2.4,2.98 0.42,4.392l-8.206,5.85c-1.981,1.411 -5.38,1.735 -7.592,0.723l-22.84,-10.461c-2.212,-1.013 -2.4,-2.98 -0.419,-4.392l8.206,-5.85c1.981,-1.411 5.38,-1.735 7.592,-0.723zm-149.826,-68.623l22.84,10.461c2.212,1.013 2.4,2.98 0.419,4.392l-8.206,5.849c-1.981,1.412 -5.38,1.736 -7.592,0.723l-22.84,-10.461c-2.212,-1.012 -2.4,-2.979 -0.418,-4.391l8.205,-5.85c1.981,-1.412 5.38,-1.735 7.592,-0.723zm185.955,85.169l9.16,4.196c2.21,1.012 2.4,2.98 0.42,4.391l-8.21,5.85c-1.98,1.412 -5.38,1.735 -7.59,0.723l-9.164,-4.196c-2.212,-1.012 -2.399,-2.979 -0.418,-4.391l8.202,-5.85c1.98,-1.412 5.38,-1.735 7.6,-0.723zm21.85,10.01l9.16,4.195c2.21,1.013 2.4,2.98 0.42,4.392l-8.21,5.849c-1.98,1.412 -5.38,1.736 -7.59,0.723l-9.16,-4.195c-2.21,-1.013 -2.4,-2.98 -0.42,-4.392l8.21,-5.849c1.98,-1.412 5.38,-1.736 7.59,-0.723zm21.85,10.009l9.17,4.196c2.21,1.012 2.39,2.98 0.41,4.392l-8.2,5.849c-1.98,1.412 -5.38,1.736 -7.59,0.723l-9.17,-4.196c-2.21,-1.012 -2.4,-2.979 -0.41,-4.391l8.2,-5.85c1.98,-1.411 5.38,-1.735 7.59,-0.723z"/>
   </mask>
   <g id="svg_22" mask="url(#mask0_702_7488)">
    <path id="svg_23" fill="#7FC1E7" d="m809.264,288.191l-14.72,9.585l3.935,-0.375l10.981,-7.149l-0.196,-2.061z"/>
    <path id="svg_24" fill="#7FC1E7" d="m809.067,286.132l-18.459,12.019l3.935,-0.375l14.72,-9.585l-0.196,-2.059z"/>
    <path id="svg_25" fill="#7FC1E7" d="m809.066,286.123l-0.999,-1.529l-21.397,13.932l3.937,-0.375l18.46,-12.019l-0.001,-0.009z"/>
    <path id="svg_26" fill="#7FC1E7" d="m808.068,284.594l-1.003,-1.534l-24.33,15.841l3.935,-0.375l21.398,-13.932z"/>
    <path id="svg_27" fill="#7FC1E7" d="m807.064,283.06l-1.003,-1.535l-27.264,17.751l3.937,-0.375l24.33,-15.841z"/>
    <path id="svg_28" fill="#7FC1E7" d="m806.061,281.525l-1.005,-1.533l-30.195,19.658l3.936,-0.374l27.264,-17.751z"/>
    <path id="svg_29" fill="#7FC1E7" d="m805.056,279.992l-1.003,-1.536l-33.128,21.569l3.936,-0.375l30.195,-19.658z"/>
    <path id="svg_30" fill="#7FC1E7" d="m804.053,278.456l-1.003,-1.533l-34.213,22.273l0.631,0.968l1.458,-0.139l33.127,-21.569z"/>
    <path id="svg_31" fill="#7FC1E7" d="m802.037,275.414l1.003,1.534l-34.213,22.276l-1.003,-1.534l34.213,-22.276z"/>
    <path id="svg_32" fill="#7FC1E7" d="m801.031,273.888l1.003,1.534l-34.213,22.276l-1.003,-1.534l34.213,-22.276z"/>
    <path id="svg_33" fill="#7FC1E7" d="m800.03,272.346l1.003,1.534l-34.213,22.276l-1.003,-1.534l34.213,-22.276z"/>
    <path id="svg_34" fill="#7FC1E7" d="m799.027,270.81l1.003,1.534l-34.213,22.277l-1.003,-1.534l34.213,-22.277z"/>
    <path id="svg_35" fill="#7FC1E7" d="m798.023,269.277l1.003,1.534l-34.213,22.277l-1.003,-1.534l34.213,-22.277z"/>
    <path id="svg_36" fill="#7FC1E7" d="m798.03,269.249l-0.833,-1.276l-0.665,0.064l-33.718,21.952l1.003,1.536l34.213,-22.276z"/>
    <path id="svg_37" fill="#7FC1E7" d="m792.597,268.411l-30.787,20.044l1.004,1.534l33.718,-21.952l-3.935,0.374z"/>
    <path id="svg_38" fill="#7FC1E7" d="m788.659,268.786l-27.853,18.134l1.005,1.535l30.786,-20.044l-3.938,0.375z"/>
    <path id="svg_39" fill="#7FC1E7" d="m784.723,269.161l-24.92,16.226l1.003,1.533l27.853,-18.134l-3.936,0.375z"/>
    <path id="svg_40" fill="#7FC1E7" d="m780.786,269.536l-21.986,14.315l1.003,1.536l24.921,-16.226l-3.938,0.375z"/>
    <path id="svg_41" fill="#7FC1E7" d="m776.85,269.911l-19.055,12.407l1.005,1.533l21.986,-14.315l-3.936,0.375z"/>
    <path id="svg_42" fill="#7FC1E7" d="m772.915,270.286l-15.475,10.075l0.157,1.654l0.198,0.303l19.056,-12.407l-3.936,0.375z"/>
    <path id="svg_43" fill="#7FC1E7" d="m768.978,270.661l-11.734,7.639l0.196,2.061l15.475,-10.075l-3.937,0.375z"/>
    <path id="svg_44" fill="#7FC1E7" d="m765.042,271.036l-7.994,5.205l0.196,2.059l11.734,-7.639l-3.936,0.375z"/>
    <path id="svg_45" fill="#7FC1E7" d="m757.047,276.241l7.994,-5.205l-8.413,0.801l0.419,4.404z"/>
    <path id="svg_46" fill="#7FC1E7" d="m863.408,287.947l-16.668,10.853l3.935,-0.375l12.929,-8.417l-0.196,-2.061z"/>
    <path id="svg_47" fill="#7FC1E7" d="m863.313,286.951l-0.519,-0.793l-19.991,13.016l3.936,-0.374l16.669,-10.853l-0.095,-0.996z"/>
    <path id="svg_48" fill="#7FC1E7" d="m862.794,286.158l-1.003,-1.534l-22.925,14.925l3.937,-0.375l19.991,-13.016z"/>
    <path id="svg_49" fill="#7FC1E7" d="m861.792,284.625l-1.004,-1.536l-23.087,15.032l0.948,1.449l0.217,-0.021l22.926,-14.924z"/>
    <path id="svg_50" fill="#7FC1E7" d="m859.778,281.581l1.003,1.534l-23.086,15.032l-1.003,-1.534l23.086,-15.032z"/>
    <path id="svg_51" fill="#7FC1E7" d="m859.783,281.556l-0.623,-0.955l-1.487,0.142l-21.98,14.309l1.004,1.533l23.086,-15.029z"/>
    <path id="svg_52" fill="#7FC1E7" d="m853.737,281.118l-19.047,12.398l1.003,1.536l21.98,-14.309l-3.936,0.375z"/>
    <path id="svg_53" fill="#7FC1E7" d="m849.8,281.493l-15.463,10.067l0.158,1.66l0.195,0.296l19.047,-12.398l-3.937,0.375z"/>
    <path id="svg_54" fill="#7FC1E7" d="m845.864,281.867l-11.724,7.632l0.197,2.061l15.463,-10.068l-3.936,0.375z"/>
    <path id="svg_55" fill="#7FC1E7" d="m841.927,282.242l-7.983,5.197l0.197,2.06l11.723,-7.632l-3.937,0.375z"/>
    <path id="svg_56" fill="#7FC1E7" d="m837.991,282.617l-4.243,2.761l0.196,2.061l7.983,-5.197l-3.936,0.375z"/>
    <path id="svg_57" fill="#7FC1E7" d="m834.055,282.992l-0.504,0.327l0.196,2.059l4.243,-2.761l-3.935,0.375z"/>
    <path id="svg_58" fill="#7FC1E7" d="m833.552,283.319l0.503,-0.327l-0.53,0.05l0.027,0.277z"/>
    <path id="svg_59" fill="#7FC1E7" d="m842.354,286.34l-1.414,0.921l1.489,-0.142l-0.075,-0.779z"/>
    <path id="svg_60" fill="#7FC1E7" d="m842.158,284.28l-5.156,3.356l3.938,-0.375l1.414,-0.921l-0.196,-2.06z"/>
    <path id="svg_61" fill="#7FC1E7" d="m841.962,282.219l-8.896,5.792l3.936,-0.375l5.156,-3.356l-0.196,-2.061z"/>
    <path id="svg_62" fill="#7FC1E7" d="m841.766,280.16l-12.636,8.226l3.936,-0.375l8.896,-5.792l-0.196,-2.059z"/>
    <path id="svg_63" fill="#7FC1E7" d="m841.569,278.099l-16.376,10.662l3.937,-0.375l12.636,-8.226l-0.197,-2.061z"/>
    <path id="svg_64" fill="#7FC1E7" d="m841.459,276.942l-0.441,-0.672l-19.761,12.866l3.936,-0.375l16.376,-10.662l-0.11,-1.157z"/>
    <path id="svg_65" fill="#7FC1E7" d="m841.019,276.27l-1.003,-1.535l-22.696,14.776l3.938,-0.375l19.761,-12.866z"/>
    <path id="svg_66" fill="#7FC1E7" d="m840.015,274.735l-1.003,-1.534l-23.088,15.03l0.869,1.33l0.526,-0.05l22.696,-14.776z"/>
    <path id="svg_67" fill="#7FC1E7" d="m838.001,271.691l1.004,1.534l-23.086,15.032l-1.004,-1.534l23.086,-15.032z"/>
    <path id="svg_68" fill="#7FC1E7" d="m838.007,271.666l-0.703,-1.076l-1.178,0.112l-22.209,14.46l1.005,1.535l23.085,-15.031z"/>
    <path id="svg_69" fill="#7FC1E7" d="m832.19,271.077l-19.277,12.551l1.003,1.534l22.21,-14.46l-3.936,0.375z"/>
    <path id="svg_70" fill="#7FC1E7" d="m828.253,271.452l-15.755,10.258l0.143,1.499l0.273,0.419l19.276,-12.551l-3.937,0.375z"/>
    <path id="svg_71" fill="#7FC1E7" d="m824.317,271.827l-12.015,7.823l0.196,2.06l15.755,-10.258l-3.936,0.375z"/>
    <path id="svg_72" fill="#7FC1E7" d="m820.382,272.202l-8.276,5.387l0.196,2.061l12.015,-7.823l-3.935,0.375z"/>
    <path id="svg_73" fill="#7FC1E7" d="m816.444,272.576l-4.534,2.954l0.196,2.059l8.276,-5.387l-3.938,0.374z"/>
    <path id="svg_74" fill="#7FC1E7" d="m812.509,272.951l-0.796,0.518l0.197,2.061l4.534,-2.954l-3.935,0.375z"/>
    <path id="svg_75" fill="#7FC1E7" d="m811.713,273.469l0.795,-0.518l-0.837,0.08l0.042,0.438z"/>
    <path id="svg_76" fill="#7FC1E7" d="m820.514,276.492l-1.121,0.729l1.179,-0.113l-0.058,-0.616z"/>
    <path id="svg_77" fill="#7FC1E7" d="m820.317,274.43l-4.862,3.166l3.938,-0.375l1.121,-0.729l-0.197,-2.062z"/>
    <path id="svg_78" fill="#7FC1E7" d="m820.121,272.371l-8.602,5.599l3.936,-0.374l4.862,-3.166l-0.196,-2.059z"/>
    <path id="svg_79" fill="#7FC1E7" d="m819.925,270.31l-12.342,8.035l3.936,-0.375l8.602,-5.599l-0.196,-2.061z"/>
    <path id="svg_80" fill="#7FC1E7" d="m819.729,268.251l-16.082,10.469l3.937,-0.375l12.342,-8.035l-0.197,-2.059z"/>
    <path id="svg_81" fill="#7FC1E7" d="m819.603,266.932l-0.361,-0.552l-19.532,12.715l3.936,-0.375l16.083,-10.469l-0.126,-1.319z"/>
    <path id="svg_82" fill="#7FC1E7" d="m819.243,266.38l-1.003,-1.535l-22.467,14.625l3.938,-0.375l19.532,-12.715z"/>
    <path id="svg_83" fill="#7FC1E7" d="m818.24,264.845l-1.003,-1.534l-25.399,16.534l3.935,-0.375l22.467,-14.625z"/>
    <path id="svg_84" fill="#7FC1E7" d="m817.236,263.311l-1.005,-1.535l-28.33,18.444l3.936,-0.375l25.399,-16.534z"/>
    <path id="svg_85" fill="#7FC1E7" d="m816.231,261.776l-1.003,-1.534l-29.316,19.085l0.667,1.019l1.322,-0.126l28.33,-18.444z"/>
    <path id="svg_86" fill="#7FC1E7" d="m814.214,258.735l1.004,1.534l-29.314,19.087l-1.004,-1.534l29.314,-19.087z"/>
    <path id="svg_87" fill="#7FC1E7" d="m813.21,257.204l1.004,1.534l-29.314,19.087l-1.004,-1.534l29.314,-19.087z"/>
    <path id="svg_88" fill="#7FC1E7" d="m812.209,255.663l1.003,1.534l-29.314,19.087l-1.004,-1.534l29.315,-19.087z"/>
    <path id="svg_89" fill="#7FC1E7" d="m811.203,254.133l1.003,1.533l-29.314,19.087l-1.004,-1.534l29.315,-19.086z"/>
    <path id="svg_90" fill="#7FC1E7" d="m811.213,254.104l-0.084,-0.128l-3.61,0.344l-26.625,17.334l1.003,1.535l29.316,-19.085z"/>
    <path id="svg_91" fill="#7FC1E7" d="m803.582,254.695l-23.69,15.425l1.003,1.534l26.625,-17.334l-3.938,0.375z"/>
    <path id="svg_92" fill="#7FC1E7" d="m799.646,255.07l-20.759,13.515l1.005,1.535l23.69,-15.425l-3.936,0.375z"/>
    <path id="svg_93" fill="#7FC1E7" d="m795.71,255.445l-17.648,11.489l0.044,0.458l0.78,1.193l20.76,-13.515l-3.936,0.375z"/>
    <path id="svg_94" fill="#7FC1E7" d="m791.772,255.82l-13.906,9.055l0.196,2.059l17.648,-11.489l-3.938,0.375z"/>
    <path id="svg_95" fill="#7FC1E7" d="m787.837,256.195l-10.167,6.619l0.196,2.061l13.906,-9.055l-3.935,0.375z"/>
    <path id="svg_96" fill="#7FC1E7" d="m777.67,262.814l10.167,-6.619l-10.7,1.019l0.533,5.6z"/>
    <path id="svg_97" fill="#7FC1E7" d="m915.938,288.755l-15.218,9.908l3.936,-0.375l11.479,-7.472l-0.197,-2.061z"/>
    <path id="svg_98" fill="#7FC1E7" d="m915.767,286.959l-0.13,-0.196l-18.853,12.274l3.936,-0.374l15.218,-9.908l-0.171,-1.796z"/>
    <path id="svg_99" fill="#7FC1E7" d="m915.637,286.763l-1.003,-1.536l-21.787,14.185l3.937,-0.375l18.853,-12.274z"/>
    <path id="svg_100" fill="#7FC1E7" d="m914.634,285.227l-1.003,-1.534l-23.087,15.03l0.558,0.856l1.745,-0.167l21.787,-14.185z"/>
    <path id="svg_101" fill="#7FC1E7" d="m912.621,282.184l1.003,1.534l-23.086,15.031l-1.004,-1.534l23.087,-15.031z"/>
    <path id="svg_102" fill="#7FC1E7" d="m911.618,280.659l1.003,1.534l-23.086,15.031l-1.004,-1.533l23.087,-15.032z"/>
    <path id="svg_103" fill="#7FC1E7" d="m911.623,280.625l-0.011,-0.015l-3.895,0.37l-20.185,13.141l1.005,1.533l23.086,-15.029z"/>
    <path id="svg_104" fill="#7FC1E7" d="m903.78,281.355l-16.913,11.012l0.082,0.86l0.583,0.894l20.186,-13.141l-3.938,0.375z"/>
    <path id="svg_105" fill="#7FC1E7" d="m899.845,281.73l-13.174,8.576l0.196,2.061l16.913,-11.012l-3.935,0.375z"/>
    <path id="svg_106" fill="#7FC1E7" d="m895.907,282.105l-9.432,6.142l0.196,2.059l13.174,-8.576l-3.938,0.375z"/>
    <path id="svg_107" fill="#7FC1E7" d="m891.972,282.48l-5.693,3.706l0.196,2.061l9.432,-6.142l-3.935,0.375z"/>
    <path id="svg_108" fill="#7FC1E7" d="m888.035,282.855l-1.953,1.271l0.196,2.06l5.693,-3.706l-3.936,0.375z"/>
    <path id="svg_109" fill="#7FC1E7" d="m886.082,284.126l1.953,-1.271l-2.056,0.196l0.103,1.075z"/>
    <path id="svg_110" fill="#7FC1E7" d="m894.687,285.086l-3.705,2.413l3.899,-0.371l-0.194,-2.042z"/>
    <path id="svg_111" fill="#7FC1E7" d="m894.49,283.027l-7.443,4.847l3.935,-0.375l3.704,-2.413l-0.196,-2.059z"/>
    <path id="svg_112" fill="#7FC1E7" d="m894.294,280.966l-11.183,7.283l3.936,-0.375l7.443,-4.847l-0.196,-2.061z"/>
    <path id="svg_113" fill="#7FC1E7" d="m894.098,278.907l-14.925,9.717l3.938,-0.375l11.183,-7.283l-0.196,-2.059z"/>
    <path id="svg_114" fill="#7FC1E7" d="m893.911,276.95l-0.05,-0.077l-18.624,12.126l3.936,-0.375l14.924,-9.717l-0.186,-1.957z"/>
    <path id="svg_115" fill="#7FC1E7" d="m893.861,276.873l-1.003,-1.534l-21.558,14.035l3.937,-0.375l18.624,-12.126z"/>
    <path id="svg_116" fill="#7FC1E7" d="m892.858,275.339l-1.003,-1.535l-23.088,15.031l0.481,0.734l2.052,-0.195l21.558,-14.035z"/>
    <path id="svg_117" fill="#7FC1E7" d="m890.843,272.299l1.004,1.534l-23.087,15.032l-1.003,-1.534l23.086,-15.032z"/>
    <path id="svg_118" fill="#7FC1E7" d="m889.842,270.76l1.004,1.534l-23.087,15.031l-1.003,-1.533l23.086,-15.032z"/>
    <path id="svg_119" fill="#7FC1E7" d="m889.847,270.735l-0.089,-0.137l-3.587,0.342l-20.415,13.291l1.005,1.535l23.086,-15.031z"/>
    <path id="svg_120" fill="#7FC1E7" d="m882.233,271.315l-17.207,11.202l0.067,0.7l0.663,1.014l20.415,-13.291l-3.938,0.375z"/>
    <path id="svg_121" fill="#7FC1E7" d="m878.298,271.69l-13.468,8.768l0.196,2.059l17.207,-11.202l-3.935,0.375z"/>
    <path id="svg_122" fill="#7FC1E7" d="m874.362,272.065l-9.728,6.332l0.196,2.061l13.468,-8.768l-3.936,0.375z"/>
    <path id="svg_123" fill="#7FC1E7" d="m870.425,272.439l-5.987,3.899l0.196,2.059l9.728,-6.332l-3.937,0.374z"/>
    <path id="svg_124" fill="#7FC1E7" d="m866.489,272.814l-2.247,1.463l0.196,2.061l5.987,-3.899l-3.936,0.375z"/>
    <path id="svg_125" fill="#7FC1E7" d="m864.241,274.277l2.247,-1.463l-2.365,0.226l0.118,1.237z"/>
    <path id="svg_126" fill="#7FC1E7" d="m872.848,275.238l-3.412,2.221l3.591,-0.342l-0.179,-1.879z"/>
    <path id="svg_127" fill="#7FC1E7" d="m872.651,273.179l-7.151,4.654l3.935,-0.374l3.412,-2.221l-0.196,-2.059z"/>
    <path id="svg_128" fill="#7FC1E7" d="m872.455,271.118l-10.891,7.09l3.936,-0.375l7.151,-4.654l-0.196,-2.061z"/>
    <path id="svg_129" fill="#7FC1E7" d="m872.26,269.058l-14.633,9.525l3.938,-0.375l10.891,-7.09l-0.196,-2.06z"/>
    <path id="svg_130" fill="#7FC1E7" d="m872.063,266.997l-18.372,11.961l3.936,-0.375l14.633,-9.525l-0.197,-2.061z"/>
    <path id="svg_131" fill="#7FC1E7" d="m872.058,266.941l-0.976,-1.492l-21.328,13.884l3.937,-0.375l18.372,-11.961l-0.005,-0.056z"/>
    <path id="svg_132" fill="#7FC1E7" d="m871.082,265.449l-1.004,-1.535l-23.087,15.031l0.403,0.613l2.359,-0.225l21.329,-13.884z"/>
    <path id="svg_133" fill="#7FC1E7" d="m869.067,262.404l1.003,1.534l-23.086,15.031l-1.003,-1.533l23.086,-15.032z"/>
    <path id="svg_134" fill="#7FC1E7" d="m868.065,260.87l1.003,1.534l-23.086,15.032l-1.003,-1.534l23.086,-15.032z"/>
    <path id="svg_135" fill="#7FC1E7" d="m868.071,260.845l-0.168,-0.256l-3.279,0.312l-20.644,13.44l1.005,1.535l23.086,-15.031z"/>
    <path id="svg_136" fill="#7FC1E7" d="m860.687,261.276l-17.5,11.393l0.052,0.539l0.74,1.133l20.645,-13.44l-3.937,0.375z"/>
    <path id="svg_137" fill="#7FC1E7" d="m856.751,261.651l-13.76,8.959l0.196,2.059l17.5,-11.393l-3.936,0.375z"/>
    <path id="svg_138" fill="#7FC1E7" d="m852.815,262.026l-10.02,6.523l0.196,2.061l13.76,-8.959l-3.936,0.375z"/>
    <path id="svg_139" fill="#7FC1E7" d="m848.878,262.401l-6.279,4.088l0.196,2.06l10.02,-6.523l-3.937,0.375z"/>
    <path id="svg_140" fill="#7FC1E7" d="m844.942,262.776l-2.539,1.652l0.196,2.061l6.279,-4.088l-3.936,0.375z"/>
    <path id="svg_141" fill="#7FC1E7" d="m842.403,264.428l2.539,-1.652l-2.672,0.254l0.133,1.398z"/>
    <path id="svg_142" fill="#7FC1E7" d="m851.008,265.39l-3.118,2.03l3.281,-0.313l-0.163,-1.717z"/>
    <path id="svg_143" fill="#7FC1E7" d="m850.812,263.329l-6.858,4.466l3.935,-0.375l3.119,-2.03l-0.196,-2.061z"/>
    <path id="svg_144" fill="#7FC1E7" d="m850.615,261.27l-10.597,6.899l3.936,-0.374l6.857,-4.466l-0.196,-2.059z"/>
    <path id="svg_145" fill="#7FC1E7" d="m850.419,259.208l-14.339,9.336l3.938,-0.375l10.597,-6.899l-0.196,-2.062z"/>
    <path id="svg_146" fill="#7FC1E7" d="m850.223,257.149l-18.079,11.77l3.936,-0.375l14.339,-9.336l-0.196,-2.059z"/>
    <path id="svg_147" fill="#7FC1E7" d="m850.202,256.929l-0.896,-1.37l-21.097,13.735l3.936,-0.375l18.078,-11.77l-0.021,-0.22z"/>
    <path id="svg_148" fill="#7FC1E7" d="m849.305,255.559l-1.003,-1.535l-23.087,15.031l0.323,0.493l2.67,-0.254l21.097,-13.735z"/>
    <path id="svg_149" fill="#7FC1E7" d="m847.29,252.518l1.003,1.534l-23.086,15.031l-1.004,-1.534l23.087,-15.031z"/>
    <path id="svg_150" fill="#7FC1E7" d="m846.286,250.986l1.003,1.534l-23.086,15.031l-1.004,-1.533l23.087,-15.032z"/>
    <path id="svg_151" fill="#7FC1E7" d="m846.294,250.955l-0.245,-0.376l-2.971,0.283l-20.874,13.589l1.005,1.535l23.085,-15.031z"/>
    <path id="svg_152" fill="#7FC1E7" d="m839.141,251.237l-17.792,11.584l0.036,0.376l0.819,1.254l20.874,-13.589l-3.937,0.375z"/>
    <path id="svg_153" fill="#7FC1E7" d="m835.205,251.612l-14.052,9.148l0.196,2.061l17.792,-11.584l-3.936,0.375z"/>
    <path id="svg_154" fill="#7FC1E7" d="m831.269,251.987l-10.312,6.713l0.196,2.06l14.052,-9.148l-3.936,0.375z"/>
    <path id="svg_155" fill="#7FC1E7" d="m827.331,252.362l-6.571,4.277l0.196,2.061l10.313,-6.713l-3.938,0.375z"/>
    <path id="svg_156" fill="#7FC1E7" d="m823.395,252.737l-2.831,1.843l0.196,2.059l6.571,-4.277l-3.936,0.375z"/>
    <path id="svg_157" fill="#7FC1E7" d="m820.564,254.58l2.832,-1.843l-2.98,0.283l0.148,1.56z"/>
    <path id="svg_158" fill="#7FC1E7" d="m829.169,255.542l-2.826,1.839l2.974,-0.283l-0.148,-1.556z"/>
    <path id="svg_159" fill="#7FC1E7" d="m828.973,253.481l-6.566,4.275l3.936,-0.375l2.826,-1.839l-0.196,-2.061z"/>
    <path id="svg_160" fill="#7FC1E7" d="m828.776,251.421l-10.305,6.71l3.936,-0.375l6.565,-4.275l-0.196,-2.06z"/>
    <path id="svg_161" fill="#7FC1E7" d="m828.58,249.36l-14.047,9.146l3.938,-0.375l10.305,-6.71l-0.196,-2.061z"/>
    <path id="svg_162" fill="#7FC1E7" d="m828.384,247.301l-17.786,11.579l3.935,-0.374l14.047,-9.146l-0.196,-2.059z"/>
    <path id="svg_163" fill="#7FC1E7" d="m828.348,246.92l-0.818,-1.251l-20.868,13.586l3.936,-0.375l17.786,-11.579l-0.036,-0.381z"/>
    <path id="svg_164" fill="#7FC1E7" d="m827.53,245.669l-1.003,-1.535l-23.088,15.031l0.246,0.374l2.978,-0.284l20.867,-13.586z"/>
    <path id="svg_165" fill="#7FC1E7" d="m825.511,242.633l1.004,1.534l-23.087,15.032l-1.003,-1.534l23.086,-15.032z"/>
    <path id="svg_166" fill="#7FC1E7" d="m824.511,241.09l1.004,1.534l-23.087,15.032l-1.003,-1.534l23.086,-15.032z"/>
    <path id="svg_167" fill="#7FC1E7" d="m824.519,241.065l-0.326,-0.497l-2.661,0.254l-21.104,13.739l1.005,1.535l23.086,-15.031z"/>
    <path id="svg_168" fill="#7FC1E7" d="m817.594,241.197l-18.085,11.774l0.02,0.216l0.899,1.374l21.103,-13.739l-3.937,0.375z"/>
    <path id="svg_169" fill="#7FC1E7" d="m813.658,241.572l-14.345,9.34l0.196,2.059l18.085,-11.774l-3.936,0.375z"/>
    <path id="svg_170" fill="#7FC1E7" d="m809.722,241.946l-10.605,6.906l0.196,2.06l14.345,-9.34l-3.936,0.374z"/>
    <path id="svg_171" fill="#7FC1E7" d="m799.117,248.852l10.606,-6.906l-11.163,1.063l0.557,5.843z"/>
    <path id="svg_172" fill="#7FC1E7" d="m867.986,249.96l-2.644,1.722l2.783,-0.265l-0.139,-1.457z"/>
    <path id="svg_173" fill="#7FC1E7" d="m867.79,247.901l-6.385,4.156l3.937,-0.375l2.644,-1.722l-0.196,-2.059z"/>
    <path id="svg_174" fill="#7FC1E7" d="m867.594,245.84l-10.125,6.592l3.936,-0.375l6.385,-4.156l-0.196,-2.061z"/>
    <path id="svg_175" fill="#7FC1E7" d="m867.397,243.78l-13.864,9.027l3.936,-0.375l10.125,-6.592l-0.197,-2.06z"/>
    <path id="svg_176" fill="#7FC1E7" d="m867.201,241.719l-17.605,11.463l3.937,-0.375l13.864,-9.027l-0.196,-2.061z"/>
    <path id="svg_177" fill="#7FC1E7" d="m867.155,241.239l-0.77,-1.177l-20.725,13.494l3.935,-0.374l17.606,-11.463l-0.046,-0.48z"/>
    <path id="svg_178" fill="#7FC1E7" d="m866.385,240.062l-1.003,-1.533l-23.66,15.402l3.938,-0.375l20.725,-13.494z"/>
    <path id="svg_179" fill="#7FC1E7" d="m865.382,238.529l-1.005,-1.535l-26.59,17.312l3.936,-0.375l23.659,-15.402z"/>
    <path id="svg_180" fill="#7FC1E7" d="m864.377,236.994l-1.003,-1.534l-29.523,19.221l3.936,-0.375l26.59,-17.312z"/>
    <path id="svg_181" fill="#7FC1E7" d="m863.375,235.46l-1.004,-1.535l-32.457,21.131l3.937,-0.375l29.524,-19.221z"/>
    <path id="svg_182" fill="#7FC1E7" d="m862.371,233.925l-1.005,-1.534l-32.76,21.328l0.9,1.376l0.407,-0.039l32.458,-21.131z"/>
    <path id="svg_183" fill="#7FC1E7" d="m860.353,230.886l1.003,1.533l-32.758,21.33l-1.004,-1.534l32.759,-21.329z"/>
    <path id="svg_184" fill="#7FC1E7" d="m859.352,229.346l1.003,1.534l-32.758,21.33l-1.003,-1.534l32.758,-21.33z"/>
    <path id="svg_185" fill="#7FC1E7" d="m858.345,227.814l1.004,1.534l-32.759,21.329l-1.003,-1.534l32.758,-21.329z"/>
    <path id="svg_186" fill="#7FC1E7" d="m857.343,226.282l1.004,1.534l-32.759,21.329l-1.003,-1.534l32.758,-21.329z"/>
    <path id="svg_187" fill="#7FC1E7" d="m856.341,224.744l1.004,1.534l-32.759,21.329l-1.003,-1.534l32.758,-21.329z"/>
    <path id="svg_188" fill="#7FC1E7" d="m856.348,224.718l-0.056,-0.084l-3.717,0.354l-29.99,19.525l1.004,1.533l32.759,-21.328z"/>
    <path id="svg_189" fill="#7FC1E7" d="m848.638,225.363l-27.058,17.614l1.005,1.536l29.989,-19.525l-3.936,0.375z"/>
    <path id="svg_190" fill="#7FC1E7" d="m844.703,225.737l-24.126,15.707l1.003,1.533l27.059,-17.614l-3.936,0.374z"/>
    <path id="svg_191" fill="#7FC1E7" d="m840.766,226.112l-21.192,13.796l1.003,1.536l24.126,-15.707l-3.937,0.375z"/>
    <path id="svg_192" fill="#7FC1E7" d="m836.83,226.487l-18.2,11.848l0.014,0.153l0.93,1.42l21.192,-13.796l-3.936,0.375z"/>
    <path id="svg_193" fill="#7FC1E7" d="m832.893,226.862l-14.459,9.414l0.196,2.059l18.2,-11.848l-3.937,0.375z"/>
    <path id="svg_194" fill="#7FC1E7" d="m818.434,236.276l14.459,-9.414l-15.217,1.449l0.758,7.965z"/>
    <path id="svg_195" fill="#7FC1E7" d="m890.907,261.293l-1.062,0.692l1.118,-0.107l-0.056,-0.585z"/>
    <path id="svg_196" fill="#7FC1E7" d="m890.711,259.232l-4.801,3.128l3.935,-0.375l1.062,-0.692l-0.196,-2.061z"/>
    <path id="svg_197" fill="#7FC1E7" d="m890.515,257.173l-8.543,5.561l3.937,-0.374l4.802,-3.128l-0.196,-2.059z"/>
    <path id="svg_198" fill="#7FC1E7" d="m890.318,255.112l-12.282,7.997l3.936,-0.375l8.543,-5.561l-0.197,-2.061z"/>
    <path id="svg_199" fill="#7FC1E7" d="m890.122,253.053l-16.022,10.431l3.936,-0.375l12.282,-7.997l-0.196,-2.059z"/>
    <path id="svg_200" fill="#7FC1E7" d="m889.993,251.7l-0.346,-0.526l-19.484,12.685l3.937,-0.375l16.022,-10.431l-0.129,-1.353z"/>
    <path id="svg_201" fill="#7FC1E7" d="m889.648,251.174l-1.003,-1.536l-22.417,14.596l3.935,-0.375l19.485,-12.685z"/>
    <path id="svg_202" fill="#7FC1E7" d="m888.644,249.638l-1.003,-1.533l-23.088,15.029l0.775,1.186l0.899,-0.086l22.417,-14.596z"/>
    <path id="svg_203" fill="#7FC1E7" d="m886.63,246.593l1.004,1.534l-23.087,15.032l-1.003,-1.534l23.086,-15.032z"/>
    <path id="svg_204" fill="#7FC1E7" d="m886.636,246.569l-0.797,-1.22l-0.807,0.077l-22.485,14.639l1.003,1.536l23.086,-15.032z"/>
    <path id="svg_205" fill="#7FC1E7" d="m881.096,245.8l-19.553,12.732l1.005,1.533l22.484,-14.639l-3.936,0.374z"/>
    <path id="svg_206" fill="#7FC1E7" d="m877.161,246.175l-16.11,10.488l0.124,1.305l0.368,0.564l19.554,-12.732l-3.936,0.375z"/>
    <path id="svg_207" fill="#7FC1E7" d="m873.223,246.55l-12.369,8.054l0.196,2.059l16.11,-10.488l-3.937,0.375z"/>
    <path id="svg_208" fill="#7FC1E7" d="m869.287,246.925l-8.629,5.618l0.196,2.061l12.369,-8.054l-3.936,0.375z"/>
    <path id="svg_209" fill="#7FC1E7" d="m865.351,247.3l-4.889,3.184l0.196,2.059l8.629,-5.618l-3.936,0.375z"/>
    <path id="svg_210" fill="#7FC1E7" d="m861.414,247.675l-1.148,0.747l0.196,2.062l4.89,-3.184l-3.938,0.375z"/>
    <path id="svg_211" fill="#7FC1E7" d="m860.266,248.422l1.148,-0.747l-1.208,0.115l0.06,0.632z"/>
    <path id="svg_212" fill="#7FC1E7" d="m912.746,271.142l-1.354,0.881l1.425,-0.135l-0.071,-0.746z"/>
    <path id="svg_213" fill="#7FC1E7" d="m912.55,269.082l-5.094,3.316l3.936,-0.375l1.354,-0.881l-0.196,-2.06z"/>
    <path id="svg_214" fill="#7FC1E7" d="m912.354,267.021l-8.835,5.752l3.937,-0.375l5.094,-3.316l-0.196,-2.061z"/>
    <path id="svg_215" fill="#7FC1E7" d="m912.157,264.962l-12.574,8.186l3.935,-0.375l8.835,-5.752l-0.196,-2.059z"/>
    <path id="svg_216" fill="#7FC1E7" d="m911.961,262.901l-16.314,10.622l3.936,-0.375l12.574,-8.186l-0.196,-2.061z"/>
    <path id="svg_217" fill="#7FC1E7" d="m911.848,261.71l-0.424,-0.647l-19.714,12.835l3.938,-0.375l16.313,-10.622l-0.113,-1.191z"/>
    <path id="svg_218" fill="#7FC1E7" d="m911.423,261.063l-1.003,-1.535l-22.647,14.745l3.936,-0.375l19.714,-12.835z"/>
    <path id="svg_219" fill="#7FC1E7" d="m910.42,259.528l-1.003,-1.534l-23.087,15.03l0.854,1.305l0.59,-0.056l22.646,-14.745z"/>
    <path id="svg_220" fill="#7FC1E7" d="m908.409,256.483l1.003,1.534l-23.086,15.032l-1.004,-1.534l23.087,-15.032z"/>
    <path id="svg_221" fill="#7FC1E7" d="m908.413,256.459l-0.72,-1.099l-1.114,0.106l-22.255,14.489l1.003,1.536l23.086,-15.032z"/>
    <path id="svg_222" fill="#7FC1E7" d="m902.643,255.841l-19.324,12.581l1.005,1.533l22.255,-14.489l-3.936,0.375z"/>
    <path id="svg_223" fill="#7FC1E7" d="m898.707,256.216l-15.818,10.296l0.14,1.465l0.289,0.445l19.325,-12.581l-3.936,0.375z"/>
    <path id="svg_224" fill="#7FC1E7" d="m894.769,256.591l-12.076,7.861l0.196,2.06l15.818,-10.296l-3.938,0.375z"/>
    <path id="svg_225" fill="#7FC1E7" d="m890.834,256.966l-8.337,5.427l0.196,2.059l12.077,-7.861l-3.936,0.375z"/>
    <path id="svg_226" fill="#7FC1E7" d="m886.896,257.341l-4.595,2.991l0.196,2.061l8.337,-5.427l-3.938,0.375z"/>
    <path id="svg_227" fill="#7FC1E7" d="m882.961,257.715l-0.856,0.558l0.196,2.059l4.595,-2.991l-3.935,0.374z"/>
    <path id="svg_228" fill="#7FC1E7" d="m882.105,258.273l0.856,-0.558l-0.901,0.086l0.045,0.472z"/>
    <path id="svg_229" fill="#7FC1E7" d="m934.584,280.99l-1.646,1.072l1.732,-0.165l-0.086,-0.907z"/>
    <path id="svg_230" fill="#7FC1E7" d="m934.389,278.931l-5.386,3.506l3.936,-0.375l1.646,-1.072l-0.196,-2.059z"/>
    <path id="svg_231" fill="#7FC1E7" d="m934.192,276.869l-9.127,5.943l3.938,-0.375l5.386,-3.506l-0.197,-2.062z"/>
    <path id="svg_232" fill="#7FC1E7" d="m933.996,274.81l-12.866,8.377l3.935,-0.375l9.127,-5.943l-0.196,-2.059z"/>
    <path id="svg_233" fill="#7FC1E7" d="m933.8,272.749l-16.608,10.813l3.938,-0.375l12.866,-8.377l-0.196,-2.061z"/>
    <path id="svg_234" fill="#7FC1E7" d="m933.702,271.719l-0.502,-0.767l-19.943,12.985l3.935,-0.375l16.608,-10.813l-0.098,-1.03z"/>
    <path id="svg_235" fill="#7FC1E7" d="m933.2,270.952l-1.003,-1.534l-22.877,14.893l3.936,-0.374l19.944,-12.985z"/>
    <path id="svg_236" fill="#7FC1E7" d="m932.197,269.418l-1.003,-1.535l-23.088,15.031l0.932,1.424l0.282,-0.027l22.877,-14.893z"/>
    <path id="svg_237" fill="#7FC1E7" d="m930.185,266.378l1.003,1.534l-23.086,15.032l-1.003,-1.534l23.086,-15.032z"/>
    <path id="svg_238" fill="#7FC1E7" d="m930.189,266.349l-0.64,-0.98l-1.423,0.136l-22.028,14.34l1.005,1.534l23.086,-15.03z"/>
    <path id="svg_239" fill="#7FC1E7" d="m924.189,265.88l-19.094,12.43l1.003,1.535l22.027,-14.34l-3.936,0.375z"/>
    <path id="svg_240" fill="#7FC1E7" d="m920.254,266.255l-15.524,10.106l0.155,1.627l0.21,0.322l19.094,-12.43l-3.935,0.375z"/>
    <path id="svg_241" fill="#7FC1E7" d="m916.316,266.63l-11.782,7.67l0.196,2.061l15.524,-10.106l-3.938,0.375z"/>
    <path id="svg_242" fill="#7FC1E7" d="m912.381,267.004l-8.043,5.237l0.196,2.059l11.782,-7.67l-3.935,0.374z"/>
    <path id="svg_243" fill="#7FC1E7" d="m908.443,267.379l-4.301,2.801l0.196,2.061l8.043,-5.237l-3.938,0.375z"/>
    <path id="svg_244" fill="#7FC1E7" d="m904.508,267.754l-0.563,0.367l0.197,2.059l4.301,-2.801l-3.935,0.375z"/>
    <path id="svg_245" fill="#7FC1E7" d="m903.945,268.121l0.562,-0.367l-0.592,0.056l0.03,0.311z"/>
    <path id="svg_246" fill="#7FC1E7" d="m956.229,288.779l-5.68,3.699l3.936,-0.375l1.94,-1.263l-0.196,-2.061z"/>
    <path id="svg_247" fill="#7FC1E7" d="m956.032,286.719l-9.42,6.134l3.937,-0.375l5.679,-3.699l-0.196,-2.06z"/>
    <path id="svg_248" fill="#7FC1E7" d="m955.836,284.658l-13.16,8.569l3.936,-0.374l9.42,-6.134l-0.196,-2.061z"/>
    <path id="svg_249" fill="#7FC1E7" d="m955.64,282.599l-16.902,11.003l3.938,-0.375l13.16,-8.569l-0.196,-2.059z"/>
    <path id="svg_250" fill="#7FC1E7" d="m955.557,281.73l-0.581,-0.888l-20.174,13.135l3.936,-0.375l16.902,-11.003l-0.083,-0.869z"/>
    <path id="svg_251" fill="#7FC1E7" d="m954.976,280.842l-1.003,-1.534l-23.088,15.03l0.009,0.011l3.909,-0.372l20.173,-13.135z"/>
    <path id="svg_252" fill="#7FC1E7" d="m952.966,277.797l1.004,1.534l-23.087,15.032l-1.003,-1.534l23.086,-15.032z"/>
    <path id="svg_253" fill="#7FC1E7" d="m951.962,276.266l1.004,1.534l-23.086,15.032l-1.004,-1.534l23.086,-15.032z"/>
    <path id="svg_254" fill="#7FC1E7" d="m951.965,276.239l-0.562,-0.86l-1.731,0.165l-21.798,14.191l1.005,1.534l23.086,-15.03z"/>
    <path id="svg_255" fill="#7FC1E7" d="m945.736,275.919l-18.865,12.281l1.003,1.535l21.798,-14.191l-3.936,0.375z"/>
    <path id="svg_256" fill="#7FC1E7" d="m941.799,276.294l-15.23,9.916l0.17,1.788l0.132,0.202l18.865,-12.281l-3.937,0.375z"/>
    <path id="svg_257" fill="#7FC1E7" d="m937.863,276.668l-11.49,7.482l0.196,2.06l15.23,-9.916l-3.936,0.374z"/>
    <path id="svg_258" fill="#7FC1E7" d="m933.927,277.043l-7.751,5.046l0.196,2.061l11.49,-7.482l-3.935,0.375z"/>
    <path id="svg_259" fill="#7FC1E7" d="m929.989,277.418l-4.009,2.612l0.196,2.059l7.751,-5.046l-3.938,0.375z"/>
    <path id="svg_260" fill="#7FC1E7" d="m926.053,277.793l-0.27,0.176l0.197,2.061l4.009,-2.612l-3.936,0.375z"/>
    <path id="svg_261" fill="#7FC1E7" d="m925.784,277.969l0.27,-0.176l-0.285,0.027l0.015,0.149z"/>
    <path id="svg_262" fill="#7FC1E7" d="m974.743,287.693l1.003,1.534l-23.086,15.031l-1.004,-1.534l23.087,-15.031z"/>
    <path id="svg_263" fill="#7FC1E7" d="m973.738,286.156l1.003,1.534l-23.086,15.032l-1.003,-1.534l23.086,-15.032z"/>
    <path id="svg_264" fill="#7FC1E7" d="m973.741,286.129l-0.483,-0.741l-2.04,0.195l-21.567,14.042l1.004,1.534l23.086,-15.03z"/>
    <path id="svg_265" fill="#7FC1E7" d="m967.282,285.957l-18.635,12.133l1.003,1.535l21.568,-14.042l-3.936,0.374z"/>
    <path id="svg_266" fill="#7FC1E7" d="m963.345,286.332l-14.938,9.726l0.185,1.949l0.055,0.083l18.635,-12.133l-3.937,0.375z"/>
    <path id="svg_267" fill="#7FC1E7" d="m959.409,286.707l-11.198,7.292l0.196,2.059l14.938,-9.726l-3.936,0.375z"/>
    <path id="svg_268" fill="#7FC1E7" d="m955.473,287.082l-7.458,4.856l0.196,2.061l11.198,-7.292l-3.936,0.375z"/>
    <path id="svg_269" fill="#7FC1E7" d="m951.536,287.457l-3.717,2.421l0.196,2.06l7.459,-4.856l-3.938,0.375z"/>
    <path id="svg_270" fill="#7FC1E7" d="m947.819,289.878l3.717,-2.421l-3.912,0.373l0.195,2.048z"/>
    <path id="svg_271" fill="#7FC1E7" d="m864.934,230.068l-1.349,0.88l1.419,-0.136l-0.07,-0.744z"/>
    <path id="svg_272" fill="#7FC1E7" d="m864.737,228.009l-5.09,3.314l3.938,-0.375l1.348,-0.88l-0.196,-2.059z"/>
    <path id="svg_273" fill="#7FC1E7" d="m864.541,225.948l-8.83,5.749l3.936,-0.374l5.09,-3.314l-0.196,-2.061z"/>
    <path id="svg_274" fill="#7FC1E7" d="m864.396,224.425l-0.263,-0.4l-12.358,8.047l3.936,-0.375l8.83,-5.749l-0.145,-1.523z"/>
    <path id="svg_275" fill="#7FC1E7" d="m864.133,224.025l-1.003,-1.534l-15.292,9.956l3.937,-0.375l12.358,-8.047z"/>
    <path id="svg_276" fill="#7FC1E7" d="m863.13,222.491l-1.005,-1.535l-18.223,11.866l3.936,-0.375l15.292,-9.956z"/>
    <path id="svg_277" fill="#7FC1E7" d="m862.125,220.956l-1.003,-1.534l-19.061,12.409l0.718,1.098l1.123,-0.107l18.223,-11.866z"/>
    <path id="svg_278" fill="#7FC1E7" d="m860.111,217.914l1.003,1.534l-19.06,12.41l-1.004,-1.534l19.061,-12.41z"/>
    <path id="svg_279" fill="#7FC1E7" d="m859.108,216.376l1.003,1.534l-19.06,12.41l-1.004,-1.534l19.061,-12.41z"/>
    <path id="svg_280" fill="#7FC1E7" d="m859.115,216.353l-0.498,-0.762l-1.979,0.188l-17.587,11.45l1.003,1.534l19.061,-12.41z"/>
    <path id="svg_281" fill="#7FC1E7" d="m852.7,216.154l-14.653,9.54l1.004,1.535l17.587,-11.45l-3.938,0.375z"/>
    <path id="svg_282" fill="#7FC1E7" d="m848.764,216.529l-11.72,7.631l1.003,1.534l14.653,-9.54l-3.936,0.375z"/>
    <path id="svg_283" fill="#7FC1E7" d="m836.999,224.093l0.045,0.067l11.72,-7.631l-12.373,1.178l0.608,6.386z"/>
    <path id="svg_284" fill="#7FC1E7" d="m888.188,241.185l-0.467,0.302l0.491,-0.046l-0.024,-0.256z"/>
    <path id="svg_285" fill="#7FC1E7" d="m887.991,239.124l-4.207,2.738l3.937,-0.375l0.466,-0.302l-0.196,-2.061z"/>
    <path id="svg_286" fill="#7FC1E7" d="m887.795,237.065l-7.947,5.172l3.936,-0.375l4.207,-2.738l-0.196,-2.059z"/>
    <path id="svg_287" fill="#7FC1E7" d="m887.603,235.055l-0.025,-0.038l-11.666,7.595l3.936,-0.375l7.947,-5.172l-0.192,-2.01z"/>
    <path id="svg_288" fill="#7FC1E7" d="m887.579,235.017l-1.005,-1.534l-14.599,9.504l3.937,-0.375l11.667,-7.595z"/>
    <path id="svg_289" fill="#7FC1E7" d="m886.574,233.483l-1.003,-1.535l-17.532,11.414l3.936,-0.375l14.599,-9.504z"/>
    <path id="svg_290" fill="#7FC1E7" d="m885.57,231.948l-1.003,-1.534l-19.061,12.409l0.48,0.734l2.053,-0.195l17.531,-11.414z"/>
    <path id="svg_291" fill="#7FC1E7" d="m883.557,228.902l1.004,1.534l-19.061,12.41l-1.003,-1.534l19.06,-12.41z"/>
    <path id="svg_292" fill="#7FC1E7" d="m882.552,227.369l1.004,1.534l-19.061,12.41l-1.003,-1.534l19.06,-12.41z"/>
    <path id="svg_293" fill="#7FC1E7" d="m882.559,227.345l-0.735,-1.126l-1.05,0.1l-18.279,11.902l1.003,1.533l19.061,-12.409z"/>
    <path id="svg_294" fill="#7FC1E7" d="m876.837,226.694l-15.345,9.991l1.003,1.536l18.279,-11.902l-3.937,0.375z"/>
    <path id="svg_295" fill="#7FC1E7" d="m872.901,227.069l-12.414,8.083l1.005,1.533l15.345,-9.991l-3.936,0.375z"/>
    <path id="svg_296" fill="#7FC1E7" d="m868.965,227.443l-8.899,5.794l0.141,1.486l0.279,0.429l12.414,-8.083l-3.935,0.374z"/>
    <path id="svg_297" fill="#7FC1E7" d="m865.027,227.818l-5.157,3.36l0.196,2.059l8.899,-5.794l-3.938,0.375z"/>
    <path id="svg_298" fill="#7FC1E7" d="m861.092,228.193l-1.419,0.924l0.197,2.061l5.157,-3.36l-3.935,0.375z"/>
    <path id="svg_299" fill="#7FC1E7" d="m859.674,229.117l1.418,-0.924l-1.493,0.142l0.075,0.782z"/>
    <path id="svg_300" fill="#7FC1E7" d="m911.243,250.24l-3.322,2.164l3.497,-0.333l-0.175,-1.831z"/>
    <path id="svg_301" fill="#7FC1E7" d="m911.047,248.181l-7.062,4.598l3.935,-0.375l3.323,-2.164l-0.196,-2.059z"/>
    <path id="svg_302" fill="#7FC1E7" d="m910.851,246.12l-10.802,7.033l3.936,-0.374l7.062,-4.598l-0.196,-2.061z"/>
    <path id="svg_303" fill="#7FC1E7" d="m910.809,245.685l-0.791,-1.21l-13.907,9.053l3.938,-0.375l10.801,-7.033l-0.041,-0.435z"/>
    <path id="svg_304" fill="#7FC1E7" d="m910.018,244.475l-1.003,-1.535l-16.839,10.963l3.936,-0.375l13.906,-9.053z"/>
    <path id="svg_305" fill="#7FC1E7" d="m909.015,242.94l-1.003,-1.534l-19.063,12.409l0.244,0.372l2.983,-0.284l16.839,-10.963z"/>
    <path id="svg_306" fill="#7FC1E7" d="m907.001,239.9l1.003,1.534l-19.061,12.411l-1.003,-1.534l19.061,-12.411z"/>
    <path id="svg_307" fill="#7FC1E7" d="m905.997,238.364l1.003,1.534l-19.06,12.41l-1.004,-1.534l19.061,-12.41z"/>
    <path id="svg_308" fill="#7FC1E7" d="m906.004,238.337l-0.974,-1.488l-0.119,0.011l-18.971,12.353l1.003,1.533l19.061,-12.409z"/>
    <path id="svg_309" fill="#7FC1E7" d="m900.974,237.235l-16.039,10.442l1.005,1.536l18.971,-12.353l-3.937,0.375z"/>
    <path id="svg_310" fill="#7FC1E7" d="m897.038,237.61l-13.106,8.534l1.003,1.533l16.039,-10.442l-3.936,0.375z"/>
    <path id="svg_311" fill="#7FC1E7" d="m893.101,237.985l-9.783,6.37l0.095,0.998l0.518,0.791l13.106,-8.534l-3.936,0.375z"/>
    <path id="svg_312" fill="#7FC1E7" d="m889.164,238.36l-6.042,3.934l0.196,2.061l9.784,-6.37l-3.938,0.375z"/>
    <path id="svg_313" fill="#7FC1E7" d="m885.228,238.735l-2.302,1.499l0.196,2.06l6.042,-3.934l-3.936,0.375z"/>
    <path id="svg_314" fill="#7FC1E7" d="m882.926,240.234l2.303,-1.499l-2.424,0.23l0.121,1.269z"/>
    <path id="svg_315" fill="#7FC1E7" d="m934.497,261.357l-2.44,1.588l2.568,-0.244l-0.128,-1.344z"/>
    <path id="svg_316" fill="#7FC1E7" d="m934.301,259.296l-6.179,4.024l3.935,-0.375l2.44,-1.588l-0.196,-2.061z"/>
    <path id="svg_317" fill="#7FC1E7" d="m934.104,257.237l-9.92,6.458l3.938,-0.375l6.179,-4.024l-0.197,-2.059z"/>
    <path id="svg_318" fill="#7FC1E7" d="m934.017,256.314l-0.554,-0.847l-13.215,8.603l3.936,-0.375l9.92,-6.458l-0.087,-0.923z"/>
    <path id="svg_319" fill="#7FC1E7" d="m933.463,255.467l-1.004,-1.536l-16.147,10.514l3.936,-0.375l13.215,-8.603z"/>
    <path id="svg_320" fill="#7FC1E7" d="m932.459,253.931l-1.004,-1.533l-19.061,12.409l0.006,0.01l3.913,-0.372l16.146,-10.514z"/>
    <path id="svg_321" fill="#7FC1E7" d="m930.447,250.89l1.003,1.534l-19.06,12.41l-1.004,-1.534l19.061,-12.41z"/>
    <path id="svg_322" fill="#7FC1E7" d="m929.443,249.359l1.003,1.534l-19.06,12.41l-1.004,-1.534l19.061,-12.41z"/>
    <path id="svg_323" fill="#7FC1E7" d="m928.439,247.816l1.003,1.534l-19.06,12.411l-1.003,-1.534l19.06,-12.411z"/>
    <path id="svg_324" fill="#7FC1E7" d="m928.443,247.794l-0.206,-0.315l-3.127,0.298l-16.731,10.892l1.003,1.536l19.061,-12.411z"/>
    <path id="svg_325" fill="#7FC1E7" d="m921.175,248.151l-13.799,8.985l1.003,1.533l16.731,-10.892l-3.935,0.374z"/>
    <path id="svg_326" fill="#7FC1E7" d="m917.237,248.526l-10.665,6.944l0.049,0.511l0.755,1.155l13.799,-8.985l-3.938,0.375z"/>
    <path id="svg_327" fill="#7FC1E7" d="m913.302,248.901l-6.926,4.508l0.196,2.061l10.665,-6.944l-3.935,0.375z"/>
    <path id="svg_328" fill="#7FC1E7" d="m909.365,249.276l-3.186,2.074l0.196,2.059l6.926,-4.508l-3.936,0.375z"/>
    <path id="svg_329" fill="#7FC1E7" d="m906.179,251.35l3.186,-2.074l-3.353,0.319l0.167,1.755z"/>
    <path id="svg_330" fill="#7FC1E7" d="m957.751,272.473l-1.557,1.014l1.639,-0.156l-0.082,-0.858z"/>
    <path id="svg_331" fill="#7FC1E7" d="m957.555,270.412l-5.296,3.449l3.935,-0.374l1.557,-1.014l-0.196,-2.061z"/>
    <path id="svg_332" fill="#7FC1E7" d="m957.358,268.352l-9.037,5.884l3.937,-0.375l5.297,-3.449l-0.197,-2.06z"/>
    <path id="svg_333" fill="#7FC1E7" d="m957.224,266.943l-0.317,-0.484l-12.522,8.152l3.936,-0.375l9.038,-5.884l-0.135,-1.409z"/>
    <path id="svg_334" fill="#7FC1E7" d="m956.907,266.459l-1.005,-1.536l-15.453,10.063l3.936,-0.375l12.522,-8.152z"/>
    <path id="svg_335" fill="#7FC1E7" d="m955.902,264.923l-1.003,-1.533l-18.387,11.971l3.937,-0.375l15.453,-10.063z"/>
    <path id="svg_336" fill="#7FC1E7" d="m954.899,263.39l-1.003,-1.536l-19.061,12.411l0.772,1.182l0.905,-0.086l18.387,-11.971z"/>
    <path id="svg_337" fill="#7FC1E7" d="m952.886,260.349l1.004,1.533l-19.061,12.411l-1.003,-1.534l19.06,-12.41z"/>
    <path id="svg_338" fill="#7FC1E7" d="m951.885,258.811l1.004,1.534l-19.061,12.41l-1.003,-1.534l19.06,-12.41z"/>
    <path id="svg_339" fill="#7FC1E7" d="m951.887,258.786l-0.443,-0.677l-2.198,0.209l-17.423,11.343l1.003,1.535l19.061,-12.41z"/>
    <path id="svg_340" fill="#7FC1E7" d="m945.311,258.693l-14.49,9.433l1.003,1.535l17.423,-11.343l-3.936,0.375z"/>
    <path id="svg_341" fill="#7FC1E7" d="m941.374,259.068l-11.548,7.518l0.002,0.025l0.993,1.515l14.491,-9.433l-3.938,0.375z"/>
    <path id="svg_342" fill="#7FC1E7" d="m937.438,259.443l-7.808,5.082l0.196,2.061l11.548,-7.518l-3.936,0.375z"/>
    <path id="svg_343" fill="#7FC1E7" d="m933.502,259.818l-4.069,2.647l0.196,2.06l7.809,-5.082l-3.936,0.375z"/>
    <path id="svg_344" fill="#7FC1E7" d="m929.564,260.192l-0.327,0.212l0.196,2.061l4.069,-2.647l-3.938,0.374z"/>
    <path id="svg_345" fill="#7FC1E7" d="m929.237,260.404l0.327,-0.212l-0.344,0.033l0.017,0.179z"/>
    <path id="svg_346" fill="#7FC1E7" d="m981.005,283.588l-0.674,0.438l0.709,-0.067l-0.035,-0.371z"/>
    <path id="svg_347" fill="#7FC1E7" d="m980.809,281.529l-4.414,2.872l3.936,-0.375l0.674,-0.438l-0.196,-2.059z"/>
    <path id="svg_348" fill="#7FC1E7" d="m980.612,279.468l-8.154,5.308l3.937,-0.375l4.414,-2.872l-0.197,-2.061z"/>
    <path id="svg_349" fill="#7FC1E7" d="m980.431,277.573l-0.081,-0.122l-11.829,7.7l3.936,-0.375l8.155,-5.308l-0.181,-1.895z"/>
    <path id="svg_350" fill="#7FC1E7" d="m980.35,277.451l-1.003,-1.536l-14.761,9.611l3.936,-0.375l11.828,-7.7z"/>
    <path id="svg_351" fill="#7FC1E7" d="m979.347,275.915l-1.003,-1.533l-17.695,11.519l3.937,-0.375l14.761,-9.611z"/>
    <path id="svg_352" fill="#7FC1E7" d="m978.343,274.382l-1.003,-1.536l-19.063,12.409l0.537,0.82l1.834,-0.174l17.695,-11.519z"/>
    <path id="svg_353" fill="#7FC1E7" d="m976.332,271.338l1.003,1.534l-19.06,12.41l-1.004,-1.534l19.061,-12.41z"/>
    <path id="svg_354" fill="#7FC1E7" d="m975.33,269.806l1.003,1.534l-19.06,12.41l-1.004,-1.534l19.061,-12.41z"/>
    <path id="svg_355" fill="#7FC1E7" d="m975.332,269.777l-0.68,-1.04l-1.269,0.121l-18.115,11.795l1.003,1.533l19.061,-12.409z"/>
    <path id="svg_356" fill="#7FC1E7" d="m969.448,269.233l-15.185,9.885l1.005,1.535l18.116,-11.795l-3.936,0.375z"/>
    <path id="svg_357" fill="#7FC1E7" d="m965.511,269.608l-12.25,7.976l1.003,1.534l15.184,-9.885l-3.937,0.375z"/>
    <path id="svg_358" fill="#7FC1E7" d="m961.575,269.982l-8.691,5.66l0.152,1.599l0.225,0.343l12.25,-7.976l-3.936,0.374z"/>
    <path id="svg_359" fill="#7FC1E7" d="m957.638,270.357l-4.951,3.224l0.196,2.061l8.691,-5.66l-3.936,0.375z"/>
    <path id="svg_360" fill="#7FC1E7" d="m953.701,270.732l-1.21,0.79l0.196,2.059l4.952,-3.224l-3.938,0.375z"/>
    <path id="svg_361" fill="#7FC1E7" d="m952.491,271.522l1.21,-0.79l-1.274,0.121l0.064,0.669z"/>
    <path id="svg_362" fill="#7FC1E7" d="m1003.67,288.524l-11.011,7.168l3.936,-0.375l7.275,-4.734l-0.2,-2.059z"/>
    <path id="svg_363" fill="#7FC1E7" d="m1003.64,288.203l-0.85,-1.296l-14.069,9.16l3.937,-0.375l11.012,-7.168l-0.03,-0.321z"/>
    <path id="svg_364" fill="#7FC1E7" d="m1002.79,286.907l-1,-1.534l-17.005,11.069l3.936,-0.375l14.069,-9.16z"/>
    <path id="svg_365" fill="#7FC1E7" d="m1001.79,285.373l-1.01,-1.535l-19.057,12.409l0.3,0.458l2.763,-0.263l17.004,-11.069z"/>
    <path id="svg_366" fill="#7FC1E7" d="m999.78,282.332l1,1.534l-19.057,12.41l-1.004,-1.534l19.061,-12.41z"/>
    <path id="svg_367" fill="#7FC1E7" d="m998.774,280.794l1.003,1.534l-19.06,12.41l-1.003,-1.534l19.06,-12.41z"/>
    <path id="svg_368" fill="#7FC1E7" d="m998.777,280.769l-0.919,-1.402l-0.337,0.032l-18.809,12.246l1.004,1.533l19.061,-12.409z"/>
    <path id="svg_369" fill="#7FC1E7" d="m993.585,279.774l-15.877,10.335l1.003,1.536l18.81,-12.246l-3.936,0.375z"/>
    <path id="svg_370" fill="#7FC1E7" d="m989.647,280.149l-12.942,8.427l1.003,1.533l15.877,-10.335l-3.938,0.375z"/>
    <path id="svg_371" fill="#7FC1E7" d="m985.712,280.524l-9.575,6.234l0.106,1.111l0.462,0.707l12.942,-8.427l-3.935,0.375z"/>
    <path id="svg_372" fill="#7FC1E7" d="m981.773,280.899l-5.833,3.797l0.197,2.062l9.574,-6.234l-3.938,0.375z"/>
    <path id="svg_373" fill="#7FC1E7" d="m977.838,281.274l-2.094,1.363l0.196,2.059l5.833,-3.797l-3.935,0.375z"/>
    <path id="svg_374" fill="#7FC1E7" d="m975.744,282.637l2.094,-1.363l-2.203,0.209l0.109,1.154z"/>
   </g>
   <g id="svg_375">
    <path id="svg_376" fill="#394F94" d="m1015.15,233.609l20.84,-13.076l-37.811,-16.044l-20.84,13.076l37.811,16.044z"/>
    <path id="svg_377" fill="#394F94" d="m1055.31,250.029l20.84,-13.076l-34.81,-14.044l-20.83,13.079l34.8,14.041z"/>
    <path id="svg_378" fill="#394F94" d="m972.763,215.531l20.84,-13.076l-37.81,-16.043l-20.834,13.076l37.804,16.043z"/>
    <path id="svg_379" fill="#394F94" d="m926.468,195.442l20.836,-13.076l-37.807,-16.043l-20.833,13.076l37.804,16.043z"/>
   </g>
   <path id="svg_380" fill="#4C7B53" d="m1013.67,228.245l14.92,-9.367l-0.04,-52.442l-14.93,9.367l0.05,52.442z"/>
   <path id="svg_381" fill="url(#paint3_linear_702_7488)" d="m1013.67,228.245l14.92,-9.367l-0.04,-52.442l-14.93,9.367l0.05,52.442z"/>
   <path id="svg_382" fill="#4970CA" d="m1013.62,175.803l14.93,-9.367l-27.09,-11.494l-14.926,9.367l27.086,11.494z"/>
   <path id="svg_383" fill="#8BB07C" d="m986.533,164.309l0.046,52.441l27.091,11.495l-0.05,-52.442l-27.087,-11.494z"/>
   <path id="svg_384" fill="url(#paint4_linear_702_7488)" d="m986.533,164.309l0.046,52.441l27.091,11.495l-0.05,-52.442l-27.087,-11.494z"/>
   <path id="svg_385" fill="#8A2048" d="m1053.15,244.998l14.93,-9.367l-0.03,-32.375l-14.93,9.367l0.03,32.375z"/>
   <path id="svg_386" fill="url(#paint5_linear_702_7488)" d="m1053.15,244.998l14.93,-9.367l-0.03,-32.375l-14.93,9.367l0.03,32.375z"/>
   <path id="svg_387" fill="#4970CA" d="m1053.12,212.623l14.93,-9.367l-27.09,-11.494l-14.92,9.369l27.08,11.492z"/>
   <path id="svg_388" fill="#E32C86" d="m1026.04,201.131l0.02,32.373l27.09,11.494l-0.03,-32.375l-27.08,-11.492z"/>
   <path id="svg_389" fill="url(#paint6_linear_702_7488)" d="m1026.04,201.131l0.02,32.373l27.09,11.494l-0.03,-32.375l-27.08,-11.492z"/>
   <path id="svg_390" fill="#007596" d="m971.298,210.266l14.928,-9.37l-0.077,-86.958l-14.927,9.369l0.076,86.959z"/>
   <path id="svg_391" fill="url(#paint7_linear_702_7488)" d="m971.298,210.266l14.928,-9.37l-0.077,-86.958l-14.927,9.369l0.076,86.959z"/>
   <path id="svg_392" fill="#4970CA" d="m971.222,123.307l14.927,-9.369l-27.087,-11.495l-14.925,9.37l27.085,11.494z"/>
   <path id="svg_393" fill="#00ADE1" d="m944.137,111.813l0.076,86.959l27.085,11.494l-0.077,-86.959l-27.084,-11.494z"/>
   <path id="svg_394" fill="url(#paint8_linear_702_7488)" d="m944.137,111.813l0.076,86.959l27.085,11.494l-0.077,-86.959l-27.084,-11.494z"/>
   <path id="svg_395" fill="#23398E" d="m924.973,190.607l14.927,-9.367l-0.096,-90.6165l-14.927,9.3697l0.096,90.6138z"/>
   <path id="svg_396" fill="url(#paint9_linear_702_7488)" d="m924.973,190.607l14.927,-9.367l-0.096,-90.6165l-14.927,9.3697l0.096,90.6138z"/>
   <path id="svg_397" fill="#4970CA" d="m924.876,99.9932l14.928,-9.3697l-27.088,-11.4916l-14.924,9.3669l27.084,11.4944z"/>
   <path id="svg_398" fill="#6F6EB1" d="m897.792,88.4988l0.096,90.6142l27.085,11.494l-0.097,-90.6138l-27.084,-11.4944z"/>
   <path id="svg_399" fill="url(#paint10_linear_702_7488)" d="m897.792,88.4988l0.096,90.6142l27.085,11.494l-0.097,-90.6138l-27.084,-11.4944z"/>
   <path id="svg_400" fill="#633763" d="m984.991,120.125l4.222,-2.654l1.16,-6.184l-4.225,2.651l-1.157,6.187z"/>
   <path id="svg_401" fill="#343FC5" d="m990.374,111.287l24.296,36.438l-4.23,2.651l-24.291,-36.438l4.225,-2.651z"/>
   <path id="svg_402" fill="#343FC5" d="m984.991,120.125l4.222,-2.654l-1.726,9.226l-4.222,2.65l1.726,-9.222z"/>
   <path id="svg_403" fill="#343FC5" d="m987.371,107.4l4.225,-2.651l-1.223,6.538l-4.225,2.651l1.223,-6.538z"/>
   <path id="svg_404" fill="#343FC5" d="m987.371,107.4l4.225,-2.651l-13.799,-7.4404l-4.225,2.6508l13.799,7.4406z"/>
   <path id="svg_405" fill="#343FC5" d="m1014.54,164.456l4.23,-2.651l1.8,-20.395l-4.23,2.651l-1.8,20.395z"/>
   <path id="svg_406" fill="#623763" d="m1054.25,200.97l4.23,-2.654l3.57,-2.56l-4.22,2.651l-3.58,2.563z"/>
   <path id="svg_407" fill="#CFDAFF" d="m987.371,107.4l-1.222,6.538l24.291,36.438l1.8,-20.401l45.59,68.432l-3.58,2.563l-37.91,-56.909l-1.8,20.395l-29.549,-44.331l-1.726,9.222l-9.692,-29.3876l13.798,7.4406z"/>
   <path id="svg_408" fill="#343FC5" d="m1057.83,198.407l4.22,-2.651l-45.59,-68.431l-4.22,2.65l45.59,68.432z"/>
  </g>
 </g>
</svg>