<svg width="109" height="40" viewBox="0 0 109 40" fill="none" xmlns="http://www.w3.org/2000/svg">
<g clip-path="url(#clip0_76_33235)">
<path fill-rule="evenodd" clip-rule="evenodd" d="M0.220703 21.4486C0.220703 20.1268 0.220703 18.8622 0.220703 17.5722C5.78413 14.3834 11.3428 11.1974 16.971 7.97217C22.5326 11.1582 28.1082 14.3526 33.7129 17.5633C33.7129 18.8285 33.7129 20.0898 33.7129 21.4531C28.1897 24.6184 22.6139 27.8139 16.9721 31.0474C11.4007 27.8551 5.8054 24.6492 0.220703 21.4486ZM25.1362 24.3242C25.1362 21.0957 25.1362 17.9215 25.1362 14.7271C22.3885 13.1378 19.6561 11.5571 16.934 9.98194C14.1281 11.6092 11.3945 13.1944 8.70054 14.7568C8.70054 17.9808 8.70054 21.1099 8.70054 24.2969C11.4468 25.8871 14.1993 27.4809 16.9408 29.0682C19.6974 27.4729 22.3944 25.9114 25.1362 24.3242Z" fill="white"/>
<path fill-rule="evenodd" clip-rule="evenodd" d="M108.99 17.8025C107.938 17.8025 106.917 17.8025 105.823 17.8025C103.364 14.0645 100.881 10.292 98.3981 6.51959C98.3638 6.53203 98.3301 6.54447 98.2955 6.55692C98.2955 10.2743 98.2955 13.9916 98.2955 17.7658C97.1961 17.7658 96.1404 17.7658 95.043 17.7658C95.043 11.9581 95.043 6.13173 95.043 0.262695C96.0736 0.262695 97.1134 0.262695 98.2111 0.262695C100.624 3.9984 103.053 7.76107 105.483 11.5234C105.544 11.5178 105.605 11.5125 105.665 11.5065C105.671 9.64847 105.667 7.7901 105.668 5.93232C105.669 4.06743 105.668 2.20255 105.668 0.278696C106.78 0.278696 107.861 0.278696 108.99 0.278696C108.99 6.0861 108.99 11.9083 108.99 17.8025Z" fill="white"/>
<path fill-rule="evenodd" clip-rule="evenodd" d="M54.2793 17.7948C56.5453 11.9 58.7761 6.09699 61.0128 0.27832C62.1616 0.27832 63.2852 0.27832 64.5604 0.27832C63.1635 3.87091 61.8062 7.36217 60.4279 10.9071C62.0015 10.9071 63.4959 10.9071 65.0818 10.9071C64.7761 10.1192 64.5005 9.34943 64.1758 8.60129C64.0205 8.24306 64.0261 7.9438 64.172 7.5838C64.681 6.32691 65.1548 5.0561 65.6971 3.6481C67.5454 8.43417 69.3399 13.081 71.1563 17.7859C69.9478 17.7859 68.8153 17.7859 67.6302 17.7859C67.2063 16.622 66.7759 15.4389 66.3408 14.2439C63.9638 14.2439 61.605 14.2439 59.1713 14.2439C58.6957 15.4019 58.2092 16.5856 57.7123 17.7948C56.6002 17.7948 55.4845 17.7948 54.2793 17.7948Z" fill="white"/>
<path fill-rule="evenodd" clip-rule="evenodd" d="M31.7076 24.0466C32.3899 23.6579 33.0466 23.2837 33.7756 22.8691C33.7756 25.0629 33.7756 27.172 33.7756 29.3607C28.2154 32.5814 22.6127 35.8268 16.9787 39.0905C11.3739 35.8446 5.77175 32.5998 0.169922 29.3557C0.169922 27.2117 0.169922 25.1097 0.169922 22.8831C0.868231 23.2721 1.51544 23.6327 2.19868 24.0131C2.19868 25.3714 2.19868 26.7272 2.19868 28.1136C7.12377 30.9669 12.0261 33.8066 16.9766 36.6739C21.8727 33.8389 26.7754 31.0004 31.7076 28.1441C31.7076 26.7808 31.7076 25.4226 31.7076 24.0466Z" fill="white"/>
<path fill-rule="evenodd" clip-rule="evenodd" d="M16.9789 2.50534C12.0361 5.36815 7.13224 8.20786 2.2172 11.0547C2.2172 12.3806 2.2172 13.6686 2.2172 14.9842C1.55108 15.3655 0.902104 15.7367 0.181641 16.1495C0.181641 13.996 0.181641 11.9477 0.181641 9.81853C5.74359 6.59749 11.346 3.35304 16.9786 0.0908203C22.5978 3.34504 28.2014 6.59038 33.8003 9.83245C33.8003 11.9311 33.8003 13.9827 33.8003 16.1489C33.0825 15.7477 32.4294 15.3821 31.7326 14.9922C31.7326 13.6837 31.7326 12.3747 31.7326 11.0499C26.8128 8.20075 21.9282 5.37171 16.9789 2.50534Z" fill="white"/>
<path fill-rule="evenodd" clip-rule="evenodd" d="M51.7969 2.95745C50.9633 3.68308 50.19 4.35597 49.4479 5.0019C49.0326 4.60516 48.6548 4.20545 48.2365 3.85523C47.7609 3.45641 47.1962 3.28367 46.5696 3.37819C46.1189 3.44634 45.749 3.64427 45.5898 4.10145C45.4238 4.57938 45.5485 5.01316 45.9085 5.34441C46.7525 6.12041 47.6156 6.87508 48.474 7.63538C49.0642 8.15775 49.6724 8.66086 50.2487 9.19804C51.5712 10.43 52.2397 11.9355 51.9806 13.761C51.6575 16.0389 50.0813 17.4964 47.7019 17.7865C45.0221 18.113 42.6368 16.6976 41.584 14.1234C42.4536 13.6019 43.3289 13.0766 44.2272 12.5376C44.5562 12.988 44.8428 13.4552 45.2028 13.8552C45.8264 14.5489 46.5779 14.9509 47.5577 14.6908C48.9354 14.3249 49.3753 12.9646 48.3904 11.9281C47.7187 11.2206 46.9454 10.6087 46.2128 9.95923C45.0696 8.9459 43.8641 7.99004 43.0273 6.6816C41.7739 4.72012 42.2371 2.38679 44.1586 1.0739C45.658 0.049009 47.2727 -0.0244713 48.9248 0.66027C50.0777 1.1382 50.9373 2.00308 51.7969 2.95745Z" fill="white"/>
<path fill-rule="evenodd" clip-rule="evenodd" d="M69.1133 0.25C70.3135 0.25 71.4221 0.25 72.575 0.25C74.628 6.04733 76.6756 11.8304 78.7195 17.6029C78.2315 17.8568 76.6907 17.9179 75.3216 17.7632C73.2638 11.959 71.1991 6.13326 69.1133 0.25Z" fill="white"/>
<path fill-rule="evenodd" clip-rule="evenodd" d="M91.3857 17.7949C90.2765 17.7949 89.2353 17.7949 88.1592 17.7949C88.1592 11.9415 88.1592 6.11428 88.1592 0.259766C89.2403 0.259766 90.302 0.259766 91.3857 0.259766C91.3857 6.11162 91.3857 11.9208 91.3857 17.7949Z" fill="white"/>
<path fill-rule="evenodd" clip-rule="evenodd" d="M81.4738 0.25C82.6132 0.25 83.722 0.25 84.9219 0.25C83.2589 4.86689 81.6171 9.4257 79.9239 14.1273C79.339 12.4802 78.7993 10.9768 78.2774 9.46689C78.2283 9.32526 78.2564 9.13178 78.3093 8.98422C79.357 6.07548 80.414 3.17 81.4738 0.25Z" fill="white"/>
<path fill-rule="evenodd" clip-rule="evenodd" d="M13.2656 21.7773C13.2656 20.2641 13.2656 18.8075 13.2656 17.2739C14.4853 16.5673 15.7342 15.844 17.0768 15.0659C17.0768 16.5856 17.0768 18.0194 17.0768 19.5587C18.4084 18.7987 19.6399 18.0955 20.9334 17.3569C20.9334 18.8496 20.9334 20.2689 20.9334 21.7835C19.7164 22.4914 18.4459 23.2301 17.1202 24.0007C15.8586 23.2733 14.584 22.5376 13.2656 21.7773Z" fill="white"/>
<path d="M46.9286 39.1571C44.585 39.1571 42.8029 37.937 41.582 35.4964L44.3044 33.8677C45.1019 35.3696 46.0049 36.1207 47.0143 36.1207C47.5434 36.1207 48.0068 35.9657 48.4056 35.6555C48.7633 35.3204 48.9426 34.9577 48.9426 34.566C48.9426 34.182 48.8162 33.7945 48.5639 33.4022C48.4015 33.2146 48.1655 32.9802 47.8562 32.6988C47.5469 32.417 47.1608 32.0804 46.6968 31.6887C45.81 30.9459 45.0753 30.2908 44.4937 29.7234C43.9115 29.1565 43.4864 28.6724 43.2179 28.2727C42.6484 27.4561 42.3636 26.6567 42.3636 25.873C42.3636 24.6976 42.8029 23.6896 43.6823 22.8484C44.5933 22.0161 45.6753 21.6001 46.9286 21.6001C47.7915 21.6001 48.5926 21.8081 49.3331 22.2241C49.7154 22.4117 50.1106 22.6813 50.5174 23.0318C50.9238 23.3832 51.3557 23.8117 51.8115 24.3177L49.4067 26.4111C48.6006 25.2765 47.7752 24.7097 46.9286 24.7097C46.4566 24.7097 46.1225 24.8117 45.9276 25.0155C45.667 25.2197 45.537 25.4804 45.537 25.7992C45.537 26.0439 45.6147 26.2973 45.7689 26.5586C45.9234 26.7216 46.1943 26.977 46.5807 27.3237C46.967 27.6706 47.4736 28.1174 48.1005 28.6641C48.8327 29.2765 49.3901 29.7622 49.7724 30.121C50.0247 30.3494 50.2116 30.5127 50.3339 30.6108C51.473 31.713 52.0428 32.9776 52.0428 34.406C52.0428 35.8099 51.5752 36.9533 50.6394 37.8345C49.7118 38.716 48.475 39.1571 46.9286 39.1571Z" fill="white"/>
<path d="M64.6147 21.6001V24.8688H57.3648V28.7868H64.6147V31.9696H57.3648V35.8878H64.6147V39.1568H54.1055V21.6001H64.6147Z" fill="white"/>
<path d="M75.8563 39.1568C73.3744 39.1568 71.2954 38.2994 69.6191 36.5853C67.9587 34.8063 67.1289 32.7533 67.1289 30.4274C67.1289 28.7788 67.5191 27.2931 68.3004 25.9705C69.0492 24.6321 70.1074 23.5666 71.4741 22.7755C72.8329 21.9915 74.2937 21.6001 75.8563 21.6001C78.1834 21.6001 80.2012 22.457 81.9101 24.1711C83.6352 25.918 84.498 28.0034 84.498 30.4274C84.498 32.9088 83.6638 34.9859 81.9954 36.6591C80.3111 38.324 78.2643 39.1568 75.8563 39.1568ZM75.8563 36.1204C76.5968 36.1204 77.2819 35.9817 77.9125 35.7041C78.5435 35.4265 79.1272 35.0188 79.6645 34.4798C80.7465 33.4185 81.2877 32.0677 81.2877 30.4274C81.2877 28.8517 80.7465 27.497 79.6645 26.3625C78.6229 25.2685 77.3253 24.7222 75.7706 24.7222C74.2 24.7222 72.9065 25.2685 71.8889 26.3625C70.8473 27.4152 70.3268 28.7705 70.3268 30.4274C70.3268 32.2881 71.0021 33.7696 72.3526 34.8712C73.3703 35.7038 74.5377 36.1204 75.8563 36.1204Z" fill="white"/>
</g>
<defs>
<clipPath id="clip0_76_33235">
<rect width="109" height="40" fill="white"/>
</clipPath>
</defs>
</svg>
