<svg width="328" height="551" xmlns="http://www.w3.org/2000/svg">
 <defs>
  <clipPath id="clip0_234_28260">
   <rect id="svg_1" transform="matrix(-1,0,0,1,323,330) " fill="white" height="221" width="323"/>
  </clipPath>
  <radialGradient gradientTransform="translate(197.347 59.2325) rotate(92.4119) scale(977.513 652.081)" gradientUnits="userSpaceOnUse" r="1" cy="0" cx="0" id="paint0_radial_234_28260">
   <stop stop-color="#001047"/>
   <stop offset="1"/>
  </radialGradient>
  <linearGradient y2="-0.63315" x2="0.314762" y1="0.901661" x1="0.498429" id="paint1_linear_234_28260">
   <stop stop-color="#5956FF"/>
   <stop stop-color="#95FEDA" offset="1"/>
  </linearGradient>
  <linearGradient y2="-0.763034" x2="0.307472" y1="0.789616" x1="-0.000778" id="paint2_linear_234_28260">
   <stop stop-color="#5956FF"/>
   <stop stop-color="#95FEDA" offset="1"/>
  </linearGradient>
  <linearGradient y2="0.493928" x2="2.732403" y1="1.002729" x1="1.009608" id="paint3_linear_234_28260">
   <stop stop-color="#5956FF"/>
   <stop stop-color="#95FEDA" offset="1"/>
  </linearGradient>
  <linearGradient y2="0.304651" x2="1.779834" y1="1.00272" x1="1.009639" id="paint4_linear_234_28260">
   <stop stop-color="#5956FF"/>
   <stop stop-color="#95FEDA" offset="1"/>
  </linearGradient>
  <linearGradient y2="0.351817" x2="2.017228" y1="1.002756" x1="1.009619" id="paint5_linear_234_28260">
   <stop stop-color="#5956FF"/>
   <stop stop-color="#95FEDA" offset="1"/>
  </linearGradient>
  <linearGradient y2="0.231361" x2="1.410842" y1="1.002742" x1="1.009646" id="paint6_linear_234_28260">
   <stop stop-color="#5956FF"/>
   <stop stop-color="#95FEDA" offset="1"/>
  </linearGradient>
  <linearGradient y2="0.678785" x2="3.662625" y1="1.002729" x1="1.009586" id="paint7_linear_234_28260">
   <stop stop-color="#5956FF"/>
   <stop stop-color="#95FEDA" offset="1"/>
  </linearGradient>
  <linearGradient y2="0.442315" x2="2.472582" y1="1.002723" x1="1.009581" id="paint8_linear_234_28260">
   <stop stop-color="#5956FF"/>
   <stop stop-color="#95FEDA" offset="1"/>
  </linearGradient>
  <linearGradient y2="0.693073" x2="3.734616" y1="1.002734" x1="1.009575" id="paint9_linear_234_28260">
   <stop stop-color="#5956FF"/>
   <stop stop-color="#95FEDA" offset="1"/>
  </linearGradient>
  <linearGradient y2="0.456156" x2="2.542236" y1="1.002741" x1="1.009622" id="paint10_linear_234_28260">
   <stop stop-color="#5956FF"/>
   <stop stop-color="#95FEDA" offset="1"/>
  </linearGradient>
 </defs>
 <g>
  <title>background</title>
  <rect fill="none" id="canvas_background" height="402" width="582" y="-1" x="-1"/>
 </g>
 <g>
  <title>Layer 1</title>
  <rect id="svg_2" fill="white" rx="16" height="551" width="328"/>
  <rect id="svg_3" fill="url(#paint0_radial_234_28260)" rx="16" height="551" width="328"/>
  <g id="svg_10" clip-path="url(#clip0_234_28260)">
   <path id="svg_11" fill="#81C6E6" d="m39.2636,338.221l0,134.93c0,4.333 2.9257,5.125 2.9257,5.125l222.7147,97.687c5.257,0.898 4.664,-8.681 4.664,-8.681l0,-133.267c0,-4.906 -3.222,-5.629 -3.222,-5.629l-222.3887,-92.738c0,0 -4.6916,-2.596 -4.6916,2.571l-0.0021,0.002z"/>
   <path id="svg_12" fill="url(#paint1_linear_234_28260)" d="m39.2636,338.221l0,134.93c0,4.333 2.9257,5.125 2.9257,5.125l222.7147,97.687c5.257,0.898 4.664,-8.681 4.664,-8.681l0,-133.267c0,-4.906 -3.222,-5.629 -3.222,-5.629l-222.3887,-92.738c0,0 -4.6916,-2.596 -4.6916,2.571l-0.0021,0.002z"/>
   <path id="svg_13" fill="#343FC5" d="m275.608,565.774l-8.068,5.434c1.859,-0.592 1.974,-3.044 1.974,-3.044l0.054,-133.93l6.786,-4.671l0,134.383c0,0 0.147,1.222 -0.746,1.83l0,-0.002z"/>
   <path id="svg_14" stroke-opacity="0.05" stroke="#5460F2" d="m275.328,565.359l0.045,-0.03c0.266,-0.203 0.395,-0.5 0.452,-0.792c0.03,-0.152 0.038,-0.291 0.038,-0.391c0,-0.05 -0.001,-0.089 -0.003,-0.114c-0.001,-0.012 -0.002,-0.021 -0.002,-0.025l0,-0.001l0,-0.001l0,0l0,-0.001l0,-0.001l0,0l-0.004,-0.027l0,-0.03l0,-133.432l-5.786,3.983l-0.054,133.668l0,0.011l-0.001,0.012l-0.499,-0.024c0.499,0.024 0.499,0.024 0.499,0.024l0,0.001l0,0.001l0,0.003l0,0.008l-0.002,0.027c-0.002,0.022 -0.004,0.053 -0.008,0.092c-0.008,0.078 -0.021,0.187 -0.043,0.319c-0.019,0.114 -0.045,0.246 -0.08,0.39l5.448,-3.67z"/>
   <path id="svg_15" fill="#343FC5" d="m267.279,428.862c0,0 2.309,1.183 2.289,5.372l6.786,-4.61c0,-3.044 -1.514,-4.647 -2.419,-5.329l-6.659,4.569l0.003,-0.002z"/>
   <path id="svg_16" fill="#343FC5" d="m274,424.345c-0.368,-0.312 -0.727,-0.467 -0.727,-0.467l-222.4836,-92.989c0,0 -3.3413,-1.936 -5.6697,-0.095l-4.3151,2.918c0,0 -1.5386,0.831 -1.4174,3.226c0,0 0.4198,-2.661 4.5704,-1.287l223.3214,93.211l6.721,-4.517z"/>
   <path id="svg_17" stroke-opacity="0.05" stroke="#5460F2" d="m273.099,424.348c-0.009,-0.004 -0.015,-0.007 -0.02,-0.009l-0.006,-0.003l-222.4764,-92.986l-0.0299,-0.012l-0.0274,-0.016l-0.0002,0l-0.0002,0l-0.0002,0l-0.0047,-0.003l-0.0231,-0.013c-0.0214,-0.012 -0.0546,-0.029 -0.0984,-0.052c-0.0877,-0.045 -0.2178,-0.109 -0.3818,-0.181c-0.3292,-0.143 -0.7888,-0.316 -1.313,-0.434c-1.0616,-0.24 -2.2955,-0.238 -3.2879,0.547l-0.0146,0.012l-0.0154,0.01l-4.315,2.918l-0.0207,0.014l-0.0177,0.01l-0.001,0l-0.0013,0.001l-0.0009,0.001l-0.0005,0l-0.0002,0c-0.0051,0.003 -0.0154,0.009 -0.0298,0.019c-0.029,0.019 -0.0749,0.051 -0.1319,0.097c-0.1141,0.092 -0.2709,0.24 -0.4262,0.453c-0.0823,0.113 -0.1653,0.246 -0.2417,0.401c0.824,-0.436 2.0646,-0.554 3.9018,0.054l0.018,0.006l0.0175,0.007l223.0728,93.108l5.876,-3.949z"/>
   <path id="svg_18" fill="#B6E1F8" d="m34.3432,481.103l-105.9475,71.498c0,0 -4.6007,3.509 0.5605,6.559l219.7458,91.827c4.346,1.815 8.26,-0.727 8.26,-0.727l108.434,-69.355c4.523,-3.143 -1.986,-6.772 -1.986,-6.772l-218.3398,-95.121c0,0 -5.1698,-1.498 -10.727,2.091z"/>
   <path id="svg_19" fill="url(#paint2_linear_234_28260)" d="m34.3432,481.103l-105.9475,71.498c0,0 -4.6007,3.509 0.5605,6.559l219.7458,91.827c4.346,1.815 8.26,-0.727 8.26,-0.727l108.434,-69.355c4.523,-3.143 -1.986,-6.772 -1.986,-6.772l-218.3398,-95.121c0,0 -5.1698,-1.498 -10.727,2.091z"/>
   <path id="svg_20" fill="#E5F0FF" d="m47.2574,346.498l214.3386,89.54l0,126.891l-214.3386,-92.225l0,-124.206z"/>
   <mask height="172" width="329" y="495" x="-39" maskUnits="userSpaceOnUse" id="mask0_234_28260">
    <path id="svg_21" fill="white" d="m285.247,611.969l3.252,-2.319c1.042,-0.743 0.943,-1.777 -0.219,-2.309l-11.71,-5.364c-1.163,-0.533 -2.951,-0.363 -3.992,0.38l-3.253,2.319c-1.041,0.743 -0.942,1.776 0.22,2.309l11.71,5.364c1.163,0.534 2.951,0.363 3.992,-0.38zm-21.739,-7.749l-11.71,-5.364c-1.162,-0.533 -1.261,-1.567 -0.22,-2.309l3.253,-2.319c1.041,-0.743 2.829,-0.913 3.992,-0.38l11.71,5.364c1.162,0.534 1.261,1.566 0.22,2.31l-3.253,2.318c-1.041,0.743 -2.829,0.914 -3.992,0.38zm-17.747,-8.128l-11.71,-5.364c-1.162,-0.534 -1.261,-1.568 -0.219,-2.31l3.252,-2.318c1.041,-0.744 2.829,-0.914 3.992,-0.381l11.71,5.365c1.162,0.533 1.261,1.566 0.22,2.309l-3.253,2.319c-1.041,0.743 -2.829,0.913 -3.992,0.38zm-17.747,-8.129l-11.709,-5.364c-1.163,-0.534 -1.262,-1.568 -0.22,-2.31l3.252,-2.318c1.041,-0.743 2.829,-0.914 3.992,-0.38l11.71,5.364c1.163,0.533 1.261,1.566 0.22,2.309l-3.252,2.319c-1.042,0.743 -2.83,0.913 -3.993,0.38zm-17.746,-8.129l-11.71,-5.364c-1.163,-0.533 -1.262,-1.567 -0.22,-2.309l3.252,-2.319c1.041,-0.743 2.829,-0.913 3.992,-0.38l11.71,5.364c1.163,0.533 1.261,1.568 0.22,2.309l-3.252,2.319c-1.042,0.743 -2.83,0.914 -3.992,0.38zm-17.747,-8.129l-11.71,-5.364c-1.163,-0.533 -1.262,-1.567 -0.22,-2.309l3.252,-2.319c1.041,-0.743 2.829,-0.913 3.992,-0.38l11.71,5.364c1.163,0.534 1.261,1.566 0.22,2.31l-3.252,2.318c-1.041,0.744 -2.83,0.914 -3.992,0.38zm-17.747,-8.128l-11.71,-5.364c-1.163,-0.534 -1.261,-1.568 -0.22,-2.31l3.252,-2.318c1.041,-0.744 2.829,-0.914 3.992,-0.381l11.71,5.365c1.163,0.533 1.261,1.566 0.22,2.309l-3.252,2.319c-1.041,0.743 -2.83,0.913 -3.992,0.38zm-17.747,-8.129l-11.71,-5.364c-1.163,-0.534 -1.261,-1.568 -0.22,-2.31l3.252,-2.318c1.041,-0.743 2.829,-0.914 3.992,-0.38l11.71,5.364c1.163,0.533 1.261,1.566 0.22,2.309l-3.252,2.319c-1.041,0.743 -2.829,0.913 -3.992,0.38zm-17.747,-8.129l-11.71,-5.364c-1.163,-0.533 -1.261,-1.567 -0.22,-2.309l3.252,-2.319c1.041,-0.743 2.83,-0.913 3.992,-0.38l11.71,5.364c1.163,0.533 1.261,1.566 0.22,2.309l-3.252,2.319c-1.041,0.743 -2.829,0.914 -3.992,0.38zm-17.747,-8.129l-11.71,-5.364c-1.163,-0.533 -1.261,-1.567 -0.22,-2.309l3.252,-2.319c1.041,-0.743 2.83,-0.913 3.992,-0.38l11.71,5.364c1.163,0.534 1.261,1.566 0.22,2.31l-3.252,2.318c-1.041,0.744 -2.829,0.914 -3.992,0.38zm-17.747,-8.128l-11.7099,-5.364c-1.1627,-0.534 -1.2612,-1.568 -0.2199,-2.31l3.2522,-2.318c1.0412,-0.744 2.8293,-0.914 3.992,-0.381l11.7096,5.365c1.163,0.533 1.262,1.566 0.22,2.309l-3.252,2.319c-1.041,0.743 -2.829,0.913 -3.992,0.38zm-17.7468,-8.129l-11.7114,-5.364c-1.1627,-0.533 -1.2612,-1.567 -0.2199,-2.309l3.2522,-2.319c1.0412,-0.743 2.8293,-0.914 3.9921,-0.38l11.7113,5.364c1.1627,0.533 1.2611,1.566 0.2199,2.309l-3.2522,2.319c-1.0411,0.743 -2.8293,0.913 -3.992,0.38zm-17.747,-8.129l-11.7099,-5.364c-1.1627,-0.533 -1.2612,-1.567 -0.2199,-2.309l3.2521,-2.319c1.0412,-0.743 2.8294,-0.913 3.9921,-0.38l11.71,5.364c1.1627,0.534 1.2612,1.568 0.2199,2.309l-3.2522,2.319c-1.0412,0.743 -2.8293,0.914 -3.9921,0.38zm-22.4324,-18.499l11.71,5.364c1.1627,0.533 1.2611,1.566 0.2199,2.309l-3.2522,2.319c-1.0412,0.743 -2.8293,0.913 -3.992,0.38l-11.71,-5.364c-1.1627,-0.534 -1.2612,-1.568 -0.2199,-2.31l3.2521,-2.318c1.0412,-0.744 2.8294,-0.914 3.9921,-0.38zm219.5452,126.218l-7.006,-3.208c-1.692,-0.774 -1.835,-2.279 -0.32,-3.358l6.275,-4.473c1.515,-1.08 4.114,-1.328 5.806,-0.553l7.006,3.208c1.691,0.774 1.835,2.279 0.32,3.358l-6.275,4.473c-1.515,1.08 -4.114,1.328 -5.806,0.553zm-16.712,-7.654l-7.006,-3.208c-1.692,-0.775 -1.835,-2.279 -0.32,-3.359l6.275,-4.473c1.515,-1.079 4.114,-1.327 5.806,-0.553l7.006,3.209c1.692,0.774 1.835,2.278 0.32,3.358l-6.275,4.473c-1.515,1.08 -4.114,1.327 -5.806,0.553zm-10.907,-8.207c-1.515,1.08 -4.114,1.327 -5.806,0.553l-7.006,-3.209c-1.692,-0.774 -1.835,-2.278 -0.32,-3.358l6.275,-4.473c1.515,-1.08 4.114,-1.327 5.806,-0.553l7.006,3.208c1.691,0.775 1.835,2.279 0.32,3.359l-6.275,4.473zm-10.439,-12.129l-6.274,4.473c-1.515,1.08 -4.115,1.327 -5.806,0.553l-7.006,-3.208c-1.692,-0.774 -1.835,-2.279 -0.32,-3.358l6.274,-4.474c1.515,-1.079 4.115,-1.327 5.806,-0.552l7.006,3.208c1.692,0.774 1.835,2.279 0.32,3.358zm-16.712,-7.654l-6.274,4.473c-1.515,1.08 -4.115,1.327 -5.806,0.553l-7.006,-3.208c-1.692,-0.775 -1.835,-2.279 -0.32,-3.359l6.275,-4.473c1.515,-1.08 4.114,-1.327 5.806,-0.553l7.006,3.209c1.691,0.774 1.835,2.278 0.319,3.358zm-35.797,-5.837c-1.691,-0.774 -1.835,-2.279 -0.319,-3.358l6.274,-4.473c1.515,-1.08 4.114,-1.328 5.806,-0.553l7.006,3.208c1.692,0.774 1.835,2.279 0.32,3.358l-6.275,4.473c-1.515,1.08 -4.114,1.328 -5.806,0.553l-7.006,-3.208zm-16.711,-7.654c-1.692,-0.775 -1.835,-2.279 -0.32,-3.359l6.274,-4.473c1.515,-1.079 4.115,-1.327 5.806,-0.553l7.006,3.209c1.692,0.774 1.835,2.278 0.32,3.358l-6.274,4.473c-1.515,1.08 -4.115,1.327 -5.806,0.553l-7.006,-3.208zm-16.712,-7.655c-1.692,-0.774 -1.835,-2.278 -0.32,-3.358l6.274,-4.473c1.516,-1.08 4.115,-1.327 5.806,-0.553l7.007,3.208c1.691,0.775 1.834,2.279 0.319,3.359l-6.274,4.473c-1.515,1.08 -4.115,1.327 -5.806,0.553l-7.006,-3.209zm-16.712,-7.654c-1.692,-0.774 -1.835,-2.279 -0.32,-3.358l6.275,-4.473c1.515,-1.08 4.114,-1.328 5.806,-0.553l7.006,3.208c1.691,0.774 1.835,2.279 0.32,3.358l-6.275,4.473c-1.515,1.08 -4.114,1.328 -5.806,0.553l-7.006,-3.208zm-16.712,-7.654c-1.692,-0.775 -1.835,-2.279 -0.32,-3.359l6.275,-4.473c1.515,-1.079 4.114,-1.327 5.806,-0.553l7.006,3.209c1.692,0.774 1.835,2.278 0.32,3.358l-6.275,4.473c-1.515,1.08 -4.114,1.327 -5.806,0.553l-7.006,-3.208zm2.374,-9.472l-6.275,4.473c-1.515,1.08 -4.1144,1.327 -5.806,0.553l-7.0061,-3.208c-1.6916,-0.775 -1.8349,-2.279 -0.3198,-3.359l6.2746,-4.473c1.515,-1.08 4.1143,-1.327 5.8063,-0.553l7.006,3.209c1.691,0.774 1.835,2.278 0.32,3.358zm-16.7122,-7.654l-6.2745,4.473c-1.5151,1.079 -4.1144,1.327 -5.8061,0.553l-7.0061,-3.209c-1.6916,-0.774 -1.8349,-2.278 -0.3198,-3.358l6.2746,-4.473c1.5151,-1.08 4.1144,-1.327 5.806,-0.553l7.0061,3.208c1.6916,0.775 1.8349,2.279 0.3198,3.359zm-17.0316,-11.013c1.6916,0.774 1.8349,2.279 0.3198,3.358l-6.2746,4.473c-1.515,1.08 -4.1144,1.328 -5.806,0.553l-7.0061,-3.208c-1.6916,-0.774 -1.8349,-2.279 -0.3198,-3.358l6.2746,-4.474c1.515,-1.079 4.1144,-1.327 5.806,-0.552l7.0061,3.208zm-39.5281,-18.105l22.0636,10.105c1.6916,0.774 1.8348,2.279 0.3198,3.358l-6.2746,4.474c-1.5151,1.079 -4.1144,1.327 -5.806,0.553l-22.0635,-10.106c-1.6917,-0.774 -1.8349,-2.278 -0.3199,-3.358l6.2746,-4.473c1.5151,-1.08 4.1144,-1.327 5.806,-0.553zm-26.3769,19.625c-1.69165,-0.774 -1.83491,-2.279 -0.3198,-3.358l6.2745,-4.473c1.5151,-1.08 4.1144,-1.328 5.806,-0.553l7.0061,3.208c1.6917,0.774 1.8349,2.279 0.3198,3.358l-6.2745,4.473c-1.5151,1.08 -4.1144,1.328 -5.8061,0.553l-7.006,-3.208zm16.3919,4.296l6.2746,-4.473c1.5151,-1.08 4.1144,-1.327 5.806,-0.553l7.0061,3.208c1.6916,0.775 1.8349,2.279 0.3198,3.359l-6.2745,4.473c-1.5151,1.079 -4.1144,1.327 -5.806,0.553l-7.0061,-3.209c-1.6917,-0.774 -1.8349,-2.278 -0.3199,-3.358zm16.7119,7.654l6.2745,-4.473c1.5151,-1.079 4.1144,-1.327 5.8061,-0.553l7.006,3.209c1.6917,0.774 1.8349,2.278 0.3198,3.358l-6.2745,4.473c-1.5151,1.08 -4.1144,1.327 -5.8061,0.553l-7.006,-3.208c-1.6917,-0.775 -1.8349,-2.279 -0.3198,-3.359zm16.7118,7.655l6.2745,-4.473c1.5151,-1.08 4.1144,-1.328 5.806,-0.553l7.0061,3.208c1.6917,0.774 1.8349,2.279 0.3198,3.358l-6.2745,4.473c-1.5151,1.08 -4.1144,1.328 -5.806,0.553l-7.0061,-3.208c-1.6916,-0.774 -1.8349,-2.279 -0.3198,-3.358zm16.7117,7.654l6.2746,-4.473c1.5151,-1.08 4.1144,-1.327 5.806,-0.553l7.0061,3.208c1.6917,0.775 1.8349,2.279 0.3199,3.359l-6.2746,4.473c-1.5151,1.079 -4.1144,1.327 -5.806,0.553l-7.0061,-3.209c-1.6917,-0.774 -1.8349,-2.278 -0.3199,-3.358zm36.1175,9.196l-6.275,4.474c-1.515,1.079 -4.114,1.327 -5.806,0.552l-7.006,-3.208c-1.6917,-0.774 -1.8349,-2.278 -0.3199,-3.358l6.2749,-4.473c1.515,-1.08 4.114,-1.327 5.806,-0.553l7.006,3.208c1.691,0.774 1.835,2.279 0.32,3.358zm16.711,7.655l-6.274,4.473c-1.515,1.08 -4.115,1.327 -5.806,0.553l-7.006,-3.209c-1.692,-0.774 -1.835,-2.278 -0.32,-3.358l6.274,-4.473c1.516,-1.08 4.115,-1.327 5.807,-0.553l7.006,3.208c1.691,0.775 1.835,2.279 0.319,3.359zm16.712,7.654l-6.274,4.473c-1.515,1.08 -4.115,1.327 -5.806,0.553l-7.006,-3.208c-1.692,-0.774 -1.835,-2.279 -0.32,-3.358l6.274,-4.474c1.515,-1.079 4.115,-1.327 5.806,-0.553l7.006,3.209c1.692,0.774 1.835,2.278 0.32,3.358zm16.712,7.654l-6.275,4.474c-1.515,1.079 -4.114,1.327 -5.806,0.552l-7.006,-3.208c-1.691,-0.774 -1.835,-2.278 -0.319,-3.358l6.274,-4.473c1.515,-1.08 4.115,-1.327 5.806,-0.553l7.006,3.208c1.692,0.774 1.835,2.279 0.32,3.358zm16.712,7.655l-6.275,4.473c-1.515,1.08 -4.114,1.327 -5.806,0.553l-7.006,-3.209c-1.691,-0.774 -1.835,-2.278 -0.32,-3.358l6.275,-4.473c1.515,-1.08 4.114,-1.327 5.806,-0.553l7.006,3.208c1.692,0.775 1.835,2.279 0.32,3.359zm-2.693,6.113l6.274,-4.473c1.515,-1.079 4.114,-1.327 5.806,-0.553l7.006,3.209c1.692,0.774 1.835,2.278 0.32,3.358l-6.275,4.473c-1.515,1.08 -4.114,1.327 -5.806,0.553l-7.006,-3.208c-1.691,-0.775 -1.835,-2.279 -0.319,-3.359zm16.711,7.655l6.275,-4.473c1.515,-1.08 4.114,-1.328 5.806,-0.553l7.006,3.208c1.692,0.774 1.835,2.279 0.32,3.358l-6.275,4.473c-1.515,1.08 -4.114,1.328 -5.806,0.553l-7.006,-3.208c-1.691,-0.774 -1.835,-2.279 -0.32,-3.358zm16.712,7.654l6.275,-4.473c1.515,-1.08 4.114,-1.327 5.806,-0.553l7.006,3.208c1.691,0.775 1.835,2.279 0.32,3.359l-6.275,4.473c-1.515,1.079 -4.114,1.327 -5.806,0.553l-7.006,-3.209c-1.692,-0.774 -1.835,-2.278 -0.32,-3.358zm39.153,21.144l-22.064,-10.105c-1.692,-0.775 -1.835,-2.279 -0.32,-3.359l6.275,-4.473c1.515,-1.079 4.114,-1.327 5.806,-0.553l22.063,10.106c1.692,0.774 1.835,2.278 0.32,3.358l-6.274,4.473c-1.515,1.08 -4.115,1.327 -5.806,0.553zm-244.00387,-107.165l16.70177,7.65c1.6916,0.774 1.8349,2.279 0.3198,3.358l-6.2745,4.474c-1.5151,1.079 -4.1144,1.327 -5.806,0.552l-16.70183,-7.649c-1.69162,-0.775 -1.83488,-2.279 -0.31982,-3.359l6.27454,-4.473c1.51509,-1.079 4.11442,-1.327 5.80604,-0.553zm21.65437,23.69l-7.0061,-3.208c-1.6917,-0.775 -1.8349,-2.279 -0.3198,-3.359l6.2745,-4.473c1.5151,-1.079 4.1144,-1.327 5.806,-0.553l7.0061,3.209c1.6917,0.774 1.8349,2.278 0.3198,3.358l-6.2745,4.473c-1.5151,1.08 -4.1144,1.327 -5.806,0.553zm16.7117,7.654l-7.006,-3.208c-1.6917,-0.774 -1.8349,-2.279 -0.3198,-3.358l6.2745,-4.473c1.5151,-1.08 4.1144,-1.328 5.806,-0.553l7.0061,3.208c1.6917,0.774 1.8349,2.279 0.3199,3.358l-6.2746,4.473c-1.5151,1.08 -4.1144,1.328 -5.8061,0.553zm16.7119,7.655l-7.0061,-3.209c-1.6917,-0.774 -1.8349,-2.278 -0.3199,-3.358l6.2746,-4.473c1.5151,-1.08 4.1144,-1.327 5.8061,-0.553l7.006,3.208c1.6917,0.775 1.8349,2.279 0.3199,3.359l-6.2746,4.473c-1.5151,1.079 -4.1144,1.327 -5.806,0.553zm9.3872,1.087l6.2746,-4.473c1.5151,-1.08 4.1144,-1.327 5.806,-0.553l7.0061,3.209c1.6916,0.774 1.8349,2.278 0.3198,3.358l-6.2745,4.473c-1.5151,1.08 -4.1144,1.327 -5.8061,0.553l-7.0061,-3.208c-1.6916,-0.775 -1.8349,-2.279 -0.3198,-3.359zm16.7118,7.655l6.2746,-4.474c1.515,-1.079 4.1144,-1.327 5.806,-0.552l7.0063,3.208c1.691,0.774 1.835,2.279 0.32,3.358l-6.275,4.473c-1.515,1.08 -4.1144,1.327 -5.806,0.553l-7.0061,-3.208c-1.6916,-0.774 -1.8348,-2.279 -0.3198,-3.358zm16.7119,7.654l6.274,-4.473c1.516,-1.08 4.115,-1.327 5.807,-0.553l7.006,3.208c1.691,0.775 1.834,2.279 0.319,3.358l-6.274,4.474c-1.515,1.079 -4.115,1.327 -5.806,0.553l-7.006,-3.209c-1.692,-0.774 -1.835,-2.278 -0.32,-3.358zm16.712,7.654l6.274,-4.473c1.515,-1.08 4.115,-1.327 5.806,-0.553l7.006,3.209c1.692,0.774 1.835,2.278 0.32,3.358l-6.274,4.473c-1.515,1.08 -4.115,1.327 -5.806,0.553l-7.006,-3.208c-1.692,-0.775 -1.835,-2.279 -0.32,-3.359zm16.712,7.655l6.274,-4.474c1.515,-1.079 4.115,-1.327 5.806,-0.552l7.006,3.208c1.692,0.774 1.835,2.278 0.32,3.358l-6.275,4.473c-1.515,1.08 -4.114,1.327 -5.806,0.553l-7.006,-3.208c-1.691,-0.774 -1.835,-2.279 -0.319,-3.358zm24.037,14.222l-7.006,-3.208c-1.691,-0.775 -1.835,-2.279 -0.32,-3.359l6.275,-4.473c1.515,-1.08 4.114,-1.327 5.806,-0.553l7.006,3.209c1.692,0.774 1.835,2.278 0.32,3.358l-6.275,4.473c-1.515,1.08 -4.114,1.327 -5.806,0.553zm16.712,7.654l-7.006,-3.208c-1.692,-0.774 -1.835,-2.279 -0.32,-3.358l6.275,-4.474c1.515,-1.079 4.114,-1.327 5.806,-0.552l7.006,3.208c1.692,0.774 1.835,2.278 0.32,3.358l-6.275,4.473c-1.515,1.08 -4.114,1.327 -5.806,0.553zm16.712,7.655l-7.006,-3.209c-1.692,-0.774 -1.835,-2.278 -0.32,-3.358l6.275,-4.473c1.515,-1.08 4.114,-1.327 5.806,-0.553l7.006,3.208c1.691,0.775 1.835,2.279 0.32,3.358l-6.275,4.474c-1.515,1.079 -4.114,1.327 -5.806,0.553zm39.539,18.109l-29.081,-13.319c-1.691,-0.775 -1.835,-2.279 -0.32,-3.359l6.275,-4.473c1.515,-1.079 4.114,-1.327 5.806,-0.553l29.08,13.32c1.691,0.774 1.835,2.278 0.32,3.358l-6.275,4.473c-1.515,1.08 -4.114,1.327 -5.806,0.553l0.001,0zm-244.00018,-107.164l24.32718,11.143c1.6917,0.774 1.8349,2.279 0.3199,3.358l-6.27457,4.473c-1.51506,1.08 -4.11439,1.328 -5.80604,0.553l-24.32719,-11.142c-1.6917,-0.775 -1.8349,-2.279 -0.3199,-3.358l6.2746,-4.474c1.515,-1.079 4.1144,-1.327 5.80602,-0.553zm28.22828,16.142c1.5151,-1.08 4.1144,-1.328 5.8061,-0.553l7.006,3.208c1.6917,0.774 1.8349,2.279 0.3199,3.358l-6.2746,4.473c-1.5151,1.08 -4.1144,1.328 -5.8061,0.553l-7.006,-3.208c-1.6916,-0.774 -1.8349,-2.279 -0.3198,-3.358l6.2745,-4.473zm10.4388,12.128l6.2745,-4.473c1.5151,-1.079 4.1144,-1.327 5.806,-0.553l7.0061,3.209c1.6917,0.774 1.8349,2.278 0.3198,3.358l-6.2745,4.473c-1.5151,1.08 -4.1144,1.327 -5.8061,0.553l-7.006,-3.208c-1.6917,-0.775 -1.8349,-2.279 -0.3198,-3.359zm24.0378,14.223l-7.0061,-3.209c-1.6916,-0.774 -1.8349,-2.278 -0.3198,-3.358l6.2745,-4.473c1.5151,-1.08 4.1144,-1.327 5.8061,-0.553l7.006,3.208c1.6917,0.775 1.8349,2.279 0.3199,3.359l-6.2746,4.473c-1.5151,1.079 -4.1144,1.327 -5.806,0.553zm16.7118,7.654l-7.0061,-3.208c-1.6916,-0.775 -1.8349,-2.279 -0.3198,-3.359l6.2746,-4.473c1.515,-1.079 4.1144,-1.327 5.806,-0.553l7.0061,3.209c1.6916,0.774 1.8348,2.278 0.3198,3.358l-6.2746,4.473c-1.515,1.08 -4.1144,1.327 -5.806,0.553zm16.7118,7.654l-7.0061,-3.208c-1.6916,-0.774 -1.8349,-2.279 -0.3198,-3.358l6.2745,-4.473c1.5151,-1.08 4.1144,-1.328 5.8061,-0.553l7.0061,3.208c1.6916,0.774 1.8349,2.279 0.3198,3.358l-6.2746,4.473c-1.515,1.08 -4.1144,1.328 -5.806,0.553zm16.7117,7.655l-7.006,-3.209c-1.6916,-0.774 -1.8349,-2.278 -0.3198,-3.358l6.2748,-4.473c1.515,-1.08 4.114,-1.327 5.806,-0.553l7.006,3.208c1.692,0.775 1.835,2.279 0.32,3.359l-6.275,4.473c-1.515,1.079 -4.114,1.327 -5.806,0.553zm16.712,7.654l-7.006,-3.208c-1.692,-0.775 -1.835,-2.279 -0.32,-3.359l6.275,-4.473c1.515,-1.079 4.114,-1.327 5.806,-0.553l7.006,3.209c1.691,0.774 1.835,2.278 0.319,3.358l-6.274,4.473c-1.515,1.08 -4.114,1.327 -5.806,0.553zm16.712,7.654l-7.006,-3.208c-1.692,-0.774 -1.835,-2.279 -0.32,-3.358l6.274,-4.473c1.515,-1.08 4.115,-1.328 5.806,-0.553l7.006,3.208c1.692,0.774 1.835,2.279 0.32,3.358l-6.274,4.473c-1.515,1.08 -4.115,1.328 -5.806,0.553zm21.466,-3.938l7.006,3.208c1.692,0.775 1.835,2.279 0.32,3.359l-6.274,4.473c-1.516,1.079 -4.115,1.327 -5.806,0.553l-7.007,-3.209c-1.691,-0.774 -1.834,-2.278 -0.319,-3.358l6.274,-4.473c1.515,-1.08 4.115,-1.327 5.806,-0.553zm4.633,12.68l6.274,-4.473c1.515,-1.08 4.115,-1.327 5.806,-0.553l7.006,3.209c1.692,0.774 1.835,2.278 0.32,3.358l-6.274,4.473c-1.515,1.08 -4.115,1.327 -5.806,0.553l-7.006,-3.209c-1.692,-0.774 -1.835,-2.278 -0.32,-3.358zm55.056,28.43l-37.272,-17.072c-1.692,-0.774 -1.835,-2.278 -0.32,-3.358l6.275,-4.473c1.515,-1.08 4.114,-1.327 5.806,-0.553l37.271,17.071c1.692,0.775 1.835,2.279 0.32,3.359l-6.274,4.473c-1.515,1.079 -4.115,1.327 -5.806,0.553zm-203.1339,-88.445l7.0061,3.208c1.6916,0.775 1.8349,2.279 0.3198,3.359l-6.2745,4.473c-1.5151,1.079 -4.1144,1.327 -5.80605,0.553l-7.0061,-3.209c-1.69163,-0.774 -1.83488,-2.278 -0.31982,-3.358l6.27457,-4.473c1.5151,-1.08 4.1144,-1.327 5.806,-0.553zm-35.5161,-8.947l6.8858,3.154c0.7784,0.356 0.8443,1.048 0.1471,1.545l-2.754,1.963c-0.6972,0.497 -1.8929,0.611 -2.67,0.254l-6.8858,-3.154c-0.7784,-0.356 -0.8443,-1.047 -0.1471,-1.545l2.754,-1.963c0.6972,-0.497 1.8915,-0.611 2.67,-0.254zm-11.7285,-5.372l6.8857,3.154c0.7785,0.356 0.8443,1.048 0.1472,1.545l-2.754,1.963c-0.6972,0.497 -1.8916,0.611 -2.6701,0.254l-6.8857,-3.154c-0.7784,-0.356 -0.8443,-1.047 -0.1471,-1.545l2.754,-1.963c0.6972,-0.497 1.8915,-0.611 2.67,-0.254zm24.12655,11.05l6.88576,3.155c0.77847,0.356 0.84429,1.047 0.14713,1.545l-2.75402,1.963c-0.69716,0.497 -1.89152,0.611 -2.66999,0.254l-6.88573,-3.154c-0.7785,-0.357 -0.8443,-1.048 -0.1472,-1.545l2.7541,-1.963c0.6971,-0.497 1.89148,-0.611 2.66995,-0.255zm-5.83455,-10.357l6.88574,3.154c0.77847,0.357 0.84429,1.048 0.14714,1.545l-2.754,1.964c-0.69718,0.497 -1.89288,0.611 -2.66998,0.254l-6.8858,-3.154c-0.7784,-0.357 -0.8443,-1.048 -0.1471,-1.545l2.754,-1.964c0.6972,-0.497 1.8929,-0.611 2.67,-0.254zm72.5164,33.58l77.0121,35.274c1.691,0.774 1.835,2.278 0.319,3.358l-6.274,4.473c-1.515,1.08 -4.115,1.327 -5.806,0.553l-77.0132,-35.274c-1.6917,-0.774 -1.8349,-2.278 -0.3199,-3.358l6.2746,-4.473c1.5151,-1.08 4.1144,-1.327 5.806,-0.553l0.0014,0zm87.2791,39.975l17.466,8c1.692,0.774 1.835,2.279 0.32,3.358l-6.275,4.473c-1.515,1.08 -4.114,1.328 -5.806,0.553l-17.466,-7.999c-1.691,-0.775 -1.835,-2.279 -0.319,-3.359l6.274,-4.473c1.515,-1.079 4.115,-1.327 5.806,-0.553zm-114.5725,-52.476l17.4658,7.999c1.6917,0.775 1.8349,2.279 0.3198,3.359l-6.2745,4.473c-1.5151,1.079 -4.1144,1.327 -5.806,0.553l-17.4659,-8c-1.6916,-0.774 -1.8349,-2.278 -0.3198,-3.358l6.2745,-4.473c1.5151,-1.08 4.1144,-1.327 5.8061,-0.553zm142.1975,65.129l7.006,3.208c1.691,0.775 1.835,2.279 0.32,3.359l-6.275,4.473c-1.515,1.079 -4.114,1.327 -5.806,0.553l-7.006,-3.209c-1.692,-0.774 -1.835,-2.278 -0.32,-3.358l6.275,-4.473c1.515,-1.08 4.114,-1.327 5.806,-0.553zm16.712,7.654l7.006,3.209c1.691,0.774 1.835,2.278 0.319,3.358l-6.274,4.473c-1.515,1.08 -4.114,1.327 -5.806,0.553l-7.006,-3.208c-1.692,-0.775 -1.835,-2.279 -0.32,-3.359l6.275,-4.473c1.515,-1.079 4.114,-1.327 5.806,-0.553zm16.711,7.655l7.006,3.208c1.692,0.774 1.835,2.279 0.32,3.358l-6.274,4.473c-1.515,1.08 -4.115,1.328 -5.806,0.553l-7.006,-3.208c-1.692,-0.774 -1.835,-2.279 -0.32,-3.358l6.274,-4.473c1.515,-1.08 4.115,-1.328 5.806,-0.553z"/>
   </mask>
   <g id="svg_22" mask="url(#mask0_234_28260)">
    <path id="svg_23" fill="#7FC1E7" d="m16.5244,550.381l-11.25652,7.33l3.00966,-0.287l8.39696,-5.467l-0.1501,-1.576z"/>
    <path id="svg_24" fill="#7FC1E7" d="m16.374,548.806l-14.11625,9.191l3.0097,-0.286l11.25655,-7.33l-0.15,-1.575z"/>
    <path id="svg_25" fill="#7FC1E7" d="m16.374,548.799l-0.7639,-1.168l-16.36273,10.653l3.01103,-0.287l14.1163,-9.191l-0.0007,-0.007z"/>
    <path id="svg_26" fill="#7FC1E7" d="m15.6098,547.631l-0.7671,-1.173l-18.60529,12.113l3.00967,-0.287l16.36272,-10.653z"/>
    <path id="svg_27" fill="#7FC1E7" d="m14.8423,546.458l-0.7672,-1.174l-20.84913,13.574l3.01107,-0.287l18.60526,-12.113z"/>
    <path id="svg_28" fill="#7FC1E7" d="m14.0756,545.284l-0.7684,-1.173l-23.09043,15.033l3.00967,-0.286l20.84916,-13.574z"/>
    <path id="svg_29" fill="#7FC1E7" d="m13.3072,544.111l-0.7672,-1.174l-25.3329,16.494l3.00968,-0.287l23.09042,-15.033z"/>
    <path id="svg_30" fill="#7FC1E7" d="m12.5395,542.937l-0.7671,-1.173l-26.1632,17.033l0.4832,0.74l1.1142,-0.106l25.3329,-16.494z"/>
    <path id="svg_31" fill="#7FC1E7" d="m10.9973,540.61l0.7673,1.173l-26.1629,17.035l-0.7673,-1.173l26.1629,-17.035z"/>
    <path id="svg_32" fill="#7FC1E7" d="m10.2288,539.443l0.7673,1.173l-26.163,17.035l-0.7673,-1.173l26.163,-17.035z"/>
    <path id="svg_33" fill="#7FC1E7" d="m9.46315,538.264l0.76735,1.173l-26.163,17.035l-0.7673,-1.173l26.16295,-17.035z"/>
    <path id="svg_34" fill="#7FC1E7" d="m8.69657,537.09l0.7673,1.173l-26.16297,17.035l-0.7673,-1.173l26.16297,-17.035z"/>
    <path id="svg_35" fill="#7FC1E7" d="m7.92802,535.918l0.76729,1.173l-26.16291,17.035l-0.7673,-1.173l26.16292,-17.035z"/>
    <path id="svg_36" fill="#7FC1E7" d="m7.93377,535.896l-0.63726,-0.975l-0.50818,0.048l-25.78483,16.787l0.7672,1.174l26.16307,-17.034z"/>
    <path id="svg_37" fill="#7FC1E7" d="m3.77939,535.256l-23.54219,15.327l0.767,1.173l25.78486,-16.787l-3.00967,0.287z"/>
    <path id="svg_38" fill="#7FC1E7" d="m0.76824,535.542l-21.29974,13.867l0.7686,1.174l23.5422,-15.328l-3.01106,0.287z"/>
    <path id="svg_39" fill="#7FC1E7" d="m-2.24209,535.829l-19.05711,12.408l0.7671,1.172l21.29968,-13.867l-3.00967,0.287z"/>
    <path id="svg_40" fill="#7FC1E7" d="m57.9287,550.195l-12.7465,8.299l3.0097,-0.287l9.8869,-6.436l-0.1501,-1.576z"/>
    <path id="svg_41" fill="#7FC1E7" d="m57.8557,549.433l-0.3964,-0.606l-15.2872,9.953l3.0096,-0.286l12.7465,-8.299l-0.0725,-0.762z"/>
    <path id="svg_42" fill="#7FC1E7" d="m57.4594,548.827l-0.7671,-1.173l-17.5312,11.413l3.0111,-0.287l15.2872,-9.953z"/>
    <path id="svg_43" fill="#7FC1E7" d="m56.6929,547.654l-0.7672,-1.174l-17.6551,11.494l0.7253,1.109l0.1658,-0.016l17.5312,-11.413z"/>
    <path id="svg_44" fill="#7FC1E7" d="m55.1526,545.326l0.7673,1.173l-17.6542,11.495l-0.7673,-1.173l17.6542,-11.495z"/>
    <path id="svg_45" fill="#7FC1E7" d="m55.1572,545.307l-0.4768,-0.73l-1.1373,0.108l-16.8082,10.943l0.7684,1.172l17.6539,-11.493z"/>
    <path id="svg_46" fill="#7FC1E7" d="m50.5333,544.972l-14.5658,9.482l0.7672,1.174l16.8083,-10.943l-3.0097,0.287z"/>
    <path id="svg_47" fill="#7FC1E7" d="m47.5221,545.259l-11.8247,7.698l0.121,1.27l0.149,0.227l14.5658,-9.482l-3.0111,0.287z"/>
    <path id="svg_48" fill="#7FC1E7" d="m44.5128,545.545l-8.9651,5.836l0.1501,1.576l11.8247,-7.698l-3.0097,0.286z"/>
    <path id="svg_49" fill="#7FC1E7" d="m41.5017,545.832l-6.1041,3.974l0.15,1.575l8.9651,-5.836l-3.011,0.287z"/>
    <path id="svg_50" fill="#7FC1E7" d="m38.4923,546.119l-3.2445,2.111l0.1501,1.576l6.1041,-3.974l-3.0097,0.287z"/>
    <path id="svg_51" fill="#7FC1E7" d="m35.4825,546.405l-0.3848,0.25l0.15,1.575l3.2445,-2.111l-3.0097,0.286z"/>
    <path id="svg_52" fill="#7FC1E7" d="m35.0976,546.655l0.3848,-0.25l-0.4049,0.039l0.0201,0.211z"/>
    <path id="svg_53" fill="#7FC1E7" d="m41.8291,548.965l-1.0819,0.705l1.1387,-0.108l-0.0568,-0.597z"/>
    <path id="svg_54" fill="#7FC1E7" d="m41.6787,547.391l-3.9429,2.566l3.011,-0.287l1.0819,-0.705l-0.15,-1.574z"/>
    <path id="svg_55" fill="#7FC1E7" d="m41.5283,545.815l-6.8025,4.429l3.0097,-0.287l3.9429,-2.566l-0.1501,-1.576z"/>
    <path id="svg_56" fill="#7FC1E7" d="m41.3789,544.24l-9.6622,6.29l3.0097,-0.286l6.8025,-4.429l-0.15,-1.575z"/>
    <path id="svg_57" fill="#7FC1E7" d="m41.2285,542.664l-12.5231,8.153l3.011,-0.287l9.6622,-6.29l-0.1501,-1.576z"/>
    <path id="svg_58" fill="#7FC1E7" d="m41.1443,541.779l-0.3369,-0.514l-15.1117,9.839l3.0097,-0.287l12.5231,-8.153l-0.0842,-0.885z"/>
    <path id="svg_59" fill="#7FC1E7" d="m40.8072,541.265l-0.7672,-1.174l-17.3556,11.299l3.011,-0.286l15.1118,-9.839z"/>
    <path id="svg_60" fill="#7FC1E7" d="m40.0404,540.091l-0.767,-1.173l-17.6552,11.494l0.6645,1.017l0.4022,-0.039l17.3555,-11.299z"/>
    <path id="svg_61" fill="#7FC1E7" d="m38.5003,537.764l0.7673,1.172l-17.6542,11.495l-0.7673,-1.173l17.6542,-11.494z"/>
    <path id="svg_62" fill="#7FC1E7" d="m38.5043,537.744l-0.5376,-0.823l-0.9009,0.086l-16.9837,11.058l0.7685,1.174l17.6537,-11.495z"/>
    <path id="svg_63" fill="#7FC1E7" d="m34.0567,537.294l-14.7411,9.598l0.7671,1.173l16.9837,-11.058l-3.0097,0.287z"/>
    <path id="svg_64" fill="#7FC1E7" d="m31.0456,537.581l-12.048,7.844l0.1091,1.146l0.2088,0.321l14.7411,-9.598l-3.011,0.287z"/>
    <path id="svg_65" fill="#7FC1E7" d="m28.0352,537.867l-9.1883,5.983l0.15,1.575l12.048,-7.844l-3.0097,0.286z"/>
    <path id="svg_66" fill="#7FC1E7" d="m25.0255,538.154l-6.3288,4.12l0.1501,1.576l9.1884,-5.983l-3.0097,0.287z"/>
    <path id="svg_67" fill="#7FC1E7" d="m22.0153,538.441l-3.4677,2.258l0.15,1.575l6.3288,-4.12l-3.0111,0.287z"/>
    <path id="svg_68" fill="#7FC1E7" d="m19.0049,538.727l-0.6081,0.396l0.1502,1.576l3.4676,-2.258l-3.0097,0.286z"/>
    <path id="svg_69" fill="#7FC1E7" d="m18.3968,539.123l0.6081,-0.396l-0.64,0.061l0.0319,0.335z"/>
    <path id="svg_70" fill="#7FC1E7" d="m25.127,541.435l-0.8573,0.557l0.9022,-0.086l-0.0449,-0.471z"/>
    <path id="svg_71" fill="#7FC1E7" d="m24.9775,539.858l-3.7182,2.421l3.011,-0.287l0.8573,-0.557l-0.1501,-1.577z"/>
    <path id="svg_72" fill="#7FC1E7" d="m24.8271,538.284l-6.5779,4.281l3.0097,-0.286l3.7182,-2.421l-0.15,-1.574z"/>
    <path id="svg_73" fill="#7FC1E7" d="m24.6768,536.707l-9.4376,6.145l3.0097,-0.287l6.578,-4.281l-0.1501,-1.577z"/>
    <path id="svg_74" fill="#7FC1E7" d="m24.5273,535.133l-12.2986,8.006l3.0111,-0.287l9.4375,-6.145l-0.15,-1.574z"/>
    <path id="svg_75" fill="#7FC1E7" d="m24.431,534.124l-0.276,-0.422l-14.93626,9.723l3.00966,-0.286l12.2986,-8.006l-0.096,-1.009z"/>
    <path id="svg_76" fill="#7FC1E7" d="m24.1558,533.702l-0.7672,-1.174l-17.18009,11.184l3.01106,-0.287l14.93623,-9.723z"/>
    <path id="svg_77" fill="#7FC1E7" d="m23.3871,532.528l-0.7671,-1.173l-19.42264,12.644l3.00967,-0.287l17.18007,-11.184z"/>
    <path id="svg_78" fill="#7FC1E7" d="m22.6206,531.355l-0.7685,-1.174l-21.6638,14.104l3.00966,-0.286l19.42264,-12.644z"/>
    <path id="svg_79" fill="#7FC1E7" d="m21.8529,530.181l-0.767,-1.172l-22.41787,14.594l0.51017,0.779l1.01095,-0.097l21.66375,-14.104z"/>
    <path id="svg_80" fill="#7FC1E7" d="m20.3098,527.856l0.7673,1.173l-22.41666,14.596l-0.76732,-1.173l22.41668,-14.596z"/>
    <path id="svg_81" fill="#7FC1E7" d="m19.5423,526.685l0.7673,1.173l-22.41677,14.596l-0.76731,-1.173l22.41678,-14.596z"/>
    <path id="svg_82" fill="#7FC1E7" d="m18.7766,525.507l0.7673,1.173l-22.41667,14.596l-0.76731,-1.173l22.41668,-14.596z"/>
    <path id="svg_83" fill="#7FC1E7" d="m18.0071,524.337l0.7673,1.172l-22.41672,14.596l-0.76732,-1.173l22.41674,-14.595z"/>
    <path id="svg_84" fill="#7FC1E7" d="m18.0157,524.315l-0.0642,-0.098l-2.761,0.263l-20.35986,13.255l0.76721,1.174l22.41785,-14.594z"/>
    <path id="svg_85" fill="#7FC1E7" d="m12.1794,524.767l-18.11589,11.795l0.76708,1.173l20.35981,-13.255l-3.011,0.287z"/>
    <path id="svg_86" fill="#7FC1E7" d="m9.16901,525.053l-15.87475,10.335l0.76856,1.174l18.11588,-11.795l-3.00969,0.286z"/>
    <path id="svg_87" fill="#7FC1E7" d="m6.15928,525.34l-13.49535,8.786l0.0333,0.35l0.59696,0.912l15.87476,-10.335l-3.00967,0.287z"/>
    <path id="svg_88" fill="#7FC1E7" d="m3.14909,525.627l-10.63425,6.924l0.14997,1.575l13.49535,-8.786l-3.01107,0.287z"/>
    <path id="svg_89" fill="#7FC1E7" d="m0.13877,525.913l-7.77469,5.062l0.1501,1.576l10.63426,-6.924l-3.00967,0.286z"/>
    <path id="svg_90" fill="#7FC1E7" d="m-7.63602,530.975l7.77469,-5.062l-8.18252,0.78l0.40783,4.282z"/>
    <path id="svg_91" fill="#7FC1E7" d="m98.0986,550.812l-11.6375,7.577l3.0097,-0.287l8.7779,-5.714l-0.1501,-1.576z"/>
    <path id="svg_92" fill="#7FC1E7" d="m97.9682,549.439l-0.0993,-0.15l-14.4171,9.387l3.0097,-0.287l11.6375,-7.577l-0.1308,-1.373z"/>
    <path id="svg_93" fill="#7FC1E7" d="m97.8687,549.289l-0.7672,-1.174l-16.661,10.847l3.0111,-0.287l14.4171,-9.386z"/>
    <path id="svg_94" fill="#7FC1E7" d="m97.102,548.115l-0.7671,-1.173l-17.6552,11.493l0.427,0.654l1.3343,-0.127l16.661,-10.847z"/>
    <path id="svg_95" fill="#7FC1E7" d="m95.5618,545.787l0.7673,1.173l-17.6542,11.495l-0.7673,-1.173l17.6542,-11.495z"/>
    <path id="svg_96" fill="#7FC1E7" d="m94.7952,544.621l0.7673,1.173l-17.6542,11.495l-0.7673,-1.173l17.6542,-11.495z"/>
    <path id="svg_97" fill="#7FC1E7" d="m94.799,544.595l-0.0079,-0.011l-2.9785,0.283l-15.4358,10.049l0.7684,1.172l17.6538,-11.493z"/>
    <path id="svg_98" fill="#7FC1E7" d="m88.8015,545.154l-12.9337,8.421l0.0626,0.657l0.4462,0.684l15.4359,-10.049l-3.011,0.287z"/>
    <path id="svg_99" fill="#7FC1E7" d="m85.7921,545.441l-10.0741,6.558l0.1501,1.576l12.9337,-8.421l-3.0097,0.287z"/>
    <path id="svg_100" fill="#7FC1E7" d="m82.781,545.727l-7.2131,4.697l0.15,1.575l10.0741,-6.558l-3.011,0.286z"/>
    <path id="svg_101" fill="#7FC1E7" d="m79.7706,546.014l-4.3535,2.834l0.1501,1.576l7.2131,-4.697l-3.0097,0.287z"/>
    <path id="svg_102" fill="#7FC1E7" d="m76.7618,546.301l-1.4938,0.972l0.15,1.575l4.3535,-2.834l-3.0097,0.287z"/>
    <path id="svg_103" fill="#7FC1E7" d="m75.268,547.273l1.4937,-0.972l-1.5721,0.149l0.0784,0.823z"/>
    <path id="svg_104" fill="#7FC1E7" d="m81.8477,548.007l-2.8325,1.845l2.9811,-0.284l-0.1486,-1.561z"/>
    <path id="svg_105" fill="#7FC1E7" d="m81.6973,546.432l-5.6922,3.707l3.0096,-0.287l2.8325,-1.845l-0.1499,-1.575z"/>
    <path id="svg_106" fill="#7FC1E7" d="m81.5469,544.856l-8.5518,5.569l3.0097,-0.286l5.6922,-3.707l-0.1501,-1.576z"/>
    <path id="svg_107" fill="#7FC1E7" d="m81.3975,543.281l-11.4129,7.431l3.0111,-0.287l8.5517,-5.569l-0.1499,-1.575z"/>
    <path id="svg_108" fill="#7FC1E7" d="m81.255,541.785l-0.0386,-0.059l-14.2415,9.273l3.0097,-0.287l11.4128,-7.431l-0.1424,-1.496z"/>
    <path id="svg_109" fill="#7FC1E7" d="m81.2162,541.726l-0.7671,-1.173l-16.4854,10.733l3.011,-0.287l14.2415,-9.273z"/>
    <path id="svg_110" fill="#7FC1E7" d="m80.4497,540.553l-0.7672,-1.174l-17.655,11.495l0.3674,0.561l1.5694,-0.149l16.4854,-10.733z"/>
    <path id="svg_111" fill="#7FC1E7" d="m78.9085,538.229l0.7673,1.173l-17.6542,11.494l-0.7673,-1.173l17.6542,-11.494z"/>
    <path id="svg_112" fill="#7FC1E7" d="m78.1429,537.051l0.7673,1.173l-17.6543,11.495l-0.7672,-1.173l17.6542,-11.495z"/>
    <path id="svg_113" fill="#7FC1E7" d="m78.1462,537.032l-0.0675,-0.104l-2.7434,0.261l-15.6114,10.164l0.7686,1.174l17.6537,-11.495z"/>
    <path id="svg_114" fill="#7FC1E7" d="m72.3249,537.476l-13.1584,8.567l0.051,0.535l0.507,0.775l15.6114,-10.164l-3.011,0.287z"/>
    <path id="svg_115" fill="#7FC1E7" d="m69.3146,537.763l-10.2987,6.705l0.1499,1.575l13.1584,-8.567l-3.0096,0.287z"/>
    <path id="svg_116" fill="#7FC1E7" d="m66.3048,538.049l-7.4391,4.843l0.1501,1.576l10.2987,-6.705l-3.0097,0.286z"/>
    <path id="svg_117" fill="#7FC1E7" d="m63.2937,538.336l-4.5781,2.981l0.15,1.575l7.4391,-4.843l-3.011,0.287z"/>
    <path id="svg_118" fill="#7FC1E7" d="m60.2843,538.622l-1.7185,1.119l0.1501,1.576l4.578,-2.981l-3.0096,0.286z"/>
    <path id="svg_119" fill="#7FC1E7" d="m58.5657,539.741l1.7185,-1.119l-1.8086,0.173l0.0901,0.946z"/>
    <path id="svg_120" fill="#7FC1E7" d="m65.1475,540.476l-2.6093,1.698l2.7461,-0.261l-0.1368,-1.437z"/>
    <path id="svg_121" fill="#7FC1E7" d="m64.9971,538.901l-5.469,3.56l3.0097,-0.287l2.6092,-1.698l-0.1499,-1.575z"/>
    <path id="svg_122" fill="#7FC1E7" d="m64.8477,537.325l-8.3286,5.422l3.0097,-0.286l5.469,-3.56l-0.1501,-1.576z"/>
    <path id="svg_123" fill="#7FC1E7" d="m64.6973,535.75l-11.1897,7.284l3.0111,-0.287l8.3285,-5.422l-0.1499,-1.575z"/>
    <path id="svg_124" fill="#7FC1E7" d="m64.5469,534.174l-14.0492,9.147l3.0097,-0.287l11.1896,-7.284l-0.1501,-1.576z"/>
    <path id="svg_125" fill="#7FC1E7" d="m64.5431,534.131l-0.7462,-1.141l-16.31,10.617l3.0111,-0.286l14.0492,-9.147l-0.0041,-0.043z"/>
    <path id="svg_126" fill="#7FC1E7" d="m63.7974,532.99l-0.7672,-1.174l-17.6551,11.495l0.3079,0.468l1.8044,-0.172l16.31,-10.617z"/>
    <path id="svg_127" fill="#7FC1E7" d="m62.2561,530.662l0.7673,1.173l-17.6542,11.494l-0.7673,-1.173l17.6542,-11.494z"/>
    <path id="svg_128" fill="#7FC1E7" d="m61.4895,529.489l0.7673,1.173l-17.6542,11.495l-0.7673,-1.173l17.6542,-11.495z"/>
    <path id="svg_129" fill="#7FC1E7" d="m61.4942,529.469l-0.1283,-0.195l-2.5069,0.238l-15.787,10.278l0.7685,1.174l17.6537,-11.495z"/>
    <path id="svg_130" fill="#7FC1E7" d="m55.8474,529.799l-13.3818,8.713l0.0393,0.412l0.5665,0.866l15.787,-10.278l-3.011,0.287z"/>
    <path id="svg_131" fill="#7FC1E7" d="m52.838,530.086l-10.522,6.851l0.1499,1.575l13.3818,-8.713l-3.0097,0.287z"/>
    <path id="svg_132" fill="#7FC1E7" d="m49.8282,530.372l-7.6624,4.989l0.1501,1.576l10.522,-6.851l-3.0097,0.286z"/>
    <path id="svg_133" fill="#7FC1E7" d="m46.8171,530.659l-4.8014,3.127l0.15,1.575l7.6624,-4.989l-3.011,0.287z"/>
    <path id="svg_134" fill="#7FC1E7" d="m43.8077,530.946l-1.9418,1.264l0.1501,1.576l4.8014,-3.127l-3.0097,0.287z"/>
    <path id="svg_135" fill="#7FC1E7" d="m41.8658,532.21l1.9418,-1.264l-2.0436,0.194l0.1018,1.07z"/>
    <path id="svg_136" fill="#7FC1E7" d="m48.4463,532.945l-2.3846,1.552l2.5097,-0.239l-0.1251,-1.313z"/>
    <path id="svg_137" fill="#7FC1E7" d="m48.2959,531.369l-5.2442,3.415l3.0097,-0.287l2.3846,-1.552l-0.1501,-1.576z"/>
    <path id="svg_138" fill="#7FC1E7" d="m48.1455,529.794l-8.1039,5.277l3.0097,-0.287l5.2442,-3.415l-0.15,-1.575z"/>
    <path id="svg_139" fill="#7FC1E7" d="m47.9961,528.218l-10.9648,7.139l3.011,-0.286l8.1039,-5.277l-0.1501,-1.576z"/>
    <path id="svg_140" fill="#7FC1E7" d="m47.8457,526.643l-13.8245,9.001l3.0097,-0.287l10.9648,-7.139l-0.15,-1.575z"/>
    <path id="svg_141" fill="#7FC1E7" d="m47.8297,526.475l-0.6853,-1.048l-16.1329,10.504l3.0097,-0.287l13.8245,-9.001l-0.016,-0.168z"/>
    <path id="svg_142" fill="#7FC1E7" d="m47.1441,525.427l-0.7672,-1.174l-17.6551,11.495l0.2471,0.377l2.0422,-0.194l16.133,-10.504z"/>
    <path id="svg_143" fill="#7FC1E7" d="m45.6028,523.102l0.7673,1.172l-17.6542,11.495l-0.7673,-1.173l17.6542,-11.494z"/>
    <path id="svg_144" fill="#7FC1E7" d="m44.8352,521.93l0.7673,1.173l-17.6542,11.495l-0.7673,-1.173l17.6542,-11.495z"/>
    <path id="svg_145" fill="#7FC1E7" d="m44.8413,521.906l-0.1878,-0.287l-2.2719,0.217l-15.9626,10.391l0.7686,1.174l17.6537,-11.495z"/>
    <path id="svg_146" fill="#7FC1E7" d="m39.3708,522.123l-13.605,8.858l0.0273,0.287l0.6261,0.959l15.9626,-10.391l-3.011,0.287z"/>
    <path id="svg_147" fill="#7FC1E7" d="m36.3614,522.409l-10.7455,6.995l0.1501,1.577l13.6051,-8.859l-3.0097,0.287z"/>
    <path id="svg_148" fill="#7FC1E7" d="m33.3516,522.696l-7.8857,5.134l0.15,1.574l10.7454,-6.995l-3.0097,0.287z"/>
    <path id="svg_149" fill="#7FC1E7" d="m30.3405,522.982l-5.0248,3.271l0.1501,1.577l7.8858,-5.134l-3.0111,0.286z"/>
    <path id="svg_150" fill="#7FC1E7" d="m27.3311,523.269l-2.1651,1.41l0.15,1.574l5.0248,-3.271l-3.0097,0.287z"/>
    <path id="svg_151" fill="#7FC1E7" d="m25.166,524.679l2.1651,-1.41l-2.2787,0.217l0.1136,1.193z"/>
    <path id="svg_152" fill="#7FC1E7" d="m31.7461,525.414l-2.1613,1.407l2.2746,-0.217l-0.1133,-1.19z"/>
    <path id="svg_153" fill="#7FC1E7" d="m31.5957,523.838l-5.0209,3.269l3.0097,-0.286l2.1613,-1.407l-0.1501,-1.576z"/>
    <path id="svg_154" fill="#7FC1E7" d="m31.4463,522.263l-7.8806,5.131l3.0097,-0.287l5.0209,-3.269l-0.15,-1.575z"/>
    <path id="svg_155" fill="#7FC1E7" d="m31.2959,520.687l-10.7415,6.994l3.011,-0.287l7.8806,-5.131l-0.1501,-1.576z"/>
    <path id="svg_156" fill="#7FC1E7" d="m31.1455,519.112l-13.6012,8.855l3.0097,-0.286l10.7415,-6.994l-0.15,-1.575z"/>
    <path id="svg_157" fill="#7FC1E7" d="m31.1184,518.821l-0.6259,-0.957l-15.9573,10.39l3.0097,-0.287l13.6012,-8.855l-0.0277,-0.291z"/>
    <path id="svg_158" fill="#7FC1E7" d="m30.4927,517.864l-0.7672,-1.174l-17.6551,11.495l0.1877,0.286l2.2773,-0.217l15.9573,-10.39z"/>
    <path id="svg_159" fill="#7FC1E7" d="m28.9485,515.543l0.7673,1.173l-17.6542,11.495l-0.7673,-1.173l17.6542,-11.495z"/>
    <path id="svg_160" fill="#7FC1E7" d="m28.1839,514.363l0.7673,1.173l-17.6542,11.495l-0.7674,-1.173l17.6543,-11.495z"/>
    <path id="svg_161" fill="#7FC1E7" d="m28.1894,514.344l-0.2486,-0.38l-2.0355,0.194l-16.13812,10.506l0.76852,1.174l17.6537,-11.494z"/>
    <path id="svg_162" fill="#7FC1E7" d="m22.8942,514.444l-13.82968,9.004l0.01575,0.166l0.68687,1.05l16.13816,-10.506l-3.0111,0.286z"/>
    <path id="svg_163" fill="#7FC1E7" d="m19.8849,514.731l-10.97004,7.142l0.14998,1.575l13.82966,-9.004l-3.0096,0.287z"/>
    <path id="svg_164" fill="#7FC1E7" d="m16.8751,515.018l-8.1103,5.281l0.14997,1.574l10.97003,-7.142l-3.0097,0.287z"/>
    <path id="svg_165" fill="#7FC1E7" d="m8.7647,520.299l8.1103,-5.281l-8.53582,0.812l0.42552,4.469z"/>
    <path id="svg_166" fill="#7FC1E7" d="m61.4297,521.146l-2.0218,1.317l2.1279,-0.203l-0.1061,-1.114z"/>
    <path id="svg_167" fill="#7FC1E7" d="m61.2793,519.571l-4.8828,3.178l3.011,-0.286l2.0218,-1.317l-0.15,-1.575z"/>
    <path id="svg_168" fill="#7FC1E7" d="m61.1299,517.995l-7.7424,5.041l3.0097,-0.287l4.8828,-3.178l-0.1501,-1.576z"/>
    <path id="svg_169" fill="#7FC1E7" d="m60.9795,516.42l-10.6021,6.902l3.0097,-0.286l7.7424,-5.041l-0.15,-1.575z"/>
    <path id="svg_170" fill="#7FC1E7" d="m60.8291,514.844l-13.463,8.765l3.011,-0.286l10.6021,-6.903l-0.1501,-1.576z"/>
    <path id="svg_171" fill="#7FC1E7" d="m60.7943,514.477l-0.5889,-0.9l-15.8489,10.319l3.0097,-0.287l13.4631,-8.765l-0.035,-0.367z"/>
    <path id="svg_172" fill="#7FC1E7" d="m60.2055,513.577l-0.7671,-1.173l-18.0928,11.779l3.011,-0.287l15.8489,-10.319z"/>
    <path id="svg_173" fill="#7FC1E7" d="m59.438,512.404l-0.7685,-1.174l-20.334,13.239l3.0097,-0.286l18.0928,-11.779z"/>
    <path id="svg_174" fill="#7FC1E7" d="m58.6703,511.23l-0.7671,-1.173l-22.5766,14.699l3.0097,-0.287l20.334,-13.239z"/>
    <path id="svg_175" fill="#7FC1E7" d="m57.9029,510.057l-0.7672,-1.174l-24.8205,16.16l3.0111,-0.287l22.5766,-14.699z"/>
    <path id="svg_176" fill="#7FC1E7" d="m57.1352,508.883l-0.7685,-1.172l-25.0515,16.31l0.6884,1.051l0.3111,-0.029l24.8205,-16.16z"/>
    <path id="svg_177" fill="#7FC1E7" d="m55.5921,506.559l0.7673,1.173l-25.0507,16.311l-0.7673,-1.173l25.0507,-16.311z"/>
    <path id="svg_178" fill="#7FC1E7" d="m54.8274,505.382l0.7673,1.173l-25.0506,16.311l-0.7673,-1.173l25.0506,-16.311z"/>
    <path id="svg_179" fill="#7FC1E7" d="m54.0569,504.21l0.7673,1.173l-25.0506,16.311l-0.7673,-1.173l25.0506,-16.311z"/>
    <path id="svg_180" fill="#7FC1E7" d="m53.2913,503.039l0.7673,1.173l-25.0506,16.311l-0.7673,-1.173l25.0506,-16.311z"/>
    <path id="svg_181" fill="#7FC1E7" d="m52.5247,501.863l0.7673,1.173l-25.0506,16.31l-0.7673,-1.173l25.0506,-16.31z"/>
    <path id="svg_182" fill="#7FC1E7" d="m52.5299,501.843l-0.0432,-0.064l-2.8425,0.27l-22.9329,14.931l0.7671,1.173l25.0515,-16.31z"/>
    <path id="svg_183" fill="#7FC1E7" d="m46.6349,502.336l-20.6918,13.47l0.7686,1.174l22.9328,-14.931l-3.0096,0.287z"/>
    <path id="svg_184" fill="#7FC1E7" d="m43.6251,502.623l-18.4492,12.01l0.7671,1.173l20.6918,-13.47l-3.0097,0.287z"/>
    <path id="svg_185" fill="#7FC1E7" d="m40.6139,502.909l-16.2053,10.55l0.7672,1.174l18.4492,-12.01l-3.0111,0.286z"/>
    <path id="svg_186" fill="#7FC1E7" d="m37.6046,503.196l-13.9176,9.06l0.0111,0.117l0.7108,1.086l16.2054,-10.55l-3.0097,0.287z"/>
    <path id="svg_187" fill="#7FC1E7" d="m34.5935,503.483l-11.0566,7.198l0.15,1.575l13.9176,-9.06l-3.011,0.287z"/>
    <path id="svg_188" fill="#7FC1E7" d="m23.5372,510.681l11.0566,-7.198l-11.6366,1.108l0.58,6.09z"/>
    <path id="svg_189" fill="#7FC1E7" d="m78.957,529.812l-0.812,0.529l0.8546,-0.081l-0.0426,-0.448z"/>
    <path id="svg_190" fill="#7FC1E7" d="m78.8076,528.236l-3.6716,2.392l3.0097,-0.287l0.812,-0.529l-0.1501,-1.576z"/>
    <path id="svg_191" fill="#7FC1E7" d="m78.6572,526.661l-6.5327,4.253l3.011,-0.286l3.6717,-2.392l-0.15,-1.575z"/>
    <path id="svg_192" fill="#7FC1E7" d="m78.5078,525.085l-9.3923,6.116l3.0097,-0.287l6.5327,-4.253l-0.1501,-1.576z"/>
    <path id="svg_193" fill="#7FC1E7" d="m78.3574,523.511l-12.252,7.977l3.0097,-0.287l9.3923,-6.116l-0.15,-1.574z"/>
    <path id="svg_194" fill="#7FC1E7" d="m78.2591,522.477l-0.2645,-0.403l-14.9,9.7l3.011,-0.286l12.252,-7.977l-0.0985,-1.034z"/>
    <path id="svg_195" fill="#7FC1E7" d="m77.9947,522.074l-0.7672,-1.174l-17.1425,11.161l3.0097,-0.287l14.9,-9.7z"/>
    <path id="svg_196" fill="#7FC1E7" d="m77.2269,520.9l-0.767,-1.173l-17.6552,11.493l0.5923,0.907l0.6875,-0.066l17.1424,-11.161z"/>
    <path id="svg_197" fill="#7FC1E7" d="m75.6868,518.571l0.7673,1.173l-17.6542,11.495l-0.7674,-1.173l17.6543,-11.495z"/>
    <path id="svg_198" fill="#7FC1E7" d="m75.6912,518.553l-0.6099,-0.934l-0.6168,0.059l-17.1941,11.195l0.7671,1.174l17.6537,-11.494z"/>
    <path id="svg_199" fill="#7FC1E7" d="m71.4551,517.965l-14.9528,9.736l0.7684,1.172l17.1941,-11.195l-3.0097,0.287z"/>
    <path id="svg_200" fill="#7FC1E7" d="m68.4454,518.251l-12.3192,8.021l0.095,0.997l0.281,0.432l14.9529,-9.736l-3.0097,0.286z"/>
    <path id="svg_201" fill="#7FC1E7" d="m65.4343,518.538l-9.4581,6.159l0.1499,1.575l12.3192,-8.021l-3.011,0.287z"/>
    <path id="svg_202" fill="#7FC1E7" d="m62.4249,518.825l-6.5986,4.296l0.1501,1.576l9.4582,-6.159l-3.0097,0.287z"/>
    <path id="svg_203" fill="#7FC1E7" d="m59.4151,519.111l-3.7388,2.435l0.15,1.575l6.5985,-4.296l-3.0097,0.286z"/>
    <path id="svg_204" fill="#7FC1E7" d="m56.404,519.398l-0.8779,0.572l0.1501,1.576l3.7388,-2.435l-3.011,0.287z"/>
    <path id="svg_205" fill="#7FC1E7" d="m55.5264,519.97l0.8779,-0.572l-0.9239,0.088l0.046,0.484z"/>
    <path id="svg_206" fill="#7FC1E7" d="m95.6572,537.343l-1.0354,0.675l1.0898,-0.104l-0.0544,-0.571z"/>
    <path id="svg_207" fill="#7FC1E7" d="m95.5078,535.769l-3.8951,2.535l3.0097,-0.286l1.0354,-0.675l-0.15,-1.574z"/>
    <path id="svg_208" fill="#7FC1E7" d="m95.3574,534.193l-6.756,4.398l3.011,-0.287l3.8951,-2.535l-0.1501,-1.576z"/>
    <path id="svg_209" fill="#7FC1E7" d="m95.207,532.618l-9.6157,6.26l3.0096,-0.287l6.7561,-4.398l-0.15,-1.575z"/>
    <path id="svg_210" fill="#7FC1E7" d="m95.0576,531.042l-12.4753,8.122l3.0097,-0.286l9.6157,-6.26l-0.1501,-1.576z"/>
    <path id="svg_211" fill="#7FC1E7" d="m94.9705,530.131l-0.3241,-0.494l-15.0756,9.814l3.0111,-0.287l12.4753,-8.122l-0.0867,-0.911z"/>
    <path id="svg_212" fill="#7FC1E7" d="m94.647,529.637l-0.7672,-1.175l-17.3181,11.276l3.0097,-0.287l15.0756,-9.814z"/>
    <path id="svg_213" fill="#7FC1E7" d="m93.8793,528.462l-0.7671,-1.172l-17.6552,11.493l0.6531,0.998l0.4511,-0.043l17.3181,-11.276z"/>
    <path id="svg_214" fill="#7FC1E7" d="m92.3411,526.134l0.7673,1.173l-17.6542,11.495l-0.7673,-1.173l17.6542,-11.495z"/>
    <path id="svg_215" fill="#7FC1E7" d="m92.344,526.116l-0.5503,-0.841l-0.852,0.081l-17.0186,11.08l0.7672,1.174l17.6537,-11.494z"/>
    <path id="svg_216" fill="#7FC1E7" d="m87.9317,525.643l-14.7773,9.621l0.7684,1.172l17.0186,-11.08l-3.0097,0.287z"/>
    <path id="svg_217" fill="#7FC1E7" d="m84.922,525.93l-12.096,7.873l0.1067,1.121l0.2216,0.34l14.7773,-9.621l-3.0096,0.287z"/>
    <path id="svg_218" fill="#7FC1E7" d="m81.9108,526.216l-9.2349,6.012l0.15,1.575l12.096,-7.873l-3.0111,0.286z"/>
    <path id="svg_219" fill="#7FC1E7" d="m78.9015,526.503l-6.3753,4.15l0.15,1.575l9.2349,-6.012l-3.0096,0.287z"/>
    <path id="svg_220" fill="#7FC1E7" d="m75.8903,526.79l-3.5143,2.287l0.1501,1.576l6.3753,-4.15l-3.0111,0.287z"/>
    <path id="svg_221" fill="#7FC1E7" d="m72.8809,527.076l-0.6546,0.426l0.15,1.575l3.5143,-2.287l-3.0097,0.286z"/>
    <path id="svg_222" fill="#7FC1E7" d="m72.2263,527.502l0.6546,-0.426l-0.6889,0.066l0.0343,0.36z"/>
    <path id="svg_223" fill="#7FC1E7" d="m112.357,544.874l-1.258,0.821l1.325,-0.127l-0.067,-0.694z"/>
    <path id="svg_224" fill="#7FC1E7" d="m112.208,543.3l-4.118,2.681l3.009,-0.286l1.259,-0.821l-0.15,-1.574z"/>
    <path id="svg_225" fill="#7FC1E7" d="m112.058,541.724l-6.98,4.544l3.011,-0.287l4.119,-2.681l-0.15,-1.576z"/>
    <path id="svg_226" fill="#7FC1E7" d="m111.908,540.149l-9.839,6.405l3.01,-0.286l6.979,-4.545l-0.15,-1.574z"/>
    <path id="svg_227" fill="#7FC1E7" d="m111.758,538.573l-12.7002,8.268l3.0112,-0.287l9.839,-6.405l-0.15,-1.576z"/>
    <path id="svg_228" fill="#7FC1E7" d="m111.683,537.785l-0.384,-0.587l-15.2508,9.93l3.0096,-0.287l12.7002,-8.268l-0.075,-0.788z"/>
    <path id="svg_229" fill="#7FC1E7" d="m111.299,537.198l-0.767,-1.173l-17.4936,11.389l3.0097,-0.286l15.2509,-9.93z"/>
    <path id="svg_230" fill="#7FC1E7" d="m110.532,536.025l-0.767,-1.174l-17.6555,11.495l0.7125,1.089l0.216,-0.021l17.494,-11.389z"/>
    <path id="svg_231" fill="#7FC1E7" d="m108.993,533.701l0.768,1.173l-17.6545,11.495l-0.7673,-1.173l17.6538,-11.495z"/>
    <path id="svg_232" fill="#7FC1E7" d="m108.996,533.679l-0.49,-0.75l-1.088,0.104l-16.8442,10.966l0.7684,1.173l17.6538,-11.493z"/>
    <path id="svg_233" fill="#7FC1E7" d="m104.408,533.32l-14.6016,9.505l0.7672,1.174l16.8444,-10.966l-3.01,0.287z"/>
    <path id="svg_234" fill="#7FC1E7" d="m101.399,533.606l-11.8717,7.729l0.1185,1.244l0.1605,0.246l14.6017,-9.505l-3.009,0.286z"/>
    <path id="svg_235" fill="#7FC1E7" d="m98.3874,533.893l-9.0102,5.866l0.1501,1.576l11.8707,-7.729l-3.0106,0.287z"/>
    <path id="svg_236" fill="#7FC1E7" d="m95.378,534.18l-6.1505,4.004l0.1499,1.575l9.0103,-5.866l-3.0097,0.287z"/>
    <path id="svg_237" fill="#7FC1E7" d="m92.3669,534.466l-3.2896,2.142l0.1501,1.576l6.1505,-4.004l-3.011,0.286z"/>
    <path id="svg_238" fill="#7FC1E7" d="m89.3575,534.753l-0.4299,0.28l0.15,1.575l3.2896,-2.142l-3.0097,0.287z"/>
    <path id="svg_239" fill="#7FC1E7" d="m88.9275,535.033l0.4299,-0.28l-0.4525,0.043l0.0226,0.237z"/>
    <path id="svg_240" fill="#7FC1E7" d="m128.909,550.831l-4.343,2.828l3.01,-0.286l1.483,-0.966l-0.15,-1.576z"/>
    <path id="svg_241" fill="#7FC1E7" d="m128.759,549.256l-7.204,4.69l3.011,-0.287l4.343,-2.828l-0.15,-1.575z"/>
    <path id="svg_242" fill="#7FC1E7" d="m128.609,547.68l-10.063,6.553l3.009,-0.287l7.204,-4.69l-0.15,-1.576z"/>
    <path id="svg_243" fill="#7FC1E7" d="m128.459,546.105l-12.925,8.414l3.011,-0.286l10.064,-6.553l-0.15,-1.575z"/>
    <path id="svg_244" fill="#7FC1E7" d="m128.396,545.441l-0.444,-0.68l-15.427,10.045l3.01,-0.287l12.925,-8.414l-0.064,-0.664z"/>
    <path id="svg_245" fill="#7FC1E7" d="m127.952,544.761l-0.768,-1.173l-17.655,11.494l0.007,0.009l2.989,-0.285l15.427,-10.045z"/>
    <path id="svg_246" fill="#7FC1E7" d="m126.414,542.433l0.768,1.173l-17.655,11.495l-0.767,-1.173l17.654,-11.495z"/>
    <path id="svg_247" fill="#7FC1E7" d="m125.647,541.262l0.767,1.173l-17.654,11.495l-0.767,-1.173l17.654,-11.495z"/>
    <path id="svg_248" fill="#7FC1E7" d="m125.649,541.242l-0.43,-0.658l-1.324,0.126l-16.668,10.852l0.768,1.173l17.654,-11.493z"/>
    <path id="svg_249" fill="#7FC1E7" d="m120.886,540.996l-14.426,9.392l0.767,1.174l16.669,-10.852l-3.01,0.286z"/>
    <path id="svg_250" fill="#7FC1E7" d="m117.875,541.283l-11.647,7.583l0.13,1.368l0.102,0.154l14.426,-9.392l-3.011,0.287z"/>
    <path id="svg_251" fill="#7FC1E7" d="m114.864,541.57l-8.786,5.721l0.15,1.575l11.646,-7.583l-3.01,0.287z"/>
    <path id="svg_252" fill="#7FC1E7" d="m111.855,541.856l-5.928,3.859l0.15,1.576l8.787,-5.721l-3.009,0.286z"/>
    <path id="svg_253" fill="#7FC1E7" d="m108.843,542.143l-3.066,1.997l0.15,1.575l5.927,-3.859l-3.011,0.287z"/>
    <path id="svg_254" fill="#7FC1E7" d="m105.834,542.43l-0.206,0.134l0.15,1.576l3.066,-1.997l-3.01,0.287z"/>
    <path id="svg_255" fill="#7FC1E7" d="m105.627,542.564l0.207,-0.134l-0.217,0.021l0.01,0.113z"/>
    <path id="svg_256" fill="#7FC1E7" d="m143.067,550l0.767,1.173l-17.654,11.495l-0.768,-1.173l17.655,-11.495z"/>
    <path id="svg_257" fill="#7FC1E7" d="m142.299,548.825l0.767,1.173l-17.654,11.495l-0.767,-1.173l17.654,-11.495z"/>
    <path id="svg_258" fill="#7FC1E7" d="m142.301,548.804l-0.369,-0.566l-1.56,0.149l-16.493,10.738l0.768,1.173l17.654,-11.494z"/>
    <path id="svg_259" fill="#7FC1E7" d="m137.362,548.673l-14.25,9.278l0.767,1.174l16.493,-10.739l-3.01,0.287z"/>
    <path id="svg_260" fill="#7FC1E7" d="m134.351,548.96l-11.423,7.437l0.142,1.491l0.042,0.063l14.25,-9.278l-3.011,0.287z"/>
    <path id="svg_261" fill="#7FC1E7" d="m131.341,549.246l-8.564,5.576l0.15,1.575l11.424,-7.437l-3.01,0.286z"/>
    <path id="svg_262" fill="#7FC1E7" d="m128.332,549.533l-5.704,3.713l0.15,1.576l8.564,-5.576l-3.01,0.287z"/>
    <path id="svg_263" fill="#7FC1E7" d="m125.321,549.82l-2.843,1.851l0.15,1.575l5.704,-3.713l-3.011,0.287z"/>
    <path id="svg_264" fill="#7FC1E7" d="m122.478,551.671l2.842,-1.851l-2.992,0.285l0.15,1.566z"/>
    <path id="svg_265" fill="#7FC1E7" d="m59.0947,505.934l-1.0314,0.673l1.0856,-0.104l-0.0542,-0.569z"/>
    <path id="svg_266" fill="#7FC1E7" d="m58.9453,504.359l-3.8925,2.535l3.011,-0.287l1.0315,-0.673l-0.15,-1.575z"/>
    <path id="svg_267" fill="#7FC1E7" d="m58.7949,502.783l-6.7521,4.397l3.0097,-0.286l3.8925,-2.534l-0.1501,-1.577z"/>
    <path id="svg_268" fill="#7FC1E7" d="m58.684,501.619l-0.2005,-0.306l-9.4504,6.154l3.0097,-0.287l6.7521,-4.397l-0.1109,-1.164z"/>
    <path id="svg_269" fill="#7FC1E7" d="m58.4838,501.313l-0.7671,-1.173l-11.6943,7.614l3.011,-0.287l9.4504,-6.154z"/>
    <path id="svg_270" fill="#7FC1E7" d="m57.7163,500.14l-0.7685,-1.174l-13.9355,9.074l3.0097,-0.286l11.6943,-7.614z"/>
    <path id="svg_271" fill="#7FC1E7" d="m56.9477,498.966l-0.7671,-1.173l-14.576,9.49l0.5489,0.839l0.8587,-0.082l13.9355,-9.074z"/>
    <path id="svg_272" fill="#7FC1E7" d="m55.4075,496.64l0.7673,1.173l-14.5756,9.49l-0.7673,-1.173l14.5756,-9.49z"/>
    <path id="svg_273" fill="#7FC1E7" d="m54.6399,495.464l0.7673,1.173l-14.5756,9.49l-0.7673,-1.173l14.5756,-9.49z"/>
    <path id="svg_274" fill="#7FC1E7" d="m54.6454,495.447l-0.3805,-0.584l-1.5137,0.144l-13.4489,8.756l0.7671,1.173l14.576,-9.489z"/>
    <path id="svg_275" fill="#7FC1E7" d="m49.7399,495.294l-11.205,7.295l0.7672,1.174l13.4489,-8.756l-3.0111,0.287z"/>
    <path id="svg_276" fill="#7FC1E7" d="m46.7306,495.581l-8.9625,5.835l0.7671,1.173l11.205,-7.295l-3.0096,0.287z"/>
    <path id="svg_277" fill="#7FC1E7" d="m37.7343,501.365l0.0337,0.051l8.9625,-5.835l-9.4612,0.901l0.465,4.883z"/>
    <path id="svg_278" fill="#7FC1E7" d="m76.8779,514.436l-0.3564,0.231l0.375,-0.036l-0.0186,-0.195z"/>
    <path id="svg_279" fill="#7FC1E7" d="m76.7275,512.86l-3.2173,2.093l3.011,-0.286l0.3564,-0.231l-0.1501,-1.576z"/>
    <path id="svg_280" fill="#7FC1E7" d="m76.5771,511.285l-6.077,3.955l3.0097,-0.287l3.2173,-2.093l-0.15,-1.575z"/>
    <path id="svg_281" fill="#7FC1E7" d="m76.4307,509.748l-0.0193,-0.03l-8.9211,5.809l3.0097,-0.287l6.0771,-3.955l-0.1464,-1.537z"/>
    <path id="svg_282" fill="#7FC1E7" d="m76.4115,509.718l-0.7684,-1.172l-11.1638,7.267l3.0111,-0.286l8.9211,-5.809z"/>
    <path id="svg_283" fill="#7FC1E7" d="m75.6431,508.546l-0.7672,-1.174l-13.4062,8.728l3.0097,-0.287l11.1637,-7.267z"/>
    <path id="svg_284" fill="#7FC1E7" d="m74.8764,507.372l-0.7671,-1.173l-14.576,9.489l0.3675,0.561l1.5694,-0.149l13.4062,-8.728z"/>
    <path id="svg_285" fill="#7FC1E7" d="m73.3372,505.042l0.7673,1.173l-14.5756,9.491l-0.7673,-1.173l14.5756,-9.491z"/>
    <path id="svg_286" fill="#7FC1E7" d="m72.5686,503.87l0.7673,1.173l-14.5756,9.491l-0.7673,-1.173l14.5756,-9.491z"/>
    <path id="svg_287" fill="#7FC1E7" d="m72.5736,503.852l-0.5619,-0.861l-0.803,0.076l-13.9781,9.102l0.7671,1.172l14.5759,-9.489z"/>
    <path id="svg_288" fill="#7FC1E7" d="m68.198,503.354l-11.7343,7.641l0.7672,1.174l13.9781,-9.102l-3.011,0.287z"/>
    <path id="svg_289" fill="#7FC1E7" d="m65.1876,503.641l-9.493,6.181l0.7684,1.173l11.7343,-7.641l-3.0097,0.287z"/>
    <path id="svg_290" fill="#7FC1E7" d="m62.1778,503.927l-6.8051,4.431l0.1082,1.136l0.2136,0.328l9.493,-6.181l-3.0097,0.286z"/>
    <path id="svg_291" fill="#7FC1E7" d="m59.1667,504.214l-3.944,2.569l0.1499,1.575l6.8051,-4.431l-3.011,0.287z"/>
    <path id="svg_292" fill="#7FC1E7" d="m56.1573,504.501l-1.0844,0.706l0.1501,1.576l3.944,-2.569l-3.0097,0.287z"/>
    <path id="svg_293" fill="#7FC1E7" d="m55.0728,505.207l1.0844,-0.706l-1.1413,0.108l0.0569,0.598z"/>
    <path id="svg_294" fill="#7FC1E7" d="m94.5088,521.36l-2.5407,1.654l2.674,-0.254l-0.1333,-1.4z"/>
    <path id="svg_295" fill="#7FC1E7" d="m94.3584,519.785l-5.4004,3.516l3.0096,-0.287l2.5408,-1.654l-0.15,-1.575z"/>
    <path id="svg_296" fill="#7FC1E7" d="m94.208,518.209l-8.26,5.379l3.0097,-0.287l5.4004,-3.516l-0.1501,-1.576z"/>
    <path id="svg_297" fill="#7FC1E7" d="m94.1768,517.877l-0.6051,-0.926l-10.6344,6.923l3.0111,-0.286l8.26,-5.379l-0.0316,-0.332z"/>
    <path id="svg_298" fill="#7FC1E7" d="m93.5718,516.951l-0.7672,-1.174l-12.8769,8.384l3.0097,-0.287l10.6344,-6.923z"/>
    <path id="svg_299" fill="#7FC1E7" d="m92.8041,515.777l-0.767,-1.173l-14.5774,9.49l0.1862,0.284l2.2813,-0.217l12.8769,-8.384z"/>
    <path id="svg_300" fill="#7FC1E7" d="m91.264,513.453l0.7672,1.173l-14.5756,9.49l-0.7673,-1.173l14.5757,-9.49z"/>
    <path id="svg_301" fill="#7FC1E7" d="m90.4964,512.278l0.7673,1.173l-14.5756,9.49l-0.7674,-1.173l14.5757,-9.49z"/>
    <path id="svg_302" fill="#7FC1E7" d="m90.5018,512.258l-0.7446,-1.138l-0.091,0.008l-14.5074,9.446l0.767,1.173l14.576,-9.489z"/>
    <path id="svg_303" fill="#7FC1E7" d="m86.655,511.415l-12.265,7.985l0.7686,1.174l14.5074,-9.446l-3.011,0.287z"/>
    <path id="svg_304" fill="#7FC1E7" d="m83.6456,511.702l-10.0224,6.525l0.7671,1.173l12.265,-7.985l-3.0097,0.287z"/>
    <path id="svg_305" fill="#7FC1E7" d="m80.6358,511.988l-7.4816,4.871l0.0727,0.763l0.3963,0.605l10.0223,-6.525l-3.0097,0.286z"/>
    <path id="svg_306" fill="#7FC1E7" d="m77.6247,512.275l-4.6207,3.008l0.1501,1.576l7.4816,-4.871l-3.011,0.287z"/>
    <path id="svg_307" fill="#7FC1E7" d="m74.6153,512.562l-1.7609,1.146l0.1499,1.575l4.6207,-3.008l-3.0097,0.287z"/>
    <path id="svg_308" fill="#7FC1E7" d="m72.8543,513.708l1.7609,-1.146l-1.8533,0.176l0.0924,0.97z"/>
    <path id="svg_309" fill="#7FC1E7" d="m112.291,529.861l-1.866,1.214l1.964,-0.187l-0.098,-1.027z"/>
    <path id="svg_310" fill="#7FC1E7" d="m112.141,528.285l-4.726,3.077l3.01,-0.286l1.866,-1.215l-0.15,-1.576z"/>
    <path id="svg_311" fill="#7FC1E7" d="m111.99,526.71l-7.586,4.939l3.011,-0.287l4.725,-3.077l-0.15,-1.575z"/>
    <path id="svg_312" fill="#7FC1E7" d="m111.923,526.004l-0.423,-0.647l-10.105,6.579l3.009,-0.287l7.587,-4.939l-0.068,-0.706z"/>
    <path id="svg_313" fill="#7FC1E7" d="m111.5,525.357l-0.768,-1.174l-12.3472,8.039l3.0092,-0.286l10.106,-6.579z"/>
    <path id="svg_314" fill="#7FC1E7" d="m110.733,524.183l-0.769,-1.173l-14.5756,9.489l0.0048,0.008l2.9921,-0.285l12.3477,-8.039z"/>
    <path id="svg_315" fill="#7FC1E7" d="m109.194,521.857l0.767,1.173l-14.5757,9.49l-0.7673,-1.173l14.576,-9.49z"/>
    <path id="svg_316" fill="#7FC1E7" d="m108.426,520.686l0.767,1.173l-14.5753,9.49l-0.7673,-1.173l14.5756,-9.49z"/>
    <path id="svg_317" fill="#7FC1E7" d="m107.658,519.506l0.768,1.173l-14.5758,9.491l-0.7674,-1.173l14.5752,-9.491z"/>
    <path id="svg_318" fill="#7FC1E7" d="m107.662,519.489l-0.157,-0.241l-2.392,0.228l-12.7942,8.33l0.7672,1.174l14.576,-9.491z"/>
    <path id="svg_319" fill="#7FC1E7" d="m102.103,519.763l-10.5521,6.87l0.7671,1.173l12.794,-8.33l-3.009,0.287z"/>
    <path id="svg_320" fill="#7FC1E7" d="m99.0915,520.049l-8.1555,5.31l0.0372,0.391l0.5776,0.883l10.5522,-6.87l-3.0115,0.286z"/>
    <path id="svg_321" fill="#7FC1E7" d="m96.0821,520.336l-5.2959,3.447l0.1501,1.576l8.1555,-5.31l-3.0097,0.287z"/>
    <path id="svg_322" fill="#7FC1E7" d="m93.0723,520.623l-2.4362,1.586l0.15,1.574l5.2959,-3.447l-3.0097,0.287z"/>
    <path id="svg_323" fill="#7FC1E7" d="m90.6361,522.209l2.4362,-1.586l-2.564,0.244l0.1278,1.342z"/>
    <path id="svg_324" fill="#7FC1E7" d="m130.073,538.361l-1.19,0.776l1.253,-0.12l-0.063,-0.656z"/>
    <path id="svg_325" fill="#7FC1E7" d="m129.923,536.785l-4.05,2.638l3.01,-0.286l1.19,-0.776l-0.15,-1.576z"/>
    <path id="svg_326" fill="#7FC1E7" d="m129.773,535.21l-6.911,4.5l3.011,-0.287l4.05,-2.638l-0.15,-1.575z"/>
    <path id="svg_327" fill="#7FC1E7" d="m129.67,534.133l-0.242,-0.371l-9.576,6.235l3.01,-0.287l6.911,-4.5l-0.103,-1.077z"/>
    <path id="svg_328" fill="#7FC1E7" d="m129.428,533.762l-0.768,-1.174l-11.817,7.695l3.01,-0.286l9.575,-6.235z"/>
    <path id="svg_329" fill="#7FC1E7" d="m128.66,532.588l-0.768,-1.173l-14.06,9.155l3.011,-0.287l11.817,-7.695z"/>
    <path id="svg_330" fill="#7FC1E7" d="m127.892,531.415l-0.767,-1.174l-14.576,9.491l0.591,0.904l0.691,-0.066l14.061,-9.155z"/>
    <path id="svg_331" fill="#7FC1E7" d="m126.353,529.09l0.767,1.173l-14.576,9.49l-0.767,-1.173l14.576,-9.49z"/>
    <path id="svg_332" fill="#7FC1E7" d="m125.587,527.914l0.767,1.173l-14.575,9.49l-0.767,-1.173l14.575,-9.49z"/>
    <path id="svg_333" fill="#7FC1E7" d="m125.59,527.895l-0.339,-0.518l-1.68,0.16l-13.324,8.674l0.767,1.174l14.576,-9.49z"/>
    <path id="svg_334" fill="#7FC1E7" d="m120.561,527.824l-11.082,7.213l0.768,1.174l13.323,-8.674l-3.009,0.287z"/>
    <path id="svg_335" fill="#7FC1E7" d="m117.55,528.111l-8.831,5.749l0.002,0.019l0.758,1.158l11.082,-7.213l-3.011,0.287z"/>
    <path id="svg_336" fill="#7FC1E7" d="m114.54,528.397l-5.971,3.886l0.15,1.577l8.831,-5.749l-3.01,0.286z"/>
    <path id="svg_337" fill="#7FC1E7" d="m111.53,528.684l-3.111,2.025l0.15,1.574l5.971,-3.886l-3.01,0.287z"/>
    <path id="svg_338" fill="#7FC1E7" d="m108.519,528.971l-0.25,0.162l0.15,1.576l3.111,-2.025l-3.011,0.287z"/>
    <path id="svg_339" fill="#7FC1E7" d="m108.269,529.133l0.251,-0.162l-0.264,0.025l0.013,0.137z"/>
    <path id="svg_340" fill="#7FC1E7" d="m147.855,546.861l-0.515,0.335l0.542,-0.051l-0.027,-0.284z"/>
    <path id="svg_341" fill="#7FC1E7" d="m147.705,545.287l-3.375,2.196l3.01,-0.287l0.515,-0.335l-0.15,-1.574z"/>
    <path id="svg_342" fill="#7FC1E7" d="m147.556,543.711l-6.236,4.059l3.011,-0.287l3.375,-2.196l-0.15,-1.576z"/>
    <path id="svg_343" fill="#7FC1E7" d="m147.418,542.262l-0.063,-0.094l-9.045,5.888l3.01,-0.286l6.236,-4.059l-0.138,-1.449z"/>
    <path id="svg_344" fill="#7FC1E7" d="m147.355,542.168l-0.767,-1.174l-11.288,7.349l3.01,-0.287l9.045,-5.888z"/>
    <path id="svg_345" fill="#7FC1E7" d="m146.587,540.994l-0.767,-1.173l-13.531,8.809l3.011,-0.287l11.287,-7.349z"/>
    <path id="svg_346" fill="#7FC1E7" d="m145.821,539.821l-0.767,-1.174l-14.578,9.489l0.411,0.627l1.402,-0.133l13.532,-8.809z"/>
    <path id="svg_347" fill="#7FC1E7" d="m144.282,537.494l0.768,1.173l-14.576,9.49l-0.767,-1.173l14.575,-9.49z"/>
    <path id="svg_348" fill="#7FC1E7" d="m143.516,536.322l0.767,1.173l-14.575,9.49l-0.768,-1.173l14.576,-9.49z"/>
    <path id="svg_349" fill="#7FC1E7" d="m143.518,536.3l-0.52,-0.795l-0.97,0.092l-13.853,9.02l0.767,1.172l14.576,-9.489z"/>
    <path id="svg_350" fill="#7FC1E7" d="m139.018,535.884l-11.612,7.559l0.768,1.174l13.853,-9.02l-3.009,0.287z"/>
    <path id="svg_351" fill="#7FC1E7" d="m136.007,536.17l-9.368,6.1l0.767,1.173l11.612,-7.559l-3.011,0.286z"/>
    <path id="svg_352" fill="#7FC1E7" d="m132.997,536.457l-6.646,4.328l0.116,1.222l0.172,0.263l9.368,-6.1l-3.01,0.287z"/>
    <path id="svg_353" fill="#7FC1E7" d="m129.987,536.744l-3.786,2.465l0.15,1.576l6.646,-4.328l-3.01,0.287z"/>
    <path id="svg_354" fill="#7FC1E7" d="m126.976,537.03l-0.925,0.604l0.15,1.575l3.786,-2.465l-3.011,0.286z"/>
    <path id="svg_355" fill="#7FC1E7" d="m126.051,537.634l0.926,-0.604l-0.975,0.093l0.049,0.511z"/>
    <path id="svg_356" fill="#7FC1E7" d="m165.188,550.636l-8.421,5.481l3.01,-0.286l5.56,-3.62l-0.149,-1.575z"/>
    <path id="svg_357" fill="#7FC1E7" d="m165.164,550.391l-0.648,-0.992l-10.76,7.005l3.011,-0.287l8.42,-5.481l-0.023,-0.245z"/>
    <path id="svg_358" fill="#7FC1E7" d="m164.516,549.399l-0.767,-1.172l-13.002,8.464l3.009,-0.287l10.76,-7.005z"/>
    <path id="svg_359" fill="#7FC1E7" d="m163.749,548.227l-0.769,-1.174l-14.576,9.489l0.229,0.35l2.113,-0.201l13.003,-8.464z"/>
    <path id="svg_360" fill="#7FC1E7" d="m162.213,545.901l0.767,1.172l-14.575,9.491l-0.767,-1.173l14.575,-9.49z"/>
    <path id="svg_361" fill="#7FC1E7" d="m161.444,544.725l0.767,1.173l-14.576,9.49l-0.767,-1.173l14.576,-9.49z"/>
    <path id="svg_362" fill="#7FC1E7" d="m161.446,544.706l-0.702,-1.073l-0.258,0.025l-14.384,9.364l0.768,1.173l14.576,-9.489z"/>
    <path id="svg_363" fill="#7FC1E7" d="m157.476,543.945l-12.141,7.903l0.767,1.174l14.383,-9.364l-3.009,0.287z"/>
    <path id="svg_364" fill="#7FC1E7" d="m154.465,544.231l-9.898,6.444l0.767,1.173l12.142,-7.903l-3.011,0.286z"/>
    <path id="svg_365" fill="#7FC1E7" d="m151.455,544.518l-7.321,4.767l0.081,0.85l0.353,0.54l9.897,-6.444l-3.01,0.287z"/>
    <path id="svg_366" fill="#7FC1E7" d="m148.444,544.805l-4.461,2.904l0.151,1.576l7.321,-4.767l-3.011,0.287z"/>
    <path id="svg_367" fill="#7FC1E7" d="m145.434,545.091l-1.601,1.043l0.15,1.575l4.46,-2.904l-3.009,0.286z"/>
    <path id="svg_368" fill="#7FC1E7" d="m143.834,546.134l1.601,-1.043l-1.685,0.161l0.084,0.882z"/>
   </g>
   <g id="svg_369">
    <path id="svg_370" fill="#394F94" d="m173.966,508.642l15.933,-9.999l-28.911,-12.269l-15.935,9.999l28.913,12.269z"/>
    <path id="svg_371" fill="#394F94" d="m204.68,521.198l15.933,-9.999l-26.617,-10.739l-15.933,10.001l26.617,10.737z"/>
    <path id="svg_372" fill="#394F94" d="m141.554,494.818l15.935,-9.999l-28.913,-12.269l-15.931,9.999l28.909,12.269z"/>
    <path id="svg_373" fill="#394F94" d="m106.15,479.456l15.934,-10l-28.9111,-12.268l-15.9314,9.999l28.9085,12.269z"/>
   </g>
   <path id="svg_374" fill="#4C7B53" d="m172.832,504.54l11.415,-7.163l-0.035,-40.103l-11.415,7.163l0.035,40.103z"/>
   <path id="svg_375" fill="url(#paint3_linear_234_28260)" d="m172.832,504.54l11.415,-7.163l-0.035,-40.103l-11.415,7.163l0.035,40.103z"/>
   <path id="svg_376" fill="#4970CA" d="m172.798,464.437l11.415,-7.163l-20.714,-8.789l-11.415,7.163l20.714,8.789z"/>
   <path id="svg_377" fill="#8BB07C" d="m152.084,455.648l0.034,40.102l20.714,8.79l-0.035,-40.103l-20.713,-8.789z"/>
   <path id="svg_378" fill="url(#paint4_linear_234_28260)" d="m152.084,455.648l0.034,40.102l20.714,8.79l-0.035,-40.103l-20.713,-8.789z"/>
   <path id="svg_379" fill="#8A2048" d="m203.024,517.351l11.415,-7.162l-0.021,-24.758l-11.415,7.163l0.021,24.757z"/>
   <path id="svg_380" fill="url(#paint5_linear_234_28260)" d="m203.024,517.351l11.415,-7.162l-0.021,-24.758l-11.415,7.163l0.021,24.757z"/>
   <path id="svg_381" fill="#4970CA" d="m203.003,492.594l11.415,-7.163l-20.714,-8.79l-11.413,7.165l20.712,8.788z"/>
   <path id="svg_382" fill="#E32C86" d="m182.291,483.806l0.022,24.756l20.711,8.789l-0.021,-24.757l-20.712,-8.788z"/>
   <path id="svg_383" fill="url(#paint6_linear_234_28260)" d="m182.291,483.806l0.022,24.756l20.711,8.789l-0.021,-24.757l-20.712,-8.788z"/>
   <path id="svg_384" fill="#007596" d="m140.433,490.792l11.415,-7.166l-0.059,-66.498l-11.415,7.166l0.059,66.498z"/>
   <path id="svg_385" fill="url(#paint7_linear_234_28260)" d="m140.433,490.792l11.415,-7.166l-0.059,-66.498l-11.415,7.166l0.059,66.498z"/>
   <path id="svg_386" fill="#4970CA" d="m140.374,424.294l11.415,-7.165l-20.714,-8.79l-11.413,7.165l20.712,8.79z"/>
   <path id="svg_387" fill="#00ADE1" d="m119.662,415.504l0.059,66.498l20.712,8.79l-0.059,-66.498l-20.712,-8.79z"/>
   <path id="svg_388" fill="url(#paint8_linear_234_28260)" d="m119.662,415.504l0.059,66.498l20.712,8.79l-0.059,-66.498l-20.712,-8.79z"/>
   <path id="svg_389" fill="#23398E" d="m105.008,475.758l11.415,-7.163l-0.074,-69.295l-11.415,7.165l0.074,69.293z"/>
   <path id="svg_390" fill="url(#paint9_linear_234_28260)" d="m105.008,475.758l11.415,-7.163l-0.074,-69.295l-11.415,7.165l0.074,69.293z"/>
   <path id="svg_391" fill="#4970CA" d="m104.934,406.465l11.416,-7.165l-20.7143,-8.788l-11.4129,7.163l20.7112,8.79z"/>
   <path id="svg_392" fill="#6F6EB1" d="m84.2226,397.675l0.0735,69.293l20.7119,8.79l-0.074,-69.293l-20.7114,-8.79z"/>
   <path id="svg_393" fill="url(#paint10_linear_234_28260)" d="m84.2226,397.675l0.0735,69.293l20.7119,8.79l-0.074,-69.293l-20.7114,-8.79z"/>
   <path id="svg_394" fill="#633763" d="m150.905,421.86l3.228,-2.029l0.888,-4.729l-3.231,2.027l-0.885,4.731z"/>
   <path id="svg_395" fill="#343FC5" d="m155.021,415.102l18.576,27.864l-3.231,2.027l-18.576,-27.864l3.231,-2.027z"/>
   <path id="svg_396" fill="#343FC5" d="m150.905,421.86l3.229,-2.029l-1.32,7.054l-3.229,2.028l1.32,-7.053z"/>
   <path id="svg_397" fill="#343FC5" d="m152.725,412.129l3.231,-2.027l-0.935,5l-3.231,2.027l0.935,-5z"/>
   <path id="svg_398" fill="#343FC5" d="m152.725,412.129l3.231,-2.027l-10.552,-5.69l-3.23,2.027l10.551,5.69z"/>
   <path id="svg_399" fill="#343FC5" d="m173.504,455.76l3.231,-2.027l1.376,-15.596l-3.231,2.027l-1.376,15.596z"/>
   <path id="svg_400" fill="#623763" d="m203.871,483.683l3.231,-2.029l2.731,-1.958l-3.231,2.027l-2.731,1.96z"/>
   <path id="svg_401" fill="#CFDAFF" d="m152.725,412.129l-0.935,5l18.576,27.864l1.377,-15.6l34.86,52.33l-2.731,1.96l-28.992,-43.519l-1.376,15.596l-22.599,-33.9l-1.32,7.053l-7.411,-22.474l10.551,5.69z"/>
   <path id="svg_402" fill="#343FC5" d="m206.602,481.723l3.231,-2.027l-34.86,-52.33l-3.231,2.027l34.86,52.33z"/>
  </g>
 </g>
</svg>