<svg width="24" height="24" viewBox="0 0 24 24" fill="none" xmlns="http://www.w3.org/2000/svg">
<path d="M21.1213 5.12132L19.7071 3.70711C19.3166 3.31658 18.6834 3.31658 18.2929 3.70711L17.5858 4.41421C17.1953 4.80474 17.1953 5.4379 17.5858 5.82843L19 7.24264C19.3905 7.63316 20.0237 7.63316 20.4142 7.24264L21.1213 6.53553C21.5118 6.14501 21.5118 5.51184 21.1213 5.12132Z" fill="white"/>
<path d="M16.8787 6.53553L18.2929 7.94971C18.6834 8.34023 18.6834 8.97339 18.2929 9.36392L7.68625 19.9705L5.74668 20.1861C5.10976 20.2568 4.57158 19.7187 4.64235 19.0817L4.85786 17.1421L15.4645 6.53553C15.855 6.14501 16.4882 6.14501 16.8787 6.53553Z" fill="white"/>
</svg>
